M48
; DRILL file {KiCad 7.0.6} date Mon 14 Aug 2023 08:41:48 PM CEST
; FORMAT={-:-/ absolute / metric / decimal}
; #@! TF.CreationDate,2023-08-14T20:41:48+02:00
; #@! TF.GenerationSoftware,Kicad,Pcbnew,7.0.6
; #@! TF.FileFunction,Plated,1,2,PTH
FMAT,2
METRIC
; #@! TA.AperFunction,Plated,PTH,ViaDrill
T1C0.400
; #@! TA.AperFunction,Plated,PTH,ComponentDrill
T2C0.800
; #@! TA.AperFunction,Plated,PTH,ComponentDrill
T3C1.000
; #@! TA.AperFunction,Plated,PTH,ComponentDrill
T4C1.300
; #@! TA.AperFunction,Plated,PTH,ComponentDrill
T5C2.000
; #@! TA.AperFunction,Plated,PTH,ComponentDrill
T6C2.500
; #@! TA.AperFunction,Plated,PTH,ComponentDrill
T7C2.700
%
G90
G05
T1
X96.842Y-99.482
X99.2Y-94.35
X99.425Y-100.305
X100.0Y-108.585
X101.0Y-107.5
X103.3Y-109.45
X103.325Y-106.805
X104.45Y-91.95
X104.625Y-93.205
X105.4Y-103.25
X105.925Y-98.005
X106.1Y-90.05
X109.5Y-109.3
X109.685Y-100.685
X109.784Y-104.4
X111.1Y-101.8
X111.175Y-100.7
X112.9Y-101.8
X113.9Y-100.7
X116.1Y-88.45
X116.65Y-94.85
X118.5Y-127.8
X119.65Y-94.55
X121.5Y-87.6
X121.55Y-82.95
X121.6Y-85.35
X121.9Y-93.2
X121.95Y-79.45
X122.25Y-69.4
X123.4Y-97.1
X123.9Y-130.0
X125.4Y-97.8
X126.4Y-114.1
X126.4Y-115.0
X126.4Y-115.9
X126.4Y-116.8
X126.4Y-117.7
X126.4Y-118.6
X126.4Y-119.5
X126.4Y-120.4
X126.4Y-121.3
X126.9Y-113.3
X126.9Y-122.1
X127.0Y-86.8
X127.3Y-114.1
X127.3Y-115.0
X127.3Y-115.9
X127.3Y-116.8
X127.3Y-117.7
X127.3Y-118.6
X127.3Y-119.5
X127.3Y-120.4
X127.3Y-121.3
X127.538Y-92.162
X127.55Y-82.7
X127.8Y-113.3
X127.8Y-122.1
X127.9Y-78.514
X128.2Y-114.1
X128.2Y-121.3
X128.692Y-76.815
X128.7Y-113.3
X128.7Y-122.1
X129.1Y-114.1
X129.1Y-121.3
X129.6Y-122.1
X129.6Y-113.3
X129.8Y-97.8
X130.0Y-114.1
X130.0Y-76.8
X130.0Y-91.35
X130.0Y-121.3
X130.15Y-68.55
X130.4Y-77.8
X130.5Y-113.3
X130.5Y-122.1
X130.615Y-86.0
X130.9Y-121.3
X130.9Y-114.1
X131.0Y-93.9
X131.3Y-97.4
X131.4Y-113.3
X131.4Y-122.1
X131.5Y-70.5
X131.8Y-114.1
X131.8Y-121.3
X131.85Y-95.15
X132.3Y-113.3
X132.3Y-122.1
X132.45Y-83.238
X132.698Y-82.206
X132.7Y-69.9
X132.7Y-114.1
X132.7Y-121.3
X132.839Y-90.446
X133.2Y-113.3
X133.2Y-122.1
X133.596Y-91.204
X133.6Y-114.1
X133.6Y-121.3
X133.833Y-82.234
X134.0Y-70.5
X134.1Y-113.3
X134.1Y-122.1
X134.3Y-85.737
X134.5Y-114.1
X134.5Y-121.3
X135.1Y-96.4
X135.45Y-71.15
X135.6Y-68.35
X136.521Y-80.419
X137.45Y-122.85
X137.7Y-126.95
X139.593Y-75.5
X140.2Y-93.15
X140.343Y-76.273
X140.5Y-121.7
X140.6Y-71.4
X140.6Y-102.3
X141.3Y-93.3
X141.8Y-71.4
X142.32Y-93.149
X142.9Y-69.6
X143.0Y-71.349
X143.304Y-93.349
X143.6Y-90.8
X143.645Y-79.067
X143.841Y-77.568
X144.2Y-71.349
X144.2Y-103.85
X144.8Y-80.419
X145.3Y-88.8
X145.6Y-69.75
X147.149Y-83.738
X147.2Y-82.4
X148.1Y-69.6
X148.2Y-124.0
X148.3Y-90.1
X148.95Y-76.549
X148.987Y-80.613
X149.058Y-89.4
X149.737Y-81.32
X149.837Y-77.3
X149.837Y-78.4
X149.9Y-94.7
X150.3Y-71.2
X150.35Y-97.1
X150.487Y-80.5
X150.75Y-107.6
X150.843Y-83.858
X151.25Y-127.05
X151.605Y-84.504
X152.427Y-85.084
X152.95Y-70.3
X153.9Y-95.95
X154.1Y-88.25
X156.2Y-126.7
X156.55Y-74.15
X157.7Y-108.1
X158.15Y-95.35
X158.65Y-110.4
X159.3Y-120.85
X159.8Y-89.55
X160.3Y-110.5
X160.5Y-107.8
X162.45Y-72.2
X165.15Y-94.8
X165.45Y-68.8
X165.6Y-105.9
X167.1Y-67.9
X167.4Y-115.5
X167.4Y-122.7
X167.5Y-104.6
X167.8Y-114.7
X167.8Y-123.5
X168.0Y-71.0
X168.3Y-115.5
X168.3Y-122.7
X168.4Y-94.2
X168.7Y-114.7
X168.7Y-123.5
X168.85Y-96.95
X168.9Y-106.8
X169.2Y-115.5
X169.2Y-122.7
X169.6Y-114.7
X169.6Y-123.5
X170.1Y-115.5
X170.1Y-122.7
X170.3Y-74.95
X170.5Y-114.7
X170.5Y-123.5
X171.0Y-115.5
X171.0Y-122.7
X171.3Y-106.8
X171.4Y-123.5
X171.4Y-114.7
X171.9Y-122.7
X171.9Y-115.5
X172.15Y-104.5
X172.3Y-114.7
X172.3Y-123.5
X172.5Y-131.0
X172.8Y-115.5
X172.8Y-122.7
X173.2Y-114.7
X173.2Y-123.5
X173.7Y-115.5
X173.7Y-122.7
X174.1Y-114.7
X174.1Y-123.5
X174.6Y-115.5
X174.6Y-116.4
X174.6Y-117.3
X174.6Y-118.2
X174.6Y-119.1
X174.6Y-120.0
X174.6Y-120.9
X174.6Y-121.8
X174.6Y-122.7
X174.7Y-93.9
X175.0Y-114.7
X175.0Y-123.5
X175.5Y-115.5
X175.5Y-116.4
X175.5Y-117.3
X175.5Y-118.2
X175.5Y-119.1
X175.5Y-120.0
X175.5Y-120.9
X175.5Y-121.8
X175.5Y-122.7
X176.55Y-128.75
X177.8Y-131.0
X180.05Y-70.65
X181.4Y-124.7
X181.95Y-104.45
X182.95Y-74.95
X184.85Y-74.0
X185.1Y-102.8
X185.2Y-118.0
X185.95Y-112.05
X187.05Y-73.2
X187.35Y-106.45
X188.05Y-122.0
X188.65Y-101.25
X189.25Y-72.3
X190.44Y-114.36
X192.394Y-65.794
X197.4Y-89.55
X204.85Y-121.3
X205.0Y-113.25
X206.05Y-97.15
T2
X115.52Y-131.0
X125.2Y-84.35
X125.2Y-89.23
X125.68Y-131.0
X127.67Y-70.5
X137.83Y-70.5
X157.58Y-78.38
X157.58Y-80.92
X157.58Y-83.46
X157.58Y-86.0
X165.2Y-78.38
X165.2Y-80.92
X165.2Y-83.46
X165.2Y-86.0
X169.4Y-128.46
X179.56Y-128.46
T3
X121.281Y-74.959
X121.355Y-65.5
X123.821Y-74.959
X123.895Y-65.5
X126.361Y-74.959
X126.435Y-65.5
X128.8Y-128.47
X128.8Y-131.01
X128.901Y-74.959
X128.975Y-65.5
X131.34Y-128.47
X131.34Y-131.01
X131.441Y-74.959
X131.515Y-65.5
X133.88Y-128.47
X133.88Y-131.01
X133.981Y-74.959
X134.055Y-65.5
X136.42Y-128.47
X136.42Y-131.01
X136.595Y-65.5
X139.135Y-65.5
X141.675Y-65.5
X144.215Y-65.5
X146.755Y-65.5
X149.295Y-65.5
X151.835Y-65.5
X154.375Y-65.5
X156.915Y-65.5
X158.78Y-128.46
X158.78Y-131.0
X159.455Y-65.5
X161.32Y-128.46
X161.32Y-131.0
X161.995Y-65.5
X163.86Y-128.46
X163.86Y-131.0
X164.535Y-65.5
X166.4Y-128.46
X166.4Y-131.0
X167.075Y-65.5
X169.615Y-65.5
X191.85Y-72.3
X191.85Y-74.8
X191.85Y-77.3
X206.35Y-72.3
X206.35Y-77.3
T4
X145.1Y-129.5
X150.1Y-129.5
X193.3Y-103.5
X193.3Y-108.5
X193.3Y-118.7
X193.3Y-123.7
X205.8Y-103.5
X205.8Y-108.5
X205.8Y-118.7
X205.8Y-123.7
T6
X96.0Y-65.5
X96.0Y-130.5
X111.2Y-130.3
X112.2Y-65.5
T5
X199.1Y-69.2G85X199.6Y-69.2
G05
X199.1Y-80.4G85X199.6Y-80.4
G05
T6
X183.615Y-65.5G85X184.385Y-65.5
G05
T7
X183.715Y-130.4G85X184.285Y-130.4
G05
T0
M30
