%TF.GenerationSoftware,KiCad,Pcbnew,7.0.6*%
%TF.CreationDate,2023-08-14T20:41:48+02:00*%
%TF.ProjectId,forrasztos,666f7272-6173-47a7-946f-732e6b696361,rev?*%
%TF.SameCoordinates,Original*%
%TF.FileFunction,Drillmap*%
%TF.FilePolarity,Positive*%
%FSLAX45Y45*%
G04 Gerber Fmt 4.5, Leading zero omitted, Abs format (unit mm)*
G04 Created by KiCad (PCBNEW 7.0.6) date 2023-08-14 20:41:48*
%MOMM*%
%LPD*%
G01*
G04 APERTURE LIST*
%ADD10C,0.100000*%
%ADD11C,0.200000*%
G04 APERTURE END LIST*
D10*
X9320000Y-6270000D02*
X20820000Y-6270000D01*
X9320000Y-6270000D02*
X9320000Y-13330000D01*
X20820000Y-13330000D02*
X20820000Y-6270000D01*
X9320000Y-13330000D02*
X20820000Y-13330000D01*
D11*
X9575777Y-13646484D02*
X9575777Y-13446484D01*
X9575777Y-13446484D02*
X9623396Y-13446484D01*
X9623396Y-13446484D02*
X9651967Y-13456008D01*
X9651967Y-13456008D02*
X9671015Y-13475055D01*
X9671015Y-13475055D02*
X9680539Y-13494103D01*
X9680539Y-13494103D02*
X9690063Y-13532198D01*
X9690063Y-13532198D02*
X9690063Y-13560769D01*
X9690063Y-13560769D02*
X9680539Y-13598865D01*
X9680539Y-13598865D02*
X9671015Y-13617912D01*
X9671015Y-13617912D02*
X9651967Y-13636960D01*
X9651967Y-13636960D02*
X9623396Y-13646484D01*
X9623396Y-13646484D02*
X9575777Y-13646484D01*
X9775777Y-13646484D02*
X9775777Y-13513150D01*
X9775777Y-13551246D02*
X9785301Y-13532198D01*
X9785301Y-13532198D02*
X9794824Y-13522674D01*
X9794824Y-13522674D02*
X9813872Y-13513150D01*
X9813872Y-13513150D02*
X9832920Y-13513150D01*
X9899586Y-13646484D02*
X9899586Y-13513150D01*
X9899586Y-13446484D02*
X9890063Y-13456008D01*
X9890063Y-13456008D02*
X9899586Y-13465531D01*
X9899586Y-13465531D02*
X9909110Y-13456008D01*
X9909110Y-13456008D02*
X9899586Y-13446484D01*
X9899586Y-13446484D02*
X9899586Y-13465531D01*
X10023396Y-13646484D02*
X10004348Y-13636960D01*
X10004348Y-13636960D02*
X9994824Y-13617912D01*
X9994824Y-13617912D02*
X9994824Y-13446484D01*
X10128158Y-13646484D02*
X10109110Y-13636960D01*
X10109110Y-13636960D02*
X10099586Y-13617912D01*
X10099586Y-13617912D02*
X10099586Y-13446484D01*
X10356729Y-13646484D02*
X10356729Y-13446484D01*
X10356729Y-13446484D02*
X10423396Y-13589341D01*
X10423396Y-13589341D02*
X10490063Y-13446484D01*
X10490063Y-13446484D02*
X10490063Y-13646484D01*
X10671015Y-13646484D02*
X10671015Y-13541722D01*
X10671015Y-13541722D02*
X10661491Y-13522674D01*
X10661491Y-13522674D02*
X10642444Y-13513150D01*
X10642444Y-13513150D02*
X10604348Y-13513150D01*
X10604348Y-13513150D02*
X10585301Y-13522674D01*
X10671015Y-13636960D02*
X10651967Y-13646484D01*
X10651967Y-13646484D02*
X10604348Y-13646484D01*
X10604348Y-13646484D02*
X10585301Y-13636960D01*
X10585301Y-13636960D02*
X10575777Y-13617912D01*
X10575777Y-13617912D02*
X10575777Y-13598865D01*
X10575777Y-13598865D02*
X10585301Y-13579817D01*
X10585301Y-13579817D02*
X10604348Y-13570293D01*
X10604348Y-13570293D02*
X10651967Y-13570293D01*
X10651967Y-13570293D02*
X10671015Y-13560769D01*
X10766253Y-13513150D02*
X10766253Y-13713150D01*
X10766253Y-13522674D02*
X10785301Y-13513150D01*
X10785301Y-13513150D02*
X10823396Y-13513150D01*
X10823396Y-13513150D02*
X10842444Y-13522674D01*
X10842444Y-13522674D02*
X10851967Y-13532198D01*
X10851967Y-13532198D02*
X10861491Y-13551246D01*
X10861491Y-13551246D02*
X10861491Y-13608388D01*
X10861491Y-13608388D02*
X10851967Y-13627436D01*
X10851967Y-13627436D02*
X10842444Y-13636960D01*
X10842444Y-13636960D02*
X10823396Y-13646484D01*
X10823396Y-13646484D02*
X10785301Y-13646484D01*
X10785301Y-13646484D02*
X10766253Y-13636960D01*
X10947205Y-13627436D02*
X10956729Y-13636960D01*
X10956729Y-13636960D02*
X10947205Y-13646484D01*
X10947205Y-13646484D02*
X10937682Y-13636960D01*
X10937682Y-13636960D02*
X10947205Y-13627436D01*
X10947205Y-13627436D02*
X10947205Y-13646484D01*
X10947205Y-13522674D02*
X10956729Y-13532198D01*
X10956729Y-13532198D02*
X10947205Y-13541722D01*
X10947205Y-13541722D02*
X10937682Y-13532198D01*
X10937682Y-13532198D02*
X10947205Y-13522674D01*
X10947205Y-13522674D02*
X10947205Y-13541722D01*
M02*
