G04 #@! TF.GenerationSoftware,KiCad,Pcbnew,7.0.6*
G04 #@! TF.CreationDate,2023-08-14T20:41:20+02:00*
G04 #@! TF.ProjectId,forrasztos,666f7272-6173-47a7-946f-732e6b696361,rev?*
G04 #@! TF.SameCoordinates,Original*
G04 #@! TF.FileFunction,Legend,Bot*
G04 #@! TF.FilePolarity,Positive*
%FSLAX46Y46*%
G04 Gerber Fmt 4.6, Leading zero omitted, Abs format (unit mm)*
G04 Created by KiCad (PCBNEW 7.0.6) date 2023-08-14 20:41:20*
%MOMM*%
%LPD*%
G01*
G04 APERTURE LIST*
%ADD10O,3.048000X1.850000*%
%ADD11C,2.900000*%
%ADD12C,5.000000*%
%ADD13O,3.670000X3.100000*%
%ADD14O,5.770000X5.000000*%
%ADD15O,3.670000X2.900000*%
%ADD16O,1.700000X1.700000*%
%ADD17R,1.700000X1.700000*%
%ADD18C,1.600000*%
%ADD19O,1.600000X1.600000*%
%ADD20C,1.500000*%
%ADD21C,2.000000*%
%ADD22R,1.600000X1.600000*%
%ADD23R,2.000000X2.000000*%
%ADD24R,3.000000X2.500000*%
G04 APERTURE END LIST*
%LPC*%
D10*
X193300000Y-118700000D03*
X205800000Y-118700000D03*
X193300000Y-123700000D03*
X205800000Y-123700000D03*
D11*
X111200000Y-130300000D03*
D12*
X111200000Y-130300000D03*
D13*
X184000000Y-130400000D03*
D14*
X184000000Y-130400000D03*
D15*
X184000000Y-65500000D03*
D14*
X184000000Y-65500000D03*
D16*
X131340000Y-131010000D03*
X133880000Y-131010000D03*
X131340000Y-128470000D03*
X136420000Y-131010000D03*
X133880000Y-128470000D03*
X136420000Y-128470000D03*
D17*
X128800000Y-131010000D03*
D16*
X128800000Y-128470000D03*
X163860000Y-128460000D03*
X163860000Y-131000000D03*
X161320000Y-131000000D03*
X161320000Y-128460000D03*
X158780000Y-128460000D03*
X158780000Y-131000000D03*
D17*
X166400000Y-128460000D03*
D16*
X166400000Y-131000000D03*
D17*
X169615000Y-65500000D03*
D16*
X167075000Y-65500000D03*
X164535000Y-65500000D03*
X161995000Y-65500000D03*
X159455000Y-65500000D03*
X156915000Y-65500000D03*
X154375000Y-65500000D03*
X151835000Y-65500000D03*
X149295000Y-65500000D03*
X146755000Y-65500000D03*
X144215000Y-65500000D03*
X141675000Y-65500000D03*
X139135000Y-65500000D03*
X136595000Y-65500000D03*
X134055000Y-65500000D03*
X131515000Y-65500000D03*
X128975000Y-65500000D03*
X126435000Y-65500000D03*
X123895000Y-65500000D03*
X121355000Y-65500000D03*
D17*
X133981000Y-74958500D03*
D16*
X131441000Y-74958500D03*
X128901000Y-74958500D03*
X126361000Y-74958500D03*
X123821000Y-74958500D03*
X121281000Y-74958500D03*
D18*
X179560000Y-128460000D03*
D19*
X169400000Y-128460000D03*
D18*
X137830000Y-70500000D03*
D19*
X127670000Y-70500000D03*
D10*
X193300000Y-103500000D03*
X205800000Y-103500000D03*
X193300000Y-108500000D03*
X205800000Y-108500000D03*
D11*
X96000000Y-65500000D03*
D12*
X96000000Y-65500000D03*
D20*
X125200000Y-84350000D03*
X125200000Y-89230000D03*
D21*
X145100000Y-129500000D03*
X150100000Y-129500000D03*
D11*
X112200000Y-65500000D03*
D12*
X112200000Y-65500000D03*
D22*
X165200000Y-86000000D03*
D19*
X165200000Y-83460000D03*
X165200000Y-80920000D03*
X165200000Y-78380000D03*
X157580000Y-78380000D03*
X157580000Y-80920000D03*
X157580000Y-83460000D03*
X157580000Y-86000000D03*
D18*
X115520000Y-131000000D03*
D19*
X125680000Y-131000000D03*
D11*
X96000000Y-130500000D03*
D12*
X96000000Y-130500000D03*
D23*
X191850000Y-72300000D03*
D21*
X191850000Y-77300000D03*
X191850000Y-74800000D03*
D24*
X199350000Y-69200000D03*
X199350000Y-80400000D03*
D21*
X206350000Y-72300000D03*
X206350000Y-77300000D03*
%LPD*%
M02*
