M48
; DRILL file {KiCad 7.0.6} date Mon 14 Aug 2023 12:56:59 PM CEST
; FORMAT={-:-/ absolute / inch / decimal}
; #@! TF.CreationDate,2023-08-14T12:56:59+02:00
; #@! TF.GenerationSoftware,Kicad,Pcbnew,7.0.6
; #@! TF.FileFunction,Plated,1,2,PTH
FMAT,2
INCH
; #@! TA.AperFunction,Plated,PTH,ViaDrill
T1C0.0157
; #@! TA.AperFunction,Plated,PTH,ComponentDrill
T2C0.0315
; #@! TA.AperFunction,Plated,PTH,ComponentDrill
T3C0.0394
; #@! TA.AperFunction,Plated,PTH,ComponentDrill
T4C0.0512
; #@! TA.AperFunction,Plated,PTH,ComponentDrill
T5C0.0787
; #@! TA.AperFunction,Plated,PTH,ComponentDrill
T6C0.0984
; #@! TA.AperFunction,Plated,PTH,ComponentDrill
T7C0.1063
%
G90
G05
T1
X3.9144Y-3.949
X3.937Y-4.275
X3.9764Y-4.2323
X4.0679Y-4.2049
X4.1191Y-3.6695
X4.1703Y-3.8585
X4.3183Y-3.964
X4.374Y-4.0079
X4.377Y-3.9646
X4.4449Y-4.0079
X4.4843Y-3.9646
X4.7992Y-3.6693
X4.8583Y-3.8228
X4.878Y-5.1181
X4.937Y-3.8504
X4.9764Y-4.4921
X4.9764Y-4.5276
X4.9764Y-4.563
X4.9764Y-4.5984
X4.9764Y-4.6339
X4.9764Y-4.6693
X4.9764Y-4.7047
X4.9764Y-4.7402
X4.9764Y-4.7756
X4.9961Y-4.4606
X4.9961Y-4.8071
X5.0118Y-4.4921
X5.0118Y-4.5276
X5.0118Y-4.563
X5.0118Y-4.5984
X5.0118Y-4.6339
X5.0118Y-4.6693
X5.0118Y-4.7047
X5.0118Y-4.7402
X5.0118Y-4.7756
X5.0212Y-3.6284
X5.0315Y-4.4606
X5.0315Y-4.8071
X5.0354Y-3.0911
X5.0472Y-4.4921
X5.0472Y-4.7756
X5.0666Y-3.0242
X5.0669Y-4.4606
X5.0669Y-4.8071
X5.0827Y-4.4921
X5.0827Y-4.7756
X5.1024Y-4.8071
X5.1024Y-4.4606
X5.1102Y-3.8504
X5.1181Y-4.4921
X5.1181Y-3.0236
X5.1181Y-4.7756
X5.1339Y-3.063
X5.1378Y-4.4606
X5.1378Y-4.8071
X5.1423Y-3.3858
X5.1535Y-4.7756
X5.1535Y-4.4921
X5.1575Y-3.6969
X5.1693Y-3.8346
X5.1732Y-4.4606
X5.1732Y-4.8071
X5.1772Y-2.7756
X5.189Y-4.4921
X5.189Y-4.7756
X5.2087Y-4.4606
X5.2087Y-4.8071
X5.2145Y-3.2771
X5.2243Y-3.2365
X5.2244Y-4.4921
X5.2244Y-4.7756
X5.2299Y-3.5609
X5.2441Y-4.4606
X5.2441Y-4.8071
X5.2597Y-3.5907
X5.2598Y-4.4921
X5.2598Y-4.7756
X5.269Y-3.2376
X5.2756Y-2.7756
X5.2795Y-4.4606
X5.2795Y-4.8071
X5.2874Y-3.3755
X5.2953Y-4.4921
X5.2953Y-4.7756
X5.3189Y-3.7953
X5.3685Y-4.9106
X5.3748Y-3.1661
X5.437Y-5.1614
X5.4958Y-2.9724
X5.5197Y-3.6673
X5.5253Y-3.0029
X5.5315Y-4.7913
X5.5354Y-2.811
X5.5354Y-4.0276
X5.563Y-3.6732
X5.5827Y-2.811
X5.6032Y-3.6673
X5.6299Y-2.809
X5.6419Y-3.6752
X5.6535Y-3.5748
X5.6553Y-3.1129
X5.6631Y-3.0538
X5.6772Y-2.809
X5.7008Y-3.1661
X5.7205Y-3.4961
X5.7933Y-3.2968
X5.7953Y-3.2441
X5.8346Y-4.8819
X5.8386Y-3.5472
X5.8656Y-3.1737
X5.8684Y-3.5197
X5.8952Y-3.2016
X5.8991Y-3.0433
X5.8991Y-3.0866
X5.9016Y-3.7283
X5.9247Y-3.1693
X5.9387Y-3.3015
X5.9687Y-3.3269
X6.0011Y-3.3497
X6.0669Y-3.4744
X6.1496Y-4.9882
X6.2087Y-4.2559
X6.5138Y-2.7087
X6.5787Y-2.6732
X6.5906Y-4.5472
X6.5906Y-4.8307
X6.6063Y-4.5157
X6.6063Y-4.8622
X6.626Y-4.5472
X6.626Y-4.8307
X6.6417Y-4.5157
X6.6417Y-4.8622
X6.6496Y-4.2047
X6.6614Y-4.5472
X6.6614Y-4.8307
X6.6772Y-4.5157
X6.6772Y-4.8622
X6.6969Y-4.5472
X6.6969Y-4.8307
X6.7126Y-4.5157
X6.7126Y-4.8622
X6.7323Y-4.5472
X6.7323Y-4.8307
X6.7441Y-4.2047
X6.748Y-4.8622
X6.748Y-4.5157
X6.7677Y-4.8307
X6.7677Y-4.5472
X6.7835Y-4.5157
X6.7835Y-4.8622
X6.7913Y-5.1575
X6.8031Y-4.5472
X6.8031Y-4.8307
X6.8189Y-4.5157
X6.8189Y-4.8622
X6.8386Y-4.5472
X6.8386Y-4.8307
X6.8543Y-4.5157
X6.8543Y-4.8622
X6.874Y-4.5472
X6.874Y-4.5827
X6.874Y-4.6181
X6.874Y-4.6535
X6.874Y-4.689
X6.874Y-4.7244
X6.874Y-4.7598
X6.874Y-4.7953
X6.874Y-4.8307
X6.8898Y-4.5157
X6.8898Y-4.8622
X6.9094Y-4.5472
X6.9094Y-4.5827
X6.9094Y-4.6181
X6.9094Y-4.6535
X6.9094Y-4.689
X6.9094Y-4.7244
X6.9094Y-4.7598
X6.9094Y-4.7953
X6.9094Y-4.8307
X7.0Y-5.1575
X7.1417Y-4.9094
X7.2776Y-2.9134
X7.2874Y-4.0472
X7.2913Y-4.6457
X7.3642Y-2.8819
X7.4508Y-2.8465
X7.4976Y-4.5024
T2
X4.548Y-5.1575
X4.9291Y-3.3209
X4.9291Y-3.513
X4.948Y-5.1575
X5.0264Y-2.7756
X5.4264Y-2.7756
X6.2039Y-3.0858
X6.2039Y-3.1858
X6.2039Y-3.2858
X6.2039Y-3.3858
X6.5039Y-3.0858
X6.5039Y-3.1858
X6.5039Y-3.2858
X6.5039Y-3.3858
X6.6693Y-5.0575
X7.0693Y-5.0575
T3
X4.7748Y-2.9511
X4.7778Y-2.5787
X4.8748Y-2.9511
X4.8778Y-2.5787
X4.9748Y-2.9511
X4.9778Y-2.5787
X5.0709Y-5.0579
X5.0709Y-5.1579
X5.0748Y-2.9511
X5.0778Y-2.5787
X5.1709Y-5.0579
X5.1709Y-5.1579
X5.1748Y-2.9511
X5.1778Y-2.5787
X5.2709Y-5.0579
X5.2709Y-5.1579
X5.2748Y-2.9511
X5.2778Y-2.5787
X5.3709Y-5.0579
X5.3709Y-5.1579
X5.3778Y-2.5787
X5.4778Y-2.5787
X5.5778Y-2.5787
X5.6778Y-2.5787
X5.7778Y-2.5787
X5.8778Y-2.5787
X5.9778Y-2.5787
X6.0778Y-2.5787
X6.1778Y-2.5787
X6.2512Y-5.0575
X6.2512Y-5.1575
X6.2778Y-2.5787
X6.3512Y-5.0575
X6.3512Y-5.1575
X6.3778Y-2.5787
X6.4512Y-5.0575
X6.4512Y-5.1575
X6.4778Y-2.5787
X6.5512Y-5.0575
X6.5512Y-5.1575
X6.5778Y-2.5787
X6.6778Y-2.5787
X7.5531Y-2.8465
X7.5531Y-2.9449
X7.5531Y-3.0433
X8.124Y-2.8465
X8.124Y-3.0433
T4
X5.7126Y-5.0984
X5.9094Y-5.0984
X7.6102Y-4.0748
X7.6102Y-4.2717
X7.6102Y-4.6732
X7.6102Y-4.8701
X8.1024Y-4.0748
X8.1024Y-4.2717
X8.1024Y-4.6732
X8.1024Y-4.8701
T6
X3.7795Y-2.5787
X3.7795Y-5.1378
X4.378Y-5.1299
X4.4173Y-2.5787
T5
G00X7.8386Y-2.7244
M15
G01X7.8583Y-2.7244
M16
G05
G00X7.8386Y-3.1654
M15
G01X7.8583Y-3.1654
M16
G05
T6
G00X7.2289Y-2.5787
M15
G01X7.2593Y-2.5787
M16
G05
T7
G00X7.2329Y-5.1339
M15
G01X7.2553Y-5.1339
M16
G05
T0
M30
