%TF.GenerationSoftware,KiCad,Pcbnew,7.0.6*%
%TF.CreationDate,2023-08-14T12:57:00+02:00*%
%TF.ProjectId,forrasztos,666f7272-6173-47a7-946f-732e6b696361,rev?*%
%TF.SameCoordinates,Original*%
%TF.FileFunction,Drillmap*%
%TF.FilePolarity,Positive*%
%FSLAX45Y45*%
G04 Gerber Fmt 4.5, Leading zero omitted, Abs format (unit mm)*
G04 Created by KiCad (PCBNEW 7.0.6) date 2023-08-14 12:57:00*
%MOMM*%
%LPD*%
G01*
G04 APERTURE LIST*
%ADD10C,0.100000*%
%ADD11C,0.200000*%
%ADD12C,0.040000*%
%ADD13C,0.080000*%
%ADD14C,0.130000*%
%ADD15C,0.250000*%
%ADD16C,0.270000*%
G04 APERTURE END LIST*
D10*
X9320000Y-6270000D02*
X20820000Y-6270000D01*
X9320000Y-6270000D02*
X9320000Y-13330000D01*
X20820000Y-13330000D02*
X20820000Y-6270000D01*
X9320000Y-13330000D02*
X20820000Y-13330000D01*
D11*
D12*
X9922500Y-10010500D02*
X9962500Y-10050500D01*
X9962500Y-10010500D02*
X9922500Y-10050500D01*
X9980000Y-10838500D02*
X10020000Y-10878500D01*
X10020000Y-10838500D02*
X9980000Y-10878500D01*
X10080000Y-10730000D02*
X10120000Y-10770000D01*
X10120000Y-10730000D02*
X10080000Y-10770000D01*
X10312500Y-10660500D02*
X10352500Y-10700500D01*
X10352500Y-10660500D02*
X10312500Y-10700500D01*
X10442500Y-9300500D02*
X10482500Y-9340500D01*
X10482500Y-9300500D02*
X10442500Y-9340500D01*
X10572500Y-9780500D02*
X10612500Y-9820500D01*
X10612500Y-9780500D02*
X10572500Y-9820500D01*
X10948500Y-10048500D02*
X10988500Y-10088500D01*
X10988500Y-10048500D02*
X10948500Y-10088500D01*
X11090000Y-10160000D02*
X11130000Y-10200000D01*
X11130000Y-10160000D02*
X11090000Y-10200000D01*
X11097550Y-10050000D02*
X11137550Y-10090000D01*
X11137550Y-10050000D02*
X11097550Y-10090000D01*
X11270000Y-10160000D02*
X11310000Y-10200000D01*
X11310000Y-10160000D02*
X11270000Y-10200000D01*
X11370000Y-10050000D02*
X11410000Y-10090000D01*
X11410000Y-10050000D02*
X11370000Y-10090000D01*
X12170000Y-9300000D02*
X12210000Y-9340000D01*
X12210000Y-9300000D02*
X12170000Y-9340000D01*
X12320000Y-9690000D02*
X12360000Y-9730000D01*
X12360000Y-9690000D02*
X12320000Y-9730000D01*
X12370000Y-12980000D02*
X12410000Y-13020000D01*
X12410000Y-12980000D02*
X12370000Y-13020000D01*
X12520000Y-9760000D02*
X12560000Y-9800000D01*
X12560000Y-9760000D02*
X12520000Y-9800000D01*
X12620000Y-11390000D02*
X12660000Y-11430000D01*
X12660000Y-11390000D02*
X12620000Y-11430000D01*
X12620000Y-11480000D02*
X12660000Y-11520000D01*
X12660000Y-11480000D02*
X12620000Y-11520000D01*
X12620000Y-11570000D02*
X12660000Y-11610000D01*
X12660000Y-11570000D02*
X12620000Y-11610000D01*
X12620000Y-11660000D02*
X12660000Y-11700000D01*
X12660000Y-11660000D02*
X12620000Y-11700000D01*
X12620000Y-11750000D02*
X12660000Y-11790000D01*
X12660000Y-11750000D02*
X12620000Y-11790000D01*
X12620000Y-11840000D02*
X12660000Y-11880000D01*
X12660000Y-11840000D02*
X12620000Y-11880000D01*
X12620000Y-11930000D02*
X12660000Y-11970000D01*
X12660000Y-11930000D02*
X12620000Y-11970000D01*
X12620000Y-12020000D02*
X12660000Y-12060000D01*
X12660000Y-12020000D02*
X12620000Y-12060000D01*
X12620000Y-12110000D02*
X12660000Y-12150000D01*
X12660000Y-12110000D02*
X12620000Y-12150000D01*
X12670000Y-11310000D02*
X12710000Y-11350000D01*
X12710000Y-11310000D02*
X12670000Y-11350000D01*
X12670000Y-12190000D02*
X12710000Y-12230000D01*
X12710000Y-12190000D02*
X12670000Y-12230000D01*
X12710000Y-11390000D02*
X12750000Y-11430000D01*
X12750000Y-11390000D02*
X12710000Y-11430000D01*
X12710000Y-11480000D02*
X12750000Y-11520000D01*
X12750000Y-11480000D02*
X12710000Y-11520000D01*
X12710000Y-11570000D02*
X12750000Y-11610000D01*
X12750000Y-11570000D02*
X12710000Y-11610000D01*
X12710000Y-11660000D02*
X12750000Y-11700000D01*
X12750000Y-11660000D02*
X12710000Y-11700000D01*
X12710000Y-11750000D02*
X12750000Y-11790000D01*
X12750000Y-11750000D02*
X12710000Y-11790000D01*
X12710000Y-11840000D02*
X12750000Y-11880000D01*
X12750000Y-11840000D02*
X12710000Y-11880000D01*
X12710000Y-11930000D02*
X12750000Y-11970000D01*
X12750000Y-11930000D02*
X12710000Y-11970000D01*
X12710000Y-12020000D02*
X12750000Y-12060000D01*
X12750000Y-12020000D02*
X12710000Y-12060000D01*
X12710000Y-12110000D02*
X12750000Y-12150000D01*
X12750000Y-12110000D02*
X12710000Y-12150000D01*
X12733750Y-9196250D02*
X12773750Y-9236250D01*
X12773750Y-9196250D02*
X12733750Y-9236250D01*
X12760000Y-11310000D02*
X12800000Y-11350000D01*
X12800000Y-11310000D02*
X12760000Y-11350000D01*
X12760000Y-12190000D02*
X12800000Y-12230000D01*
X12800000Y-12190000D02*
X12760000Y-12230000D01*
X12770000Y-7831400D02*
X12810000Y-7871400D01*
X12810000Y-7831400D02*
X12770000Y-7871400D01*
X12800000Y-11390000D02*
X12840000Y-11430000D01*
X12840000Y-11390000D02*
X12800000Y-11430000D01*
X12800000Y-12110000D02*
X12840000Y-12150000D01*
X12840000Y-12110000D02*
X12800000Y-12150000D01*
X12849158Y-7661500D02*
X12889158Y-7701500D01*
X12889158Y-7661500D02*
X12849158Y-7701500D01*
X12850000Y-11310000D02*
X12890000Y-11350000D01*
X12890000Y-11310000D02*
X12850000Y-11350000D01*
X12850000Y-12190000D02*
X12890000Y-12230000D01*
X12890000Y-12190000D02*
X12850000Y-12230000D01*
X12890000Y-11390000D02*
X12930000Y-11430000D01*
X12930000Y-11390000D02*
X12890000Y-11430000D01*
X12890000Y-12110000D02*
X12930000Y-12150000D01*
X12930000Y-12110000D02*
X12890000Y-12150000D01*
X12940000Y-12190000D02*
X12980000Y-12230000D01*
X12980000Y-12190000D02*
X12940000Y-12230000D01*
X12940000Y-11310000D02*
X12980000Y-11350000D01*
X12980000Y-11310000D02*
X12940000Y-11350000D01*
X12960000Y-9760000D02*
X13000000Y-9800000D01*
X13000000Y-9760000D02*
X12960000Y-9800000D01*
X12980000Y-11390000D02*
X13020000Y-11430000D01*
X13020000Y-11390000D02*
X12980000Y-11430000D01*
X12980000Y-7660000D02*
X13020000Y-7700000D01*
X13020000Y-7660000D02*
X12980000Y-7700000D01*
X12980000Y-12110000D02*
X13020000Y-12150000D01*
X13020000Y-12110000D02*
X12980000Y-12150000D01*
X13020000Y-7760000D02*
X13060000Y-7800000D01*
X13060000Y-7760000D02*
X13020000Y-7800000D01*
X13030000Y-11310000D02*
X13070000Y-11350000D01*
X13070000Y-11310000D02*
X13030000Y-11350000D01*
X13030000Y-12190000D02*
X13070000Y-12230000D01*
X13070000Y-12190000D02*
X13030000Y-12230000D01*
X13041468Y-8580000D02*
X13081468Y-8620000D01*
X13081468Y-8580000D02*
X13041468Y-8620000D01*
X13070000Y-12110000D02*
X13110000Y-12150000D01*
X13110000Y-12110000D02*
X13070000Y-12150000D01*
X13070000Y-11390000D02*
X13110000Y-11430000D01*
X13110000Y-11390000D02*
X13070000Y-11430000D01*
X13080000Y-9370000D02*
X13120000Y-9410000D01*
X13120000Y-9370000D02*
X13080000Y-9410000D01*
X13110000Y-9720000D02*
X13150000Y-9760000D01*
X13150000Y-9720000D02*
X13110000Y-9760000D01*
X13120000Y-11310000D02*
X13160000Y-11350000D01*
X13160000Y-11310000D02*
X13120000Y-11350000D01*
X13120000Y-12190000D02*
X13160000Y-12230000D01*
X13160000Y-12190000D02*
X13120000Y-12230000D01*
X13130000Y-7030000D02*
X13170000Y-7070000D01*
X13170000Y-7030000D02*
X13130000Y-7070000D01*
X13160000Y-11390000D02*
X13200000Y-11430000D01*
X13200000Y-11390000D02*
X13160000Y-11430000D01*
X13160000Y-12110000D02*
X13200000Y-12150000D01*
X13200000Y-12110000D02*
X13160000Y-12150000D01*
X13210000Y-11310000D02*
X13250000Y-11350000D01*
X13250000Y-11310000D02*
X13210000Y-11350000D01*
X13210000Y-12190000D02*
X13250000Y-12230000D01*
X13250000Y-12190000D02*
X13210000Y-12230000D01*
X13224950Y-8303800D02*
X13264950Y-8343800D01*
X13264950Y-8303800D02*
X13224950Y-8343800D01*
X13249840Y-8200611D02*
X13289840Y-8240611D01*
X13289840Y-8200611D02*
X13249840Y-8240611D01*
X13250000Y-11390000D02*
X13290000Y-11430000D01*
X13290000Y-11390000D02*
X13250000Y-11430000D01*
X13250000Y-12110000D02*
X13290000Y-12150000D01*
X13290000Y-12110000D02*
X13250000Y-12150000D01*
X13263897Y-9024626D02*
X13303897Y-9064626D01*
X13303897Y-9024626D02*
X13263897Y-9064626D01*
X13300000Y-11310000D02*
X13340000Y-11350000D01*
X13340000Y-11310000D02*
X13300000Y-11350000D01*
X13300000Y-12190000D02*
X13340000Y-12230000D01*
X13340000Y-12190000D02*
X13300000Y-12230000D01*
X13339635Y-9100365D02*
X13379635Y-9140365D01*
X13379635Y-9100365D02*
X13339635Y-9140365D01*
X13340000Y-11390000D02*
X13380000Y-11430000D01*
X13380000Y-11390000D02*
X13340000Y-11430000D01*
X13340000Y-12110000D02*
X13380000Y-12150000D01*
X13380000Y-12110000D02*
X13340000Y-12150000D01*
X13363336Y-8203400D02*
X13403336Y-8243400D01*
X13403336Y-8203400D02*
X13363336Y-8243400D01*
X13380000Y-7030000D02*
X13420000Y-7070000D01*
X13420000Y-7030000D02*
X13380000Y-7070000D01*
X13390000Y-11310000D02*
X13430000Y-11350000D01*
X13430000Y-11310000D02*
X13390000Y-11350000D01*
X13390000Y-12190000D02*
X13430000Y-12230000D01*
X13430000Y-12190000D02*
X13390000Y-12230000D01*
X13410000Y-8553700D02*
X13450000Y-8593700D01*
X13450000Y-8553700D02*
X13410000Y-8593700D01*
X13430000Y-11390000D02*
X13470000Y-11430000D01*
X13470000Y-11390000D02*
X13430000Y-11430000D01*
X13430000Y-12110000D02*
X13470000Y-12150000D01*
X13470000Y-12110000D02*
X13430000Y-12150000D01*
X13490000Y-9620000D02*
X13530000Y-9660000D01*
X13530000Y-9620000D02*
X13490000Y-9660000D01*
X13615982Y-12452991D02*
X13655982Y-12492991D01*
X13655982Y-12452991D02*
X13615982Y-12492991D01*
X13632100Y-8021950D02*
X13672100Y-8061950D01*
X13672100Y-8021950D02*
X13632100Y-8061950D01*
X13790000Y-13090000D02*
X13830000Y-13130000D01*
X13830000Y-13090000D02*
X13790000Y-13130000D01*
X13939250Y-7530000D02*
X13979250Y-7570000D01*
X13979250Y-7530000D02*
X13939250Y-7570000D01*
X14000000Y-9295050D02*
X14040000Y-9335050D01*
X14040000Y-9295050D02*
X14000000Y-9335050D01*
X14014300Y-7607300D02*
X14054300Y-7647300D01*
X14054300Y-7607300D02*
X14014300Y-7647300D01*
X14030000Y-12150000D02*
X14070000Y-12190000D01*
X14070000Y-12150000D02*
X14030000Y-12190000D01*
X14040000Y-7120000D02*
X14080000Y-7160000D01*
X14080000Y-7120000D02*
X14040000Y-7160000D01*
X14040000Y-10210000D02*
X14080000Y-10250000D01*
X14080000Y-10210000D02*
X14040000Y-10250000D01*
X14110000Y-9310000D02*
X14150000Y-9350000D01*
X14150000Y-9310000D02*
X14110000Y-9350000D01*
X14160000Y-7120000D02*
X14200000Y-7160000D01*
X14200000Y-7120000D02*
X14160000Y-7160000D01*
X14212002Y-9294950D02*
X14252002Y-9334950D01*
X14252002Y-9294950D02*
X14212002Y-9334950D01*
X14280000Y-7114950D02*
X14320000Y-7154950D01*
X14320000Y-7114950D02*
X14280000Y-7154950D01*
X14310365Y-9314950D02*
X14350365Y-9354950D01*
X14350365Y-9314950D02*
X14310365Y-9354950D01*
X14340000Y-9060000D02*
X14380000Y-9100000D01*
X14380000Y-9060000D02*
X14340000Y-9100000D01*
X14344473Y-7886723D02*
X14384473Y-7926723D01*
X14384473Y-7886723D02*
X14344473Y-7926723D01*
X14364150Y-7736773D02*
X14404150Y-7776773D01*
X14404150Y-7736773D02*
X14364150Y-7776773D01*
X14400000Y-7114950D02*
X14440000Y-7154950D01*
X14440000Y-7114950D02*
X14400000Y-7154950D01*
X14460000Y-8021950D02*
X14500000Y-8061950D01*
X14500000Y-8021950D02*
X14460000Y-8061950D01*
X14510000Y-8860000D02*
X14550000Y-8900000D01*
X14550000Y-8860000D02*
X14510000Y-8900000D01*
X14694950Y-8353800D02*
X14734950Y-8393800D01*
X14734950Y-8353800D02*
X14694950Y-8393800D01*
X14700000Y-8220000D02*
X14740000Y-8260000D01*
X14740000Y-8220000D02*
X14700000Y-8260000D01*
X14800000Y-12380000D02*
X14840000Y-12420000D01*
X14840000Y-12380000D02*
X14800000Y-12420000D01*
X14810000Y-8990000D02*
X14850000Y-9030000D01*
X14850000Y-8990000D02*
X14810000Y-9030000D01*
X14878708Y-8041292D02*
X14918708Y-8081292D01*
X14918708Y-8041292D02*
X14878708Y-8081292D01*
X14885765Y-8920000D02*
X14925765Y-8960000D01*
X14925765Y-8920000D02*
X14885765Y-8960000D01*
X14953708Y-8112002D02*
X14993708Y-8152002D01*
X14993708Y-8112002D02*
X14953708Y-8152002D01*
X14963658Y-7710000D02*
X15003658Y-7750000D01*
X15003658Y-7710000D02*
X14963658Y-7750000D01*
X14963658Y-7820000D02*
X15003658Y-7860000D01*
X15003658Y-7820000D02*
X14963658Y-7860000D01*
X14970000Y-9450000D02*
X15010000Y-9490000D01*
X15010000Y-9450000D02*
X14970000Y-9490000D01*
X15028708Y-8030000D02*
X15068708Y-8070000D01*
X15068708Y-8030000D02*
X15028708Y-8070000D01*
X15064280Y-8365834D02*
X15104280Y-8405834D01*
X15104280Y-8365834D02*
X15064280Y-8405834D01*
X15140542Y-8430441D02*
X15180542Y-8470441D01*
X15180542Y-8430441D02*
X15140542Y-8470441D01*
X15222688Y-8488361D02*
X15262688Y-8528361D01*
X15262688Y-8488361D02*
X15222688Y-8528361D01*
X15390000Y-8805000D02*
X15430000Y-8845000D01*
X15430000Y-8805000D02*
X15390000Y-8845000D01*
X15600000Y-12650000D02*
X15640000Y-12690000D01*
X15640000Y-12650000D02*
X15600000Y-12690000D01*
X15750000Y-10790000D02*
X15790000Y-10830000D01*
X15790000Y-10790000D02*
X15750000Y-10830000D01*
X16525000Y-6860000D02*
X16565000Y-6900000D01*
X16565000Y-6860000D02*
X16525000Y-6900000D01*
X16690000Y-6770000D02*
X16730000Y-6810000D01*
X16730000Y-6770000D02*
X16690000Y-6810000D01*
X16720000Y-11530000D02*
X16760000Y-11570000D01*
X16760000Y-11530000D02*
X16720000Y-11570000D01*
X16720000Y-12250000D02*
X16760000Y-12290000D01*
X16760000Y-12250000D02*
X16720000Y-12290000D01*
X16760000Y-11450000D02*
X16800000Y-11490000D01*
X16800000Y-11450000D02*
X16760000Y-11490000D01*
X16760000Y-12330000D02*
X16800000Y-12370000D01*
X16800000Y-12330000D02*
X16760000Y-12370000D01*
X16810000Y-11530000D02*
X16850000Y-11570000D01*
X16850000Y-11530000D02*
X16810000Y-11570000D01*
X16810000Y-12250000D02*
X16850000Y-12290000D01*
X16850000Y-12250000D02*
X16810000Y-12290000D01*
X16850000Y-11450000D02*
X16890000Y-11490000D01*
X16890000Y-11450000D02*
X16850000Y-11490000D01*
X16850000Y-12330000D02*
X16890000Y-12370000D01*
X16890000Y-12330000D02*
X16850000Y-12370000D01*
X16870000Y-10660000D02*
X16910000Y-10700000D01*
X16910000Y-10660000D02*
X16870000Y-10700000D01*
X16900000Y-11530000D02*
X16940000Y-11570000D01*
X16940000Y-11530000D02*
X16900000Y-11570000D01*
X16900000Y-12250000D02*
X16940000Y-12290000D01*
X16940000Y-12250000D02*
X16900000Y-12290000D01*
X16940000Y-11450000D02*
X16980000Y-11490000D01*
X16980000Y-11450000D02*
X16940000Y-11490000D01*
X16940000Y-12330000D02*
X16980000Y-12370000D01*
X16980000Y-12330000D02*
X16940000Y-12370000D01*
X16990000Y-11530000D02*
X17030000Y-11570000D01*
X17030000Y-11530000D02*
X16990000Y-11570000D01*
X16990000Y-12250000D02*
X17030000Y-12290000D01*
X17030000Y-12250000D02*
X16990000Y-12290000D01*
X17030000Y-11450000D02*
X17070000Y-11490000D01*
X17070000Y-11450000D02*
X17030000Y-11490000D01*
X17030000Y-12330000D02*
X17070000Y-12370000D01*
X17070000Y-12330000D02*
X17030000Y-12370000D01*
X17080000Y-11530000D02*
X17120000Y-11570000D01*
X17120000Y-11530000D02*
X17080000Y-11570000D01*
X17080000Y-12250000D02*
X17120000Y-12290000D01*
X17120000Y-12250000D02*
X17080000Y-12290000D01*
X17110000Y-10660000D02*
X17150000Y-10700000D01*
X17150000Y-10660000D02*
X17110000Y-10700000D01*
X17120000Y-12330000D02*
X17160000Y-12370000D01*
X17160000Y-12330000D02*
X17120000Y-12370000D01*
X17120000Y-11450000D02*
X17160000Y-11490000D01*
X17160000Y-11450000D02*
X17120000Y-11490000D01*
X17170000Y-12250000D02*
X17210000Y-12290000D01*
X17210000Y-12250000D02*
X17170000Y-12290000D01*
X17170000Y-11530000D02*
X17210000Y-11570000D01*
X17210000Y-11530000D02*
X17170000Y-11570000D01*
X17210000Y-11450000D02*
X17250000Y-11490000D01*
X17250000Y-11450000D02*
X17210000Y-11490000D01*
X17210000Y-12330000D02*
X17250000Y-12370000D01*
X17250000Y-12330000D02*
X17210000Y-12370000D01*
X17230000Y-13080000D02*
X17270000Y-13120000D01*
X17270000Y-13080000D02*
X17230000Y-13120000D01*
X17260000Y-11530000D02*
X17300000Y-11570000D01*
X17300000Y-11530000D02*
X17260000Y-11570000D01*
X17260000Y-12250000D02*
X17300000Y-12290000D01*
X17300000Y-12250000D02*
X17260000Y-12290000D01*
X17300000Y-11450000D02*
X17340000Y-11490000D01*
X17340000Y-11450000D02*
X17300000Y-11490000D01*
X17300000Y-12330000D02*
X17340000Y-12370000D01*
X17340000Y-12330000D02*
X17300000Y-12370000D01*
X17350000Y-11530000D02*
X17390000Y-11570000D01*
X17390000Y-11530000D02*
X17350000Y-11570000D01*
X17350000Y-12250000D02*
X17390000Y-12290000D01*
X17390000Y-12250000D02*
X17350000Y-12290000D01*
X17390000Y-11450000D02*
X17430000Y-11490000D01*
X17430000Y-11450000D02*
X17390000Y-11490000D01*
X17390000Y-12330000D02*
X17430000Y-12370000D01*
X17430000Y-12330000D02*
X17390000Y-12370000D01*
X17440000Y-11530000D02*
X17480000Y-11570000D01*
X17480000Y-11530000D02*
X17440000Y-11570000D01*
X17440000Y-11620000D02*
X17480000Y-11660000D01*
X17480000Y-11620000D02*
X17440000Y-11660000D01*
X17440000Y-11710000D02*
X17480000Y-11750000D01*
X17480000Y-11710000D02*
X17440000Y-11750000D01*
X17440000Y-11800000D02*
X17480000Y-11840000D01*
X17480000Y-11800000D02*
X17440000Y-11840000D01*
X17440000Y-11890000D02*
X17480000Y-11930000D01*
X17480000Y-11890000D02*
X17440000Y-11930000D01*
X17440000Y-11980000D02*
X17480000Y-12020000D01*
X17480000Y-11980000D02*
X17440000Y-12020000D01*
X17440000Y-12070000D02*
X17480000Y-12110000D01*
X17480000Y-12070000D02*
X17440000Y-12110000D01*
X17440000Y-12160000D02*
X17480000Y-12200000D01*
X17480000Y-12160000D02*
X17440000Y-12200000D01*
X17440000Y-12250000D02*
X17480000Y-12290000D01*
X17480000Y-12250000D02*
X17440000Y-12290000D01*
X17480000Y-11450000D02*
X17520000Y-11490000D01*
X17520000Y-11450000D02*
X17480000Y-11490000D01*
X17480000Y-12330000D02*
X17520000Y-12370000D01*
X17520000Y-12330000D02*
X17480000Y-12370000D01*
X17530000Y-11530000D02*
X17570000Y-11570000D01*
X17570000Y-11530000D02*
X17530000Y-11570000D01*
X17530000Y-11620000D02*
X17570000Y-11660000D01*
X17570000Y-11620000D02*
X17530000Y-11660000D01*
X17530000Y-11710000D02*
X17570000Y-11750000D01*
X17570000Y-11710000D02*
X17530000Y-11750000D01*
X17530000Y-11800000D02*
X17570000Y-11840000D01*
X17570000Y-11800000D02*
X17530000Y-11840000D01*
X17530000Y-11890000D02*
X17570000Y-11930000D01*
X17570000Y-11890000D02*
X17530000Y-11930000D01*
X17530000Y-11980000D02*
X17570000Y-12020000D01*
X17570000Y-11980000D02*
X17530000Y-12020000D01*
X17530000Y-12070000D02*
X17570000Y-12110000D01*
X17570000Y-12070000D02*
X17530000Y-12110000D01*
X17530000Y-12160000D02*
X17570000Y-12200000D01*
X17570000Y-12160000D02*
X17530000Y-12200000D01*
X17530000Y-12250000D02*
X17570000Y-12290000D01*
X17570000Y-12250000D02*
X17530000Y-12290000D01*
X17760000Y-13080000D02*
X17800000Y-13120000D01*
X17800000Y-13080000D02*
X17760000Y-13120000D01*
X18120000Y-12450000D02*
X18160000Y-12490000D01*
X18160000Y-12450000D02*
X18120000Y-12490000D01*
X18465000Y-7380000D02*
X18505000Y-7420000D01*
X18505000Y-7380000D02*
X18465000Y-7420000D01*
X18490000Y-10260000D02*
X18530000Y-10300000D01*
X18530000Y-10260000D02*
X18490000Y-10300000D01*
X18500000Y-11780000D02*
X18540000Y-11820000D01*
X18540000Y-11780000D02*
X18500000Y-11820000D01*
X18685000Y-7300000D02*
X18725000Y-7340000D01*
X18725000Y-7300000D02*
X18685000Y-7340000D01*
X18905000Y-7210000D02*
X18945000Y-7250000D01*
X18945000Y-7210000D02*
X18905000Y-7250000D01*
X19024000Y-11416000D02*
X19064000Y-11456000D01*
X19064000Y-11416000D02*
X19024000Y-11456000D01*
D13*
X11592000Y-13100000D02*
G75*
G03*
X11592000Y-13100000I-40000J0D01*
G01*
X12560000Y-8435000D02*
G75*
G03*
X12560000Y-8435000I-40000J0D01*
G01*
X12560000Y-8923000D02*
G75*
G03*
X12560000Y-8923000I-40000J0D01*
G01*
X12608000Y-13100000D02*
G75*
G03*
X12608000Y-13100000I-40000J0D01*
G01*
X12807000Y-7050000D02*
G75*
G03*
X12807000Y-7050000I-40000J0D01*
G01*
X13823000Y-7050000D02*
G75*
G03*
X13823000Y-7050000I-40000J0D01*
G01*
X15798000Y-7838000D02*
G75*
G03*
X15798000Y-7838000I-40000J0D01*
G01*
X15798000Y-8092000D02*
G75*
G03*
X15798000Y-8092000I-40000J0D01*
G01*
X15798000Y-8346000D02*
G75*
G03*
X15798000Y-8346000I-40000J0D01*
G01*
X15798000Y-8600000D02*
G75*
G03*
X15798000Y-8600000I-40000J0D01*
G01*
X16560000Y-7838000D02*
G75*
G03*
X16560000Y-7838000I-40000J0D01*
G01*
X16560000Y-8092000D02*
G75*
G03*
X16560000Y-8092000I-40000J0D01*
G01*
X16560000Y-8346000D02*
G75*
G03*
X16560000Y-8346000I-40000J0D01*
G01*
X16560000Y-8600000D02*
G75*
G03*
X16560000Y-8600000I-40000J0D01*
G01*
X16980000Y-12846000D02*
G75*
G03*
X16980000Y-12846000I-40000J0D01*
G01*
X17996000Y-12846000D02*
G75*
G03*
X17996000Y-12846000I-40000J0D01*
G01*
D10*
X12128100Y-7445850D02*
X12128100Y-7545850D01*
X12078100Y-7495850D02*
X12178100Y-7495850D01*
X12135500Y-6500000D02*
X12135500Y-6600000D01*
X12085500Y-6550000D02*
X12185500Y-6550000D01*
X12382100Y-7445850D02*
X12382100Y-7545850D01*
X12332100Y-7495850D02*
X12432100Y-7495850D01*
X12389500Y-6500000D02*
X12389500Y-6600000D01*
X12339500Y-6550000D02*
X12439500Y-6550000D01*
X12636100Y-7445850D02*
X12636100Y-7545850D01*
X12586100Y-7495850D02*
X12686100Y-7495850D01*
X12643500Y-6500000D02*
X12643500Y-6600000D01*
X12593500Y-6550000D02*
X12693500Y-6550000D01*
X12880000Y-12797000D02*
X12880000Y-12897000D01*
X12830000Y-12847000D02*
X12930000Y-12847000D01*
X12880000Y-13051000D02*
X12880000Y-13151000D01*
X12830000Y-13101000D02*
X12930000Y-13101000D01*
X12890100Y-7445850D02*
X12890100Y-7545850D01*
X12840100Y-7495850D02*
X12940100Y-7495850D01*
X12897500Y-6500000D02*
X12897500Y-6600000D01*
X12847500Y-6550000D02*
X12947500Y-6550000D01*
X13134000Y-12797000D02*
X13134000Y-12897000D01*
X13084000Y-12847000D02*
X13184000Y-12847000D01*
X13134000Y-13051000D02*
X13134000Y-13151000D01*
X13084000Y-13101000D02*
X13184000Y-13101000D01*
X13144100Y-7445850D02*
X13144100Y-7545850D01*
X13094100Y-7495850D02*
X13194100Y-7495850D01*
X13151500Y-6500000D02*
X13151500Y-6600000D01*
X13101500Y-6550000D02*
X13201500Y-6550000D01*
X13388000Y-12797000D02*
X13388000Y-12897000D01*
X13338000Y-12847000D02*
X13438000Y-12847000D01*
X13388000Y-13051000D02*
X13388000Y-13151000D01*
X13338000Y-13101000D02*
X13438000Y-13101000D01*
X13398100Y-7445850D02*
X13398100Y-7545850D01*
X13348100Y-7495850D02*
X13448100Y-7495850D01*
X13405500Y-6500000D02*
X13405500Y-6600000D01*
X13355500Y-6550000D02*
X13455500Y-6550000D01*
X13642000Y-12797000D02*
X13642000Y-12897000D01*
X13592000Y-12847000D02*
X13692000Y-12847000D01*
X13642000Y-13051000D02*
X13642000Y-13151000D01*
X13592000Y-13101000D02*
X13692000Y-13101000D01*
X13659500Y-6500000D02*
X13659500Y-6600000D01*
X13609500Y-6550000D02*
X13709500Y-6550000D01*
X13913500Y-6500000D02*
X13913500Y-6600000D01*
X13863500Y-6550000D02*
X13963500Y-6550000D01*
X14167500Y-6500000D02*
X14167500Y-6600000D01*
X14117500Y-6550000D02*
X14217500Y-6550000D01*
X14421500Y-6500000D02*
X14421500Y-6600000D01*
X14371500Y-6550000D02*
X14471500Y-6550000D01*
X14675500Y-6500000D02*
X14675500Y-6600000D01*
X14625500Y-6550000D02*
X14725500Y-6550000D01*
X14929500Y-6500000D02*
X14929500Y-6600000D01*
X14879500Y-6550000D02*
X14979500Y-6550000D01*
X15183500Y-6500000D02*
X15183500Y-6600000D01*
X15133500Y-6550000D02*
X15233500Y-6550000D01*
X15437500Y-6500000D02*
X15437500Y-6600000D01*
X15387500Y-6550000D02*
X15487500Y-6550000D01*
X15691500Y-6500000D02*
X15691500Y-6600000D01*
X15641500Y-6550000D02*
X15741500Y-6550000D01*
X15878000Y-12796000D02*
X15878000Y-12896000D01*
X15828000Y-12846000D02*
X15928000Y-12846000D01*
X15878000Y-13050000D02*
X15878000Y-13150000D01*
X15828000Y-13100000D02*
X15928000Y-13100000D01*
X15945500Y-6500000D02*
X15945500Y-6600000D01*
X15895500Y-6550000D02*
X15995500Y-6550000D01*
X16132000Y-12796000D02*
X16132000Y-12896000D01*
X16082000Y-12846000D02*
X16182000Y-12846000D01*
X16132000Y-13050000D02*
X16132000Y-13150000D01*
X16082000Y-13100000D02*
X16182000Y-13100000D01*
X16199500Y-6500000D02*
X16199500Y-6600000D01*
X16149500Y-6550000D02*
X16249500Y-6550000D01*
X16386000Y-12796000D02*
X16386000Y-12896000D01*
X16336000Y-12846000D02*
X16436000Y-12846000D01*
X16386000Y-13050000D02*
X16386000Y-13150000D01*
X16336000Y-13100000D02*
X16436000Y-13100000D01*
X16453500Y-6500000D02*
X16453500Y-6600000D01*
X16403500Y-6550000D02*
X16503500Y-6550000D01*
X16640000Y-12796000D02*
X16640000Y-12896000D01*
X16590000Y-12846000D02*
X16690000Y-12846000D01*
X16640000Y-13050000D02*
X16640000Y-13150000D01*
X16590000Y-13100000D02*
X16690000Y-13100000D01*
X16707500Y-6500000D02*
X16707500Y-6600000D01*
X16657500Y-6550000D02*
X16757500Y-6550000D01*
X16961500Y-6500000D02*
X16961500Y-6600000D01*
X16911500Y-6550000D02*
X17011500Y-6550000D01*
X19185000Y-7180000D02*
X19185000Y-7280000D01*
X19135000Y-7230000D02*
X19235000Y-7230000D01*
X19185000Y-7430000D02*
X19185000Y-7530000D01*
X19135000Y-7480000D02*
X19235000Y-7480000D01*
X19185000Y-7680000D02*
X19185000Y-7780000D01*
X19135000Y-7730000D02*
X19235000Y-7730000D01*
X20635000Y-7180000D02*
X20635000Y-7280000D01*
X20585000Y-7230000D02*
X20685000Y-7230000D01*
X20635000Y-7680000D02*
X20635000Y-7780000D01*
X20585000Y-7730000D02*
X20685000Y-7730000D01*
D14*
X14555962Y-12995962D02*
X14555962Y-12904038D01*
X14464038Y-12904038D01*
X14464038Y-12995962D01*
X14555962Y-12995962D01*
X15055962Y-12995962D02*
X15055962Y-12904038D01*
X14964038Y-12904038D01*
X14964038Y-12995962D01*
X15055962Y-12995962D01*
X19375962Y-10395962D02*
X19375962Y-10304038D01*
X19284038Y-10304038D01*
X19284038Y-10395962D01*
X19375962Y-10395962D01*
X19375962Y-10895962D02*
X19375962Y-10804038D01*
X19284038Y-10804038D01*
X19284038Y-10895962D01*
X19375962Y-10895962D01*
X19375962Y-11915962D02*
X19375962Y-11824038D01*
X19284038Y-11824038D01*
X19284038Y-11915962D01*
X19375962Y-11915962D01*
X19375962Y-12415962D02*
X19375962Y-12324038D01*
X19284038Y-12324038D01*
X19284038Y-12415962D01*
X19375962Y-12415962D01*
X20625962Y-10395962D02*
X20625962Y-10304038D01*
X20534038Y-10304038D01*
X20534038Y-10395962D01*
X20625962Y-10395962D01*
X20625962Y-10895962D02*
X20625962Y-10804038D01*
X20534038Y-10804038D01*
X20534038Y-10895962D01*
X20625962Y-10895962D01*
X20625962Y-11915962D02*
X20625962Y-11824038D01*
X20534038Y-11824038D01*
X20534038Y-11915962D01*
X20625962Y-11915962D01*
X20625962Y-12415962D02*
X20625962Y-12324038D01*
X20534038Y-12324038D01*
X20534038Y-12415962D01*
X20625962Y-12415962D01*
D11*
X19935000Y-7020000D02*
X20035000Y-6920000D01*
X19935000Y-6820000D01*
X19835000Y-6920000D01*
X19935000Y-7020000D01*
X19910000Y-7020000D02*
X19960000Y-7020000D01*
X19960000Y-7020000D02*
G75*
G03*
X19960000Y-6820000I0J100000D01*
G01*
X19960000Y-6820000D02*
X19910000Y-6820000D01*
X19910000Y-6820000D02*
G75*
G03*
X19910000Y-7020000I0J-100000D01*
G01*
X19935000Y-8140000D02*
X20035000Y-8040000D01*
X19935000Y-7940000D01*
X19835000Y-8040000D01*
X19935000Y-8140000D01*
X19910000Y-8140000D02*
X19960000Y-8140000D01*
X19960000Y-8140000D02*
G75*
G03*
X19960000Y-7940000I0J100000D01*
G01*
X19960000Y-7940000D02*
X19910000Y-7940000D01*
X19910000Y-7940000D02*
G75*
G03*
X19910000Y-8140000I0J-100000D01*
G01*
D15*
X9475000Y-6425000D02*
X9725000Y-6675000D01*
X9725000Y-6425000D02*
X9475000Y-6675000D01*
X9725000Y-6550000D02*
G75*
G03*
X9725000Y-6550000I-125000J0D01*
G01*
X9475000Y-12925000D02*
X9725000Y-13175000D01*
X9725000Y-12925000D02*
X9475000Y-13175000D01*
X9725000Y-13050000D02*
G75*
G03*
X9725000Y-13050000I-125000J0D01*
G01*
X10995000Y-12905000D02*
X11245000Y-13155000D01*
X11245000Y-12905000D02*
X10995000Y-13155000D01*
X11245000Y-13030000D02*
G75*
G03*
X11245000Y-13030000I-125000J0D01*
G01*
X11095000Y-6425000D02*
X11345000Y-6675000D01*
X11345000Y-6425000D02*
X11095000Y-6675000D01*
X11345000Y-6550000D02*
G75*
G03*
X11345000Y-6550000I-125000J0D01*
G01*
X18275000Y-6425000D02*
X18525000Y-6675000D01*
X18525000Y-6425000D02*
X18275000Y-6675000D01*
X18525000Y-6550000D02*
G75*
G03*
X18525000Y-6550000I-125000J0D01*
G01*
D11*
X18361500Y-6675000D02*
X18438500Y-6675000D01*
X18438500Y-6675000D02*
G75*
G03*
X18438500Y-6425000I0J125000D01*
G01*
X18438500Y-6425000D02*
X18361500Y-6425000D01*
X18361500Y-6425000D02*
G75*
G03*
X18361500Y-6675000I0J-125000D01*
G01*
D16*
X18265000Y-12905000D02*
X18535000Y-13175000D01*
X18535000Y-12905000D02*
X18265000Y-13175000D01*
X18400000Y-12905000D02*
X18400000Y-13175000D01*
X18265000Y-13040000D02*
X18535000Y-13040000D01*
D11*
X18371500Y-13175000D02*
X18428500Y-13175000D01*
X18428500Y-13175000D02*
G75*
G03*
X18428500Y-12905000I0J135000D01*
G01*
X18428500Y-12905000D02*
X18371500Y-12905000D01*
X18371500Y-12905000D02*
G75*
G03*
X18371500Y-13175000I0J-135000D01*
G01*
X9575777Y-13646484D02*
X9575777Y-13446484D01*
X9575777Y-13446484D02*
X9623396Y-13446484D01*
X9623396Y-13446484D02*
X9651967Y-13456008D01*
X9651967Y-13456008D02*
X9671015Y-13475055D01*
X9671015Y-13475055D02*
X9680539Y-13494103D01*
X9680539Y-13494103D02*
X9690063Y-13532198D01*
X9690063Y-13532198D02*
X9690063Y-13560769D01*
X9690063Y-13560769D02*
X9680539Y-13598865D01*
X9680539Y-13598865D02*
X9671015Y-13617912D01*
X9671015Y-13617912D02*
X9651967Y-13636960D01*
X9651967Y-13636960D02*
X9623396Y-13646484D01*
X9623396Y-13646484D02*
X9575777Y-13646484D01*
X9775777Y-13646484D02*
X9775777Y-13513150D01*
X9775777Y-13551246D02*
X9785301Y-13532198D01*
X9785301Y-13532198D02*
X9794824Y-13522674D01*
X9794824Y-13522674D02*
X9813872Y-13513150D01*
X9813872Y-13513150D02*
X9832920Y-13513150D01*
X9899586Y-13646484D02*
X9899586Y-13513150D01*
X9899586Y-13446484D02*
X9890063Y-13456008D01*
X9890063Y-13456008D02*
X9899586Y-13465531D01*
X9899586Y-13465531D02*
X9909110Y-13456008D01*
X9909110Y-13456008D02*
X9899586Y-13446484D01*
X9899586Y-13446484D02*
X9899586Y-13465531D01*
X10023396Y-13646484D02*
X10004348Y-13636960D01*
X10004348Y-13636960D02*
X9994824Y-13617912D01*
X9994824Y-13617912D02*
X9994824Y-13446484D01*
X10128158Y-13646484D02*
X10109110Y-13636960D01*
X10109110Y-13636960D02*
X10099586Y-13617912D01*
X10099586Y-13617912D02*
X10099586Y-13446484D01*
X10356729Y-13646484D02*
X10356729Y-13446484D01*
X10356729Y-13446484D02*
X10423396Y-13589341D01*
X10423396Y-13589341D02*
X10490063Y-13446484D01*
X10490063Y-13446484D02*
X10490063Y-13646484D01*
X10671015Y-13646484D02*
X10671015Y-13541722D01*
X10671015Y-13541722D02*
X10661491Y-13522674D01*
X10661491Y-13522674D02*
X10642444Y-13513150D01*
X10642444Y-13513150D02*
X10604348Y-13513150D01*
X10604348Y-13513150D02*
X10585301Y-13522674D01*
X10671015Y-13636960D02*
X10651967Y-13646484D01*
X10651967Y-13646484D02*
X10604348Y-13646484D01*
X10604348Y-13646484D02*
X10585301Y-13636960D01*
X10585301Y-13636960D02*
X10575777Y-13617912D01*
X10575777Y-13617912D02*
X10575777Y-13598865D01*
X10575777Y-13598865D02*
X10585301Y-13579817D01*
X10585301Y-13579817D02*
X10604348Y-13570293D01*
X10604348Y-13570293D02*
X10651967Y-13570293D01*
X10651967Y-13570293D02*
X10671015Y-13560769D01*
X10766253Y-13513150D02*
X10766253Y-13713150D01*
X10766253Y-13522674D02*
X10785301Y-13513150D01*
X10785301Y-13513150D02*
X10823396Y-13513150D01*
X10823396Y-13513150D02*
X10842444Y-13522674D01*
X10842444Y-13522674D02*
X10851967Y-13532198D01*
X10851967Y-13532198D02*
X10861491Y-13551246D01*
X10861491Y-13551246D02*
X10861491Y-13608388D01*
X10861491Y-13608388D02*
X10851967Y-13627436D01*
X10851967Y-13627436D02*
X10842444Y-13636960D01*
X10842444Y-13636960D02*
X10823396Y-13646484D01*
X10823396Y-13646484D02*
X10785301Y-13646484D01*
X10785301Y-13646484D02*
X10766253Y-13636960D01*
X10947205Y-13627436D02*
X10956729Y-13636960D01*
X10956729Y-13636960D02*
X10947205Y-13646484D01*
X10947205Y-13646484D02*
X10937682Y-13636960D01*
X10937682Y-13636960D02*
X10947205Y-13627436D01*
X10947205Y-13627436D02*
X10947205Y-13646484D01*
X10947205Y-13522674D02*
X10956729Y-13532198D01*
X10956729Y-13532198D02*
X10947205Y-13541722D01*
X10947205Y-13541722D02*
X10937682Y-13532198D01*
X10937682Y-13532198D02*
X10947205Y-13522674D01*
X10947205Y-13522674D02*
X10947205Y-13541722D01*
D12*
X9275000Y-13955000D02*
X9315000Y-13995000D01*
X9315000Y-13955000D02*
X9275000Y-13995000D01*
D11*
X9613872Y-13866484D02*
X9632920Y-13866484D01*
X9632920Y-13866484D02*
X9651967Y-13876008D01*
X9651967Y-13876008D02*
X9661491Y-13885531D01*
X9661491Y-13885531D02*
X9671015Y-13904579D01*
X9671015Y-13904579D02*
X9680539Y-13942674D01*
X9680539Y-13942674D02*
X9680539Y-13990293D01*
X9680539Y-13990293D02*
X9671015Y-14028388D01*
X9671015Y-14028388D02*
X9661491Y-14047436D01*
X9661491Y-14047436D02*
X9651967Y-14056960D01*
X9651967Y-14056960D02*
X9632920Y-14066484D01*
X9632920Y-14066484D02*
X9613872Y-14066484D01*
X9613872Y-14066484D02*
X9594824Y-14056960D01*
X9594824Y-14056960D02*
X9585301Y-14047436D01*
X9585301Y-14047436D02*
X9575777Y-14028388D01*
X9575777Y-14028388D02*
X9566253Y-13990293D01*
X9566253Y-13990293D02*
X9566253Y-13942674D01*
X9566253Y-13942674D02*
X9575777Y-13904579D01*
X9575777Y-13904579D02*
X9585301Y-13885531D01*
X9585301Y-13885531D02*
X9594824Y-13876008D01*
X9594824Y-13876008D02*
X9613872Y-13866484D01*
X9766253Y-14047436D02*
X9775777Y-14056960D01*
X9775777Y-14056960D02*
X9766253Y-14066484D01*
X9766253Y-14066484D02*
X9756729Y-14056960D01*
X9756729Y-14056960D02*
X9766253Y-14047436D01*
X9766253Y-14047436D02*
X9766253Y-14066484D01*
X9947205Y-13933150D02*
X9947205Y-14066484D01*
X9899586Y-13856960D02*
X9851967Y-13999817D01*
X9851967Y-13999817D02*
X9975777Y-13999817D01*
X10090063Y-13866484D02*
X10109110Y-13866484D01*
X10109110Y-13866484D02*
X10128158Y-13876008D01*
X10128158Y-13876008D02*
X10137682Y-13885531D01*
X10137682Y-13885531D02*
X10147205Y-13904579D01*
X10147205Y-13904579D02*
X10156729Y-13942674D01*
X10156729Y-13942674D02*
X10156729Y-13990293D01*
X10156729Y-13990293D02*
X10147205Y-14028388D01*
X10147205Y-14028388D02*
X10137682Y-14047436D01*
X10137682Y-14047436D02*
X10128158Y-14056960D01*
X10128158Y-14056960D02*
X10109110Y-14066484D01*
X10109110Y-14066484D02*
X10090063Y-14066484D01*
X10090063Y-14066484D02*
X10071015Y-14056960D01*
X10071015Y-14056960D02*
X10061491Y-14047436D01*
X10061491Y-14047436D02*
X10051967Y-14028388D01*
X10051967Y-14028388D02*
X10042444Y-13990293D01*
X10042444Y-13990293D02*
X10042444Y-13942674D01*
X10042444Y-13942674D02*
X10051967Y-13904579D01*
X10051967Y-13904579D02*
X10061491Y-13885531D01*
X10061491Y-13885531D02*
X10071015Y-13876008D01*
X10071015Y-13876008D02*
X10090063Y-13866484D01*
X10280539Y-13866484D02*
X10299586Y-13866484D01*
X10299586Y-13866484D02*
X10318634Y-13876008D01*
X10318634Y-13876008D02*
X10328158Y-13885531D01*
X10328158Y-13885531D02*
X10337682Y-13904579D01*
X10337682Y-13904579D02*
X10347205Y-13942674D01*
X10347205Y-13942674D02*
X10347205Y-13990293D01*
X10347205Y-13990293D02*
X10337682Y-14028388D01*
X10337682Y-14028388D02*
X10328158Y-14047436D01*
X10328158Y-14047436D02*
X10318634Y-14056960D01*
X10318634Y-14056960D02*
X10299586Y-14066484D01*
X10299586Y-14066484D02*
X10280539Y-14066484D01*
X10280539Y-14066484D02*
X10261491Y-14056960D01*
X10261491Y-14056960D02*
X10251967Y-14047436D01*
X10251967Y-14047436D02*
X10242444Y-14028388D01*
X10242444Y-14028388D02*
X10232920Y-13990293D01*
X10232920Y-13990293D02*
X10232920Y-13942674D01*
X10232920Y-13942674D02*
X10242444Y-13904579D01*
X10242444Y-13904579D02*
X10251967Y-13885531D01*
X10251967Y-13885531D02*
X10261491Y-13876008D01*
X10261491Y-13876008D02*
X10280539Y-13866484D01*
X10432920Y-14066484D02*
X10432920Y-13933150D01*
X10432920Y-13952198D02*
X10442444Y-13942674D01*
X10442444Y-13942674D02*
X10461491Y-13933150D01*
X10461491Y-13933150D02*
X10490063Y-13933150D01*
X10490063Y-13933150D02*
X10509110Y-13942674D01*
X10509110Y-13942674D02*
X10518634Y-13961722D01*
X10518634Y-13961722D02*
X10518634Y-14066484D01*
X10518634Y-13961722D02*
X10528158Y-13942674D01*
X10528158Y-13942674D02*
X10547205Y-13933150D01*
X10547205Y-13933150D02*
X10575777Y-13933150D01*
X10575777Y-13933150D02*
X10594825Y-13942674D01*
X10594825Y-13942674D02*
X10604348Y-13961722D01*
X10604348Y-13961722D02*
X10604348Y-14066484D01*
X10699586Y-14066484D02*
X10699586Y-13933150D01*
X10699586Y-13952198D02*
X10709110Y-13942674D01*
X10709110Y-13942674D02*
X10728158Y-13933150D01*
X10728158Y-13933150D02*
X10756729Y-13933150D01*
X10756729Y-13933150D02*
X10775777Y-13942674D01*
X10775777Y-13942674D02*
X10785301Y-13961722D01*
X10785301Y-13961722D02*
X10785301Y-14066484D01*
X10785301Y-13961722D02*
X10794825Y-13942674D01*
X10794825Y-13942674D02*
X10813872Y-13933150D01*
X10813872Y-13933150D02*
X10842444Y-13933150D01*
X10842444Y-13933150D02*
X10861491Y-13942674D01*
X10861491Y-13942674D02*
X10871015Y-13961722D01*
X10871015Y-13961722D02*
X10871015Y-14066484D01*
X11261491Y-13856960D02*
X11090063Y-14114103D01*
X11518634Y-13866484D02*
X11537682Y-13866484D01*
X11537682Y-13866484D02*
X11556729Y-13876008D01*
X11556729Y-13876008D02*
X11566253Y-13885531D01*
X11566253Y-13885531D02*
X11575777Y-13904579D01*
X11575777Y-13904579D02*
X11585301Y-13942674D01*
X11585301Y-13942674D02*
X11585301Y-13990293D01*
X11585301Y-13990293D02*
X11575777Y-14028388D01*
X11575777Y-14028388D02*
X11566253Y-14047436D01*
X11566253Y-14047436D02*
X11556729Y-14056960D01*
X11556729Y-14056960D02*
X11537682Y-14066484D01*
X11537682Y-14066484D02*
X11518634Y-14066484D01*
X11518634Y-14066484D02*
X11499586Y-14056960D01*
X11499586Y-14056960D02*
X11490063Y-14047436D01*
X11490063Y-14047436D02*
X11480539Y-14028388D01*
X11480539Y-14028388D02*
X11471015Y-13990293D01*
X11471015Y-13990293D02*
X11471015Y-13942674D01*
X11471015Y-13942674D02*
X11480539Y-13904579D01*
X11480539Y-13904579D02*
X11490063Y-13885531D01*
X11490063Y-13885531D02*
X11499586Y-13876008D01*
X11499586Y-13876008D02*
X11518634Y-13866484D01*
X11671015Y-14047436D02*
X11680539Y-14056960D01*
X11680539Y-14056960D02*
X11671015Y-14066484D01*
X11671015Y-14066484D02*
X11661491Y-14056960D01*
X11661491Y-14056960D02*
X11671015Y-14047436D01*
X11671015Y-14047436D02*
X11671015Y-14066484D01*
X11804348Y-13866484D02*
X11823396Y-13866484D01*
X11823396Y-13866484D02*
X11842444Y-13876008D01*
X11842444Y-13876008D02*
X11851967Y-13885531D01*
X11851967Y-13885531D02*
X11861491Y-13904579D01*
X11861491Y-13904579D02*
X11871015Y-13942674D01*
X11871015Y-13942674D02*
X11871015Y-13990293D01*
X11871015Y-13990293D02*
X11861491Y-14028388D01*
X11861491Y-14028388D02*
X11851967Y-14047436D01*
X11851967Y-14047436D02*
X11842444Y-14056960D01*
X11842444Y-14056960D02*
X11823396Y-14066484D01*
X11823396Y-14066484D02*
X11804348Y-14066484D01*
X11804348Y-14066484D02*
X11785301Y-14056960D01*
X11785301Y-14056960D02*
X11775777Y-14047436D01*
X11775777Y-14047436D02*
X11766253Y-14028388D01*
X11766253Y-14028388D02*
X11756729Y-13990293D01*
X11756729Y-13990293D02*
X11756729Y-13942674D01*
X11756729Y-13942674D02*
X11766253Y-13904579D01*
X11766253Y-13904579D02*
X11775777Y-13885531D01*
X11775777Y-13885531D02*
X11785301Y-13876008D01*
X11785301Y-13876008D02*
X11804348Y-13866484D01*
X12061491Y-14066484D02*
X11947206Y-14066484D01*
X12004348Y-14066484D02*
X12004348Y-13866484D01*
X12004348Y-13866484D02*
X11985301Y-13895055D01*
X11985301Y-13895055D02*
X11966253Y-13914103D01*
X11966253Y-13914103D02*
X11947206Y-13923627D01*
X12242444Y-13866484D02*
X12147206Y-13866484D01*
X12147206Y-13866484D02*
X12137682Y-13961722D01*
X12137682Y-13961722D02*
X12147206Y-13952198D01*
X12147206Y-13952198D02*
X12166253Y-13942674D01*
X12166253Y-13942674D02*
X12213872Y-13942674D01*
X12213872Y-13942674D02*
X12232920Y-13952198D01*
X12232920Y-13952198D02*
X12242444Y-13961722D01*
X12242444Y-13961722D02*
X12251967Y-13980769D01*
X12251967Y-13980769D02*
X12251967Y-14028388D01*
X12251967Y-14028388D02*
X12242444Y-14047436D01*
X12242444Y-14047436D02*
X12232920Y-14056960D01*
X12232920Y-14056960D02*
X12213872Y-14066484D01*
X12213872Y-14066484D02*
X12166253Y-14066484D01*
X12166253Y-14066484D02*
X12147206Y-14056960D01*
X12147206Y-14056960D02*
X12137682Y-14047436D01*
X12318634Y-13866484D02*
X12451967Y-13866484D01*
X12451967Y-13866484D02*
X12366253Y-14066484D01*
X12518634Y-13866484D02*
X12518634Y-13904579D01*
X12594825Y-13866484D02*
X12594825Y-13904579D01*
X12890063Y-14142674D02*
X12880539Y-14133150D01*
X12880539Y-14133150D02*
X12861491Y-14104579D01*
X12861491Y-14104579D02*
X12851968Y-14085531D01*
X12851968Y-14085531D02*
X12842444Y-14056960D01*
X12842444Y-14056960D02*
X12832920Y-14009341D01*
X12832920Y-14009341D02*
X12832920Y-13971246D01*
X12832920Y-13971246D02*
X12842444Y-13923627D01*
X12842444Y-13923627D02*
X12851968Y-13895055D01*
X12851968Y-13895055D02*
X12861491Y-13876008D01*
X12861491Y-13876008D02*
X12880539Y-13847436D01*
X12880539Y-13847436D02*
X12890063Y-13837912D01*
X13071015Y-14066484D02*
X12956729Y-14066484D01*
X13013872Y-14066484D02*
X13013872Y-13866484D01*
X13013872Y-13866484D02*
X12994825Y-13895055D01*
X12994825Y-13895055D02*
X12975777Y-13914103D01*
X12975777Y-13914103D02*
X12956729Y-13923627D01*
X13185301Y-13952198D02*
X13166253Y-13942674D01*
X13166253Y-13942674D02*
X13156729Y-13933150D01*
X13156729Y-13933150D02*
X13147206Y-13914103D01*
X13147206Y-13914103D02*
X13147206Y-13904579D01*
X13147206Y-13904579D02*
X13156729Y-13885531D01*
X13156729Y-13885531D02*
X13166253Y-13876008D01*
X13166253Y-13876008D02*
X13185301Y-13866484D01*
X13185301Y-13866484D02*
X13223396Y-13866484D01*
X13223396Y-13866484D02*
X13242444Y-13876008D01*
X13242444Y-13876008D02*
X13251968Y-13885531D01*
X13251968Y-13885531D02*
X13261491Y-13904579D01*
X13261491Y-13904579D02*
X13261491Y-13914103D01*
X13261491Y-13914103D02*
X13251968Y-13933150D01*
X13251968Y-13933150D02*
X13242444Y-13942674D01*
X13242444Y-13942674D02*
X13223396Y-13952198D01*
X13223396Y-13952198D02*
X13185301Y-13952198D01*
X13185301Y-13952198D02*
X13166253Y-13961722D01*
X13166253Y-13961722D02*
X13156729Y-13971246D01*
X13156729Y-13971246D02*
X13147206Y-13990293D01*
X13147206Y-13990293D02*
X13147206Y-14028388D01*
X13147206Y-14028388D02*
X13156729Y-14047436D01*
X13156729Y-14047436D02*
X13166253Y-14056960D01*
X13166253Y-14056960D02*
X13185301Y-14066484D01*
X13185301Y-14066484D02*
X13223396Y-14066484D01*
X13223396Y-14066484D02*
X13242444Y-14056960D01*
X13242444Y-14056960D02*
X13251968Y-14047436D01*
X13251968Y-14047436D02*
X13261491Y-14028388D01*
X13261491Y-14028388D02*
X13261491Y-13990293D01*
X13261491Y-13990293D02*
X13251968Y-13971246D01*
X13251968Y-13971246D02*
X13242444Y-13961722D01*
X13242444Y-13961722D02*
X13223396Y-13952198D01*
X13328158Y-13866484D02*
X13461491Y-13866484D01*
X13461491Y-13866484D02*
X13375777Y-14066484D01*
X13690063Y-14066484D02*
X13690063Y-13866484D01*
X13775777Y-14066484D02*
X13775777Y-13961722D01*
X13775777Y-13961722D02*
X13766253Y-13942674D01*
X13766253Y-13942674D02*
X13747206Y-13933150D01*
X13747206Y-13933150D02*
X13718634Y-13933150D01*
X13718634Y-13933150D02*
X13699587Y-13942674D01*
X13699587Y-13942674D02*
X13690063Y-13952198D01*
X13899587Y-14066484D02*
X13880539Y-14056960D01*
X13880539Y-14056960D02*
X13871015Y-14047436D01*
X13871015Y-14047436D02*
X13861491Y-14028388D01*
X13861491Y-14028388D02*
X13861491Y-13971246D01*
X13861491Y-13971246D02*
X13871015Y-13952198D01*
X13871015Y-13952198D02*
X13880539Y-13942674D01*
X13880539Y-13942674D02*
X13899587Y-13933150D01*
X13899587Y-13933150D02*
X13928158Y-13933150D01*
X13928158Y-13933150D02*
X13947206Y-13942674D01*
X13947206Y-13942674D02*
X13956730Y-13952198D01*
X13956730Y-13952198D02*
X13966253Y-13971246D01*
X13966253Y-13971246D02*
X13966253Y-14028388D01*
X13966253Y-14028388D02*
X13956730Y-14047436D01*
X13956730Y-14047436D02*
X13947206Y-14056960D01*
X13947206Y-14056960D02*
X13928158Y-14066484D01*
X13928158Y-14066484D02*
X13899587Y-14066484D01*
X14080539Y-14066484D02*
X14061491Y-14056960D01*
X14061491Y-14056960D02*
X14051968Y-14037912D01*
X14051968Y-14037912D02*
X14051968Y-13866484D01*
X14232920Y-14056960D02*
X14213872Y-14066484D01*
X14213872Y-14066484D02*
X14175777Y-14066484D01*
X14175777Y-14066484D02*
X14156730Y-14056960D01*
X14156730Y-14056960D02*
X14147206Y-14037912D01*
X14147206Y-14037912D02*
X14147206Y-13961722D01*
X14147206Y-13961722D02*
X14156730Y-13942674D01*
X14156730Y-13942674D02*
X14175777Y-13933150D01*
X14175777Y-13933150D02*
X14213872Y-13933150D01*
X14213872Y-13933150D02*
X14232920Y-13942674D01*
X14232920Y-13942674D02*
X14242444Y-13961722D01*
X14242444Y-13961722D02*
X14242444Y-13980769D01*
X14242444Y-13980769D02*
X14147206Y-13999817D01*
X14318634Y-14056960D02*
X14337682Y-14066484D01*
X14337682Y-14066484D02*
X14375777Y-14066484D01*
X14375777Y-14066484D02*
X14394825Y-14056960D01*
X14394825Y-14056960D02*
X14404349Y-14037912D01*
X14404349Y-14037912D02*
X14404349Y-14028388D01*
X14404349Y-14028388D02*
X14394825Y-14009341D01*
X14394825Y-14009341D02*
X14375777Y-13999817D01*
X14375777Y-13999817D02*
X14347206Y-13999817D01*
X14347206Y-13999817D02*
X14328158Y-13990293D01*
X14328158Y-13990293D02*
X14318634Y-13971246D01*
X14318634Y-13971246D02*
X14318634Y-13961722D01*
X14318634Y-13961722D02*
X14328158Y-13942674D01*
X14328158Y-13942674D02*
X14347206Y-13933150D01*
X14347206Y-13933150D02*
X14375777Y-13933150D01*
X14375777Y-13933150D02*
X14394825Y-13942674D01*
X14471015Y-14142674D02*
X14480539Y-14133150D01*
X14480539Y-14133150D02*
X14499587Y-14104579D01*
X14499587Y-14104579D02*
X14509111Y-14085531D01*
X14509111Y-14085531D02*
X14518634Y-14056960D01*
X14518634Y-14056960D02*
X14528158Y-14009341D01*
X14528158Y-14009341D02*
X14528158Y-13971246D01*
X14528158Y-13971246D02*
X14518634Y-13923627D01*
X14518634Y-13923627D02*
X14509111Y-13895055D01*
X14509111Y-13895055D02*
X14499587Y-13876008D01*
X14499587Y-13876008D02*
X14480539Y-13847436D01*
X14480539Y-13847436D02*
X14471015Y-13837912D01*
D13*
X9315000Y-14239000D02*
G75*
G03*
X9315000Y-14239000I-40000J0D01*
G01*
D11*
X9613872Y-14130484D02*
X9632920Y-14130484D01*
X9632920Y-14130484D02*
X9651967Y-14140008D01*
X9651967Y-14140008D02*
X9661491Y-14149531D01*
X9661491Y-14149531D02*
X9671015Y-14168579D01*
X9671015Y-14168579D02*
X9680539Y-14206674D01*
X9680539Y-14206674D02*
X9680539Y-14254293D01*
X9680539Y-14254293D02*
X9671015Y-14292388D01*
X9671015Y-14292388D02*
X9661491Y-14311436D01*
X9661491Y-14311436D02*
X9651967Y-14320960D01*
X9651967Y-14320960D02*
X9632920Y-14330484D01*
X9632920Y-14330484D02*
X9613872Y-14330484D01*
X9613872Y-14330484D02*
X9594824Y-14320960D01*
X9594824Y-14320960D02*
X9585301Y-14311436D01*
X9585301Y-14311436D02*
X9575777Y-14292388D01*
X9575777Y-14292388D02*
X9566253Y-14254293D01*
X9566253Y-14254293D02*
X9566253Y-14206674D01*
X9566253Y-14206674D02*
X9575777Y-14168579D01*
X9575777Y-14168579D02*
X9585301Y-14149531D01*
X9585301Y-14149531D02*
X9594824Y-14140008D01*
X9594824Y-14140008D02*
X9613872Y-14130484D01*
X9766253Y-14311436D02*
X9775777Y-14320960D01*
X9775777Y-14320960D02*
X9766253Y-14330484D01*
X9766253Y-14330484D02*
X9756729Y-14320960D01*
X9756729Y-14320960D02*
X9766253Y-14311436D01*
X9766253Y-14311436D02*
X9766253Y-14330484D01*
X9890063Y-14216198D02*
X9871015Y-14206674D01*
X9871015Y-14206674D02*
X9861491Y-14197150D01*
X9861491Y-14197150D02*
X9851967Y-14178103D01*
X9851967Y-14178103D02*
X9851967Y-14168579D01*
X9851967Y-14168579D02*
X9861491Y-14149531D01*
X9861491Y-14149531D02*
X9871015Y-14140008D01*
X9871015Y-14140008D02*
X9890063Y-14130484D01*
X9890063Y-14130484D02*
X9928158Y-14130484D01*
X9928158Y-14130484D02*
X9947205Y-14140008D01*
X9947205Y-14140008D02*
X9956729Y-14149531D01*
X9956729Y-14149531D02*
X9966253Y-14168579D01*
X9966253Y-14168579D02*
X9966253Y-14178103D01*
X9966253Y-14178103D02*
X9956729Y-14197150D01*
X9956729Y-14197150D02*
X9947205Y-14206674D01*
X9947205Y-14206674D02*
X9928158Y-14216198D01*
X9928158Y-14216198D02*
X9890063Y-14216198D01*
X9890063Y-14216198D02*
X9871015Y-14225722D01*
X9871015Y-14225722D02*
X9861491Y-14235246D01*
X9861491Y-14235246D02*
X9851967Y-14254293D01*
X9851967Y-14254293D02*
X9851967Y-14292388D01*
X9851967Y-14292388D02*
X9861491Y-14311436D01*
X9861491Y-14311436D02*
X9871015Y-14320960D01*
X9871015Y-14320960D02*
X9890063Y-14330484D01*
X9890063Y-14330484D02*
X9928158Y-14330484D01*
X9928158Y-14330484D02*
X9947205Y-14320960D01*
X9947205Y-14320960D02*
X9956729Y-14311436D01*
X9956729Y-14311436D02*
X9966253Y-14292388D01*
X9966253Y-14292388D02*
X9966253Y-14254293D01*
X9966253Y-14254293D02*
X9956729Y-14235246D01*
X9956729Y-14235246D02*
X9947205Y-14225722D01*
X9947205Y-14225722D02*
X9928158Y-14216198D01*
X10090063Y-14130484D02*
X10109110Y-14130484D01*
X10109110Y-14130484D02*
X10128158Y-14140008D01*
X10128158Y-14140008D02*
X10137682Y-14149531D01*
X10137682Y-14149531D02*
X10147205Y-14168579D01*
X10147205Y-14168579D02*
X10156729Y-14206674D01*
X10156729Y-14206674D02*
X10156729Y-14254293D01*
X10156729Y-14254293D02*
X10147205Y-14292388D01*
X10147205Y-14292388D02*
X10137682Y-14311436D01*
X10137682Y-14311436D02*
X10128158Y-14320960D01*
X10128158Y-14320960D02*
X10109110Y-14330484D01*
X10109110Y-14330484D02*
X10090063Y-14330484D01*
X10090063Y-14330484D02*
X10071015Y-14320960D01*
X10071015Y-14320960D02*
X10061491Y-14311436D01*
X10061491Y-14311436D02*
X10051967Y-14292388D01*
X10051967Y-14292388D02*
X10042444Y-14254293D01*
X10042444Y-14254293D02*
X10042444Y-14206674D01*
X10042444Y-14206674D02*
X10051967Y-14168579D01*
X10051967Y-14168579D02*
X10061491Y-14149531D01*
X10061491Y-14149531D02*
X10071015Y-14140008D01*
X10071015Y-14140008D02*
X10090063Y-14130484D01*
X10280539Y-14130484D02*
X10299586Y-14130484D01*
X10299586Y-14130484D02*
X10318634Y-14140008D01*
X10318634Y-14140008D02*
X10328158Y-14149531D01*
X10328158Y-14149531D02*
X10337682Y-14168579D01*
X10337682Y-14168579D02*
X10347205Y-14206674D01*
X10347205Y-14206674D02*
X10347205Y-14254293D01*
X10347205Y-14254293D02*
X10337682Y-14292388D01*
X10337682Y-14292388D02*
X10328158Y-14311436D01*
X10328158Y-14311436D02*
X10318634Y-14320960D01*
X10318634Y-14320960D02*
X10299586Y-14330484D01*
X10299586Y-14330484D02*
X10280539Y-14330484D01*
X10280539Y-14330484D02*
X10261491Y-14320960D01*
X10261491Y-14320960D02*
X10251967Y-14311436D01*
X10251967Y-14311436D02*
X10242444Y-14292388D01*
X10242444Y-14292388D02*
X10232920Y-14254293D01*
X10232920Y-14254293D02*
X10232920Y-14206674D01*
X10232920Y-14206674D02*
X10242444Y-14168579D01*
X10242444Y-14168579D02*
X10251967Y-14149531D01*
X10251967Y-14149531D02*
X10261491Y-14140008D01*
X10261491Y-14140008D02*
X10280539Y-14130484D01*
X10432920Y-14330484D02*
X10432920Y-14197150D01*
X10432920Y-14216198D02*
X10442444Y-14206674D01*
X10442444Y-14206674D02*
X10461491Y-14197150D01*
X10461491Y-14197150D02*
X10490063Y-14197150D01*
X10490063Y-14197150D02*
X10509110Y-14206674D01*
X10509110Y-14206674D02*
X10518634Y-14225722D01*
X10518634Y-14225722D02*
X10518634Y-14330484D01*
X10518634Y-14225722D02*
X10528158Y-14206674D01*
X10528158Y-14206674D02*
X10547205Y-14197150D01*
X10547205Y-14197150D02*
X10575777Y-14197150D01*
X10575777Y-14197150D02*
X10594825Y-14206674D01*
X10594825Y-14206674D02*
X10604348Y-14225722D01*
X10604348Y-14225722D02*
X10604348Y-14330484D01*
X10699586Y-14330484D02*
X10699586Y-14197150D01*
X10699586Y-14216198D02*
X10709110Y-14206674D01*
X10709110Y-14206674D02*
X10728158Y-14197150D01*
X10728158Y-14197150D02*
X10756729Y-14197150D01*
X10756729Y-14197150D02*
X10775777Y-14206674D01*
X10775777Y-14206674D02*
X10785301Y-14225722D01*
X10785301Y-14225722D02*
X10785301Y-14330484D01*
X10785301Y-14225722D02*
X10794825Y-14206674D01*
X10794825Y-14206674D02*
X10813872Y-14197150D01*
X10813872Y-14197150D02*
X10842444Y-14197150D01*
X10842444Y-14197150D02*
X10861491Y-14206674D01*
X10861491Y-14206674D02*
X10871015Y-14225722D01*
X10871015Y-14225722D02*
X10871015Y-14330484D01*
X11261491Y-14120960D02*
X11090063Y-14378103D01*
X11518634Y-14130484D02*
X11537682Y-14130484D01*
X11537682Y-14130484D02*
X11556729Y-14140008D01*
X11556729Y-14140008D02*
X11566253Y-14149531D01*
X11566253Y-14149531D02*
X11575777Y-14168579D01*
X11575777Y-14168579D02*
X11585301Y-14206674D01*
X11585301Y-14206674D02*
X11585301Y-14254293D01*
X11585301Y-14254293D02*
X11575777Y-14292388D01*
X11575777Y-14292388D02*
X11566253Y-14311436D01*
X11566253Y-14311436D02*
X11556729Y-14320960D01*
X11556729Y-14320960D02*
X11537682Y-14330484D01*
X11537682Y-14330484D02*
X11518634Y-14330484D01*
X11518634Y-14330484D02*
X11499586Y-14320960D01*
X11499586Y-14320960D02*
X11490063Y-14311436D01*
X11490063Y-14311436D02*
X11480539Y-14292388D01*
X11480539Y-14292388D02*
X11471015Y-14254293D01*
X11471015Y-14254293D02*
X11471015Y-14206674D01*
X11471015Y-14206674D02*
X11480539Y-14168579D01*
X11480539Y-14168579D02*
X11490063Y-14149531D01*
X11490063Y-14149531D02*
X11499586Y-14140008D01*
X11499586Y-14140008D02*
X11518634Y-14130484D01*
X11671015Y-14311436D02*
X11680539Y-14320960D01*
X11680539Y-14320960D02*
X11671015Y-14330484D01*
X11671015Y-14330484D02*
X11661491Y-14320960D01*
X11661491Y-14320960D02*
X11671015Y-14311436D01*
X11671015Y-14311436D02*
X11671015Y-14330484D01*
X11804348Y-14130484D02*
X11823396Y-14130484D01*
X11823396Y-14130484D02*
X11842444Y-14140008D01*
X11842444Y-14140008D02*
X11851967Y-14149531D01*
X11851967Y-14149531D02*
X11861491Y-14168579D01*
X11861491Y-14168579D02*
X11871015Y-14206674D01*
X11871015Y-14206674D02*
X11871015Y-14254293D01*
X11871015Y-14254293D02*
X11861491Y-14292388D01*
X11861491Y-14292388D02*
X11851967Y-14311436D01*
X11851967Y-14311436D02*
X11842444Y-14320960D01*
X11842444Y-14320960D02*
X11823396Y-14330484D01*
X11823396Y-14330484D02*
X11804348Y-14330484D01*
X11804348Y-14330484D02*
X11785301Y-14320960D01*
X11785301Y-14320960D02*
X11775777Y-14311436D01*
X11775777Y-14311436D02*
X11766253Y-14292388D01*
X11766253Y-14292388D02*
X11756729Y-14254293D01*
X11756729Y-14254293D02*
X11756729Y-14206674D01*
X11756729Y-14206674D02*
X11766253Y-14168579D01*
X11766253Y-14168579D02*
X11775777Y-14149531D01*
X11775777Y-14149531D02*
X11785301Y-14140008D01*
X11785301Y-14140008D02*
X11804348Y-14130484D01*
X11937682Y-14130484D02*
X12061491Y-14130484D01*
X12061491Y-14130484D02*
X11994825Y-14206674D01*
X11994825Y-14206674D02*
X12023396Y-14206674D01*
X12023396Y-14206674D02*
X12042444Y-14216198D01*
X12042444Y-14216198D02*
X12051967Y-14225722D01*
X12051967Y-14225722D02*
X12061491Y-14244769D01*
X12061491Y-14244769D02*
X12061491Y-14292388D01*
X12061491Y-14292388D02*
X12051967Y-14311436D01*
X12051967Y-14311436D02*
X12042444Y-14320960D01*
X12042444Y-14320960D02*
X12023396Y-14330484D01*
X12023396Y-14330484D02*
X11966253Y-14330484D01*
X11966253Y-14330484D02*
X11947206Y-14320960D01*
X11947206Y-14320960D02*
X11937682Y-14311436D01*
X12251967Y-14330484D02*
X12137682Y-14330484D01*
X12194825Y-14330484D02*
X12194825Y-14130484D01*
X12194825Y-14130484D02*
X12175777Y-14159055D01*
X12175777Y-14159055D02*
X12156729Y-14178103D01*
X12156729Y-14178103D02*
X12137682Y-14187627D01*
X12432920Y-14130484D02*
X12337682Y-14130484D01*
X12337682Y-14130484D02*
X12328158Y-14225722D01*
X12328158Y-14225722D02*
X12337682Y-14216198D01*
X12337682Y-14216198D02*
X12356729Y-14206674D01*
X12356729Y-14206674D02*
X12404348Y-14206674D01*
X12404348Y-14206674D02*
X12423396Y-14216198D01*
X12423396Y-14216198D02*
X12432920Y-14225722D01*
X12432920Y-14225722D02*
X12442444Y-14244769D01*
X12442444Y-14244769D02*
X12442444Y-14292388D01*
X12442444Y-14292388D02*
X12432920Y-14311436D01*
X12432920Y-14311436D02*
X12423396Y-14320960D01*
X12423396Y-14320960D02*
X12404348Y-14330484D01*
X12404348Y-14330484D02*
X12356729Y-14330484D01*
X12356729Y-14330484D02*
X12337682Y-14320960D01*
X12337682Y-14320960D02*
X12328158Y-14311436D01*
X12518634Y-14130484D02*
X12518634Y-14168579D01*
X12594825Y-14130484D02*
X12594825Y-14168579D01*
X12890063Y-14406674D02*
X12880539Y-14397150D01*
X12880539Y-14397150D02*
X12861491Y-14368579D01*
X12861491Y-14368579D02*
X12851968Y-14349531D01*
X12851968Y-14349531D02*
X12842444Y-14320960D01*
X12842444Y-14320960D02*
X12832920Y-14273341D01*
X12832920Y-14273341D02*
X12832920Y-14235246D01*
X12832920Y-14235246D02*
X12842444Y-14187627D01*
X12842444Y-14187627D02*
X12851968Y-14159055D01*
X12851968Y-14159055D02*
X12861491Y-14140008D01*
X12861491Y-14140008D02*
X12880539Y-14111436D01*
X12880539Y-14111436D02*
X12890063Y-14101912D01*
X13071015Y-14330484D02*
X12956729Y-14330484D01*
X13013872Y-14330484D02*
X13013872Y-14130484D01*
X13013872Y-14130484D02*
X12994825Y-14159055D01*
X12994825Y-14159055D02*
X12975777Y-14178103D01*
X12975777Y-14178103D02*
X12956729Y-14187627D01*
X13242444Y-14130484D02*
X13204348Y-14130484D01*
X13204348Y-14130484D02*
X13185301Y-14140008D01*
X13185301Y-14140008D02*
X13175777Y-14149531D01*
X13175777Y-14149531D02*
X13156729Y-14178103D01*
X13156729Y-14178103D02*
X13147206Y-14216198D01*
X13147206Y-14216198D02*
X13147206Y-14292388D01*
X13147206Y-14292388D02*
X13156729Y-14311436D01*
X13156729Y-14311436D02*
X13166253Y-14320960D01*
X13166253Y-14320960D02*
X13185301Y-14330484D01*
X13185301Y-14330484D02*
X13223396Y-14330484D01*
X13223396Y-14330484D02*
X13242444Y-14320960D01*
X13242444Y-14320960D02*
X13251968Y-14311436D01*
X13251968Y-14311436D02*
X13261491Y-14292388D01*
X13261491Y-14292388D02*
X13261491Y-14244769D01*
X13261491Y-14244769D02*
X13251968Y-14225722D01*
X13251968Y-14225722D02*
X13242444Y-14216198D01*
X13242444Y-14216198D02*
X13223396Y-14206674D01*
X13223396Y-14206674D02*
X13185301Y-14206674D01*
X13185301Y-14206674D02*
X13166253Y-14216198D01*
X13166253Y-14216198D02*
X13156729Y-14225722D01*
X13156729Y-14225722D02*
X13147206Y-14244769D01*
X13499587Y-14330484D02*
X13499587Y-14130484D01*
X13585301Y-14330484D02*
X13585301Y-14225722D01*
X13585301Y-14225722D02*
X13575777Y-14206674D01*
X13575777Y-14206674D02*
X13556730Y-14197150D01*
X13556730Y-14197150D02*
X13528158Y-14197150D01*
X13528158Y-14197150D02*
X13509110Y-14206674D01*
X13509110Y-14206674D02*
X13499587Y-14216198D01*
X13709110Y-14330484D02*
X13690063Y-14320960D01*
X13690063Y-14320960D02*
X13680539Y-14311436D01*
X13680539Y-14311436D02*
X13671015Y-14292388D01*
X13671015Y-14292388D02*
X13671015Y-14235246D01*
X13671015Y-14235246D02*
X13680539Y-14216198D01*
X13680539Y-14216198D02*
X13690063Y-14206674D01*
X13690063Y-14206674D02*
X13709110Y-14197150D01*
X13709110Y-14197150D02*
X13737682Y-14197150D01*
X13737682Y-14197150D02*
X13756730Y-14206674D01*
X13756730Y-14206674D02*
X13766253Y-14216198D01*
X13766253Y-14216198D02*
X13775777Y-14235246D01*
X13775777Y-14235246D02*
X13775777Y-14292388D01*
X13775777Y-14292388D02*
X13766253Y-14311436D01*
X13766253Y-14311436D02*
X13756730Y-14320960D01*
X13756730Y-14320960D02*
X13737682Y-14330484D01*
X13737682Y-14330484D02*
X13709110Y-14330484D01*
X13890063Y-14330484D02*
X13871015Y-14320960D01*
X13871015Y-14320960D02*
X13861491Y-14301912D01*
X13861491Y-14301912D02*
X13861491Y-14130484D01*
X14042444Y-14320960D02*
X14023396Y-14330484D01*
X14023396Y-14330484D02*
X13985301Y-14330484D01*
X13985301Y-14330484D02*
X13966253Y-14320960D01*
X13966253Y-14320960D02*
X13956730Y-14301912D01*
X13956730Y-14301912D02*
X13956730Y-14225722D01*
X13956730Y-14225722D02*
X13966253Y-14206674D01*
X13966253Y-14206674D02*
X13985301Y-14197150D01*
X13985301Y-14197150D02*
X14023396Y-14197150D01*
X14023396Y-14197150D02*
X14042444Y-14206674D01*
X14042444Y-14206674D02*
X14051968Y-14225722D01*
X14051968Y-14225722D02*
X14051968Y-14244769D01*
X14051968Y-14244769D02*
X13956730Y-14263817D01*
X14128158Y-14320960D02*
X14147206Y-14330484D01*
X14147206Y-14330484D02*
X14185301Y-14330484D01*
X14185301Y-14330484D02*
X14204349Y-14320960D01*
X14204349Y-14320960D02*
X14213872Y-14301912D01*
X14213872Y-14301912D02*
X14213872Y-14292388D01*
X14213872Y-14292388D02*
X14204349Y-14273341D01*
X14204349Y-14273341D02*
X14185301Y-14263817D01*
X14185301Y-14263817D02*
X14156730Y-14263817D01*
X14156730Y-14263817D02*
X14137682Y-14254293D01*
X14137682Y-14254293D02*
X14128158Y-14235246D01*
X14128158Y-14235246D02*
X14128158Y-14225722D01*
X14128158Y-14225722D02*
X14137682Y-14206674D01*
X14137682Y-14206674D02*
X14156730Y-14197150D01*
X14156730Y-14197150D02*
X14185301Y-14197150D01*
X14185301Y-14197150D02*
X14204349Y-14206674D01*
X14280539Y-14406674D02*
X14290063Y-14397150D01*
X14290063Y-14397150D02*
X14309111Y-14368579D01*
X14309111Y-14368579D02*
X14318634Y-14349531D01*
X14318634Y-14349531D02*
X14328158Y-14320960D01*
X14328158Y-14320960D02*
X14337682Y-14273341D01*
X14337682Y-14273341D02*
X14337682Y-14235246D01*
X14337682Y-14235246D02*
X14328158Y-14187627D01*
X14328158Y-14187627D02*
X14318634Y-14159055D01*
X14318634Y-14159055D02*
X14309111Y-14140008D01*
X14309111Y-14140008D02*
X14290063Y-14111436D01*
X14290063Y-14111436D02*
X14280539Y-14101912D01*
D10*
X9265000Y-14453000D02*
X9265000Y-14553000D01*
X9215000Y-14503000D02*
X9315000Y-14503000D01*
D11*
X9680539Y-14594484D02*
X9566253Y-14594484D01*
X9623396Y-14594484D02*
X9623396Y-14394484D01*
X9623396Y-14394484D02*
X9604348Y-14423055D01*
X9604348Y-14423055D02*
X9585301Y-14442103D01*
X9585301Y-14442103D02*
X9566253Y-14451627D01*
X9766253Y-14575436D02*
X9775777Y-14584960D01*
X9775777Y-14584960D02*
X9766253Y-14594484D01*
X9766253Y-14594484D02*
X9756729Y-14584960D01*
X9756729Y-14584960D02*
X9766253Y-14575436D01*
X9766253Y-14575436D02*
X9766253Y-14594484D01*
X9899586Y-14394484D02*
X9918634Y-14394484D01*
X9918634Y-14394484D02*
X9937682Y-14404008D01*
X9937682Y-14404008D02*
X9947205Y-14413531D01*
X9947205Y-14413531D02*
X9956729Y-14432579D01*
X9956729Y-14432579D02*
X9966253Y-14470674D01*
X9966253Y-14470674D02*
X9966253Y-14518293D01*
X9966253Y-14518293D02*
X9956729Y-14556388D01*
X9956729Y-14556388D02*
X9947205Y-14575436D01*
X9947205Y-14575436D02*
X9937682Y-14584960D01*
X9937682Y-14584960D02*
X9918634Y-14594484D01*
X9918634Y-14594484D02*
X9899586Y-14594484D01*
X9899586Y-14594484D02*
X9880539Y-14584960D01*
X9880539Y-14584960D02*
X9871015Y-14575436D01*
X9871015Y-14575436D02*
X9861491Y-14556388D01*
X9861491Y-14556388D02*
X9851967Y-14518293D01*
X9851967Y-14518293D02*
X9851967Y-14470674D01*
X9851967Y-14470674D02*
X9861491Y-14432579D01*
X9861491Y-14432579D02*
X9871015Y-14413531D01*
X9871015Y-14413531D02*
X9880539Y-14404008D01*
X9880539Y-14404008D02*
X9899586Y-14394484D01*
X10090063Y-14394484D02*
X10109110Y-14394484D01*
X10109110Y-14394484D02*
X10128158Y-14404008D01*
X10128158Y-14404008D02*
X10137682Y-14413531D01*
X10137682Y-14413531D02*
X10147205Y-14432579D01*
X10147205Y-14432579D02*
X10156729Y-14470674D01*
X10156729Y-14470674D02*
X10156729Y-14518293D01*
X10156729Y-14518293D02*
X10147205Y-14556388D01*
X10147205Y-14556388D02*
X10137682Y-14575436D01*
X10137682Y-14575436D02*
X10128158Y-14584960D01*
X10128158Y-14584960D02*
X10109110Y-14594484D01*
X10109110Y-14594484D02*
X10090063Y-14594484D01*
X10090063Y-14594484D02*
X10071015Y-14584960D01*
X10071015Y-14584960D02*
X10061491Y-14575436D01*
X10061491Y-14575436D02*
X10051967Y-14556388D01*
X10051967Y-14556388D02*
X10042444Y-14518293D01*
X10042444Y-14518293D02*
X10042444Y-14470674D01*
X10042444Y-14470674D02*
X10051967Y-14432579D01*
X10051967Y-14432579D02*
X10061491Y-14413531D01*
X10061491Y-14413531D02*
X10071015Y-14404008D01*
X10071015Y-14404008D02*
X10090063Y-14394484D01*
X10280539Y-14394484D02*
X10299586Y-14394484D01*
X10299586Y-14394484D02*
X10318634Y-14404008D01*
X10318634Y-14404008D02*
X10328158Y-14413531D01*
X10328158Y-14413531D02*
X10337682Y-14432579D01*
X10337682Y-14432579D02*
X10347205Y-14470674D01*
X10347205Y-14470674D02*
X10347205Y-14518293D01*
X10347205Y-14518293D02*
X10337682Y-14556388D01*
X10337682Y-14556388D02*
X10328158Y-14575436D01*
X10328158Y-14575436D02*
X10318634Y-14584960D01*
X10318634Y-14584960D02*
X10299586Y-14594484D01*
X10299586Y-14594484D02*
X10280539Y-14594484D01*
X10280539Y-14594484D02*
X10261491Y-14584960D01*
X10261491Y-14584960D02*
X10251967Y-14575436D01*
X10251967Y-14575436D02*
X10242444Y-14556388D01*
X10242444Y-14556388D02*
X10232920Y-14518293D01*
X10232920Y-14518293D02*
X10232920Y-14470674D01*
X10232920Y-14470674D02*
X10242444Y-14432579D01*
X10242444Y-14432579D02*
X10251967Y-14413531D01*
X10251967Y-14413531D02*
X10261491Y-14404008D01*
X10261491Y-14404008D02*
X10280539Y-14394484D01*
X10432920Y-14594484D02*
X10432920Y-14461150D01*
X10432920Y-14480198D02*
X10442444Y-14470674D01*
X10442444Y-14470674D02*
X10461491Y-14461150D01*
X10461491Y-14461150D02*
X10490063Y-14461150D01*
X10490063Y-14461150D02*
X10509110Y-14470674D01*
X10509110Y-14470674D02*
X10518634Y-14489722D01*
X10518634Y-14489722D02*
X10518634Y-14594484D01*
X10518634Y-14489722D02*
X10528158Y-14470674D01*
X10528158Y-14470674D02*
X10547205Y-14461150D01*
X10547205Y-14461150D02*
X10575777Y-14461150D01*
X10575777Y-14461150D02*
X10594825Y-14470674D01*
X10594825Y-14470674D02*
X10604348Y-14489722D01*
X10604348Y-14489722D02*
X10604348Y-14594484D01*
X10699586Y-14594484D02*
X10699586Y-14461150D01*
X10699586Y-14480198D02*
X10709110Y-14470674D01*
X10709110Y-14470674D02*
X10728158Y-14461150D01*
X10728158Y-14461150D02*
X10756729Y-14461150D01*
X10756729Y-14461150D02*
X10775777Y-14470674D01*
X10775777Y-14470674D02*
X10785301Y-14489722D01*
X10785301Y-14489722D02*
X10785301Y-14594484D01*
X10785301Y-14489722D02*
X10794825Y-14470674D01*
X10794825Y-14470674D02*
X10813872Y-14461150D01*
X10813872Y-14461150D02*
X10842444Y-14461150D01*
X10842444Y-14461150D02*
X10861491Y-14470674D01*
X10861491Y-14470674D02*
X10871015Y-14489722D01*
X10871015Y-14489722D02*
X10871015Y-14594484D01*
X11261491Y-14384960D02*
X11090063Y-14642103D01*
X11518634Y-14394484D02*
X11537682Y-14394484D01*
X11537682Y-14394484D02*
X11556729Y-14404008D01*
X11556729Y-14404008D02*
X11566253Y-14413531D01*
X11566253Y-14413531D02*
X11575777Y-14432579D01*
X11575777Y-14432579D02*
X11585301Y-14470674D01*
X11585301Y-14470674D02*
X11585301Y-14518293D01*
X11585301Y-14518293D02*
X11575777Y-14556388D01*
X11575777Y-14556388D02*
X11566253Y-14575436D01*
X11566253Y-14575436D02*
X11556729Y-14584960D01*
X11556729Y-14584960D02*
X11537682Y-14594484D01*
X11537682Y-14594484D02*
X11518634Y-14594484D01*
X11518634Y-14594484D02*
X11499586Y-14584960D01*
X11499586Y-14584960D02*
X11490063Y-14575436D01*
X11490063Y-14575436D02*
X11480539Y-14556388D01*
X11480539Y-14556388D02*
X11471015Y-14518293D01*
X11471015Y-14518293D02*
X11471015Y-14470674D01*
X11471015Y-14470674D02*
X11480539Y-14432579D01*
X11480539Y-14432579D02*
X11490063Y-14413531D01*
X11490063Y-14413531D02*
X11499586Y-14404008D01*
X11499586Y-14404008D02*
X11518634Y-14394484D01*
X11671015Y-14575436D02*
X11680539Y-14584960D01*
X11680539Y-14584960D02*
X11671015Y-14594484D01*
X11671015Y-14594484D02*
X11661491Y-14584960D01*
X11661491Y-14584960D02*
X11671015Y-14575436D01*
X11671015Y-14575436D02*
X11671015Y-14594484D01*
X11804348Y-14394484D02*
X11823396Y-14394484D01*
X11823396Y-14394484D02*
X11842444Y-14404008D01*
X11842444Y-14404008D02*
X11851967Y-14413531D01*
X11851967Y-14413531D02*
X11861491Y-14432579D01*
X11861491Y-14432579D02*
X11871015Y-14470674D01*
X11871015Y-14470674D02*
X11871015Y-14518293D01*
X11871015Y-14518293D02*
X11861491Y-14556388D01*
X11861491Y-14556388D02*
X11851967Y-14575436D01*
X11851967Y-14575436D02*
X11842444Y-14584960D01*
X11842444Y-14584960D02*
X11823396Y-14594484D01*
X11823396Y-14594484D02*
X11804348Y-14594484D01*
X11804348Y-14594484D02*
X11785301Y-14584960D01*
X11785301Y-14584960D02*
X11775777Y-14575436D01*
X11775777Y-14575436D02*
X11766253Y-14556388D01*
X11766253Y-14556388D02*
X11756729Y-14518293D01*
X11756729Y-14518293D02*
X11756729Y-14470674D01*
X11756729Y-14470674D02*
X11766253Y-14432579D01*
X11766253Y-14432579D02*
X11775777Y-14413531D01*
X11775777Y-14413531D02*
X11785301Y-14404008D01*
X11785301Y-14404008D02*
X11804348Y-14394484D01*
X11937682Y-14394484D02*
X12061491Y-14394484D01*
X12061491Y-14394484D02*
X11994825Y-14470674D01*
X11994825Y-14470674D02*
X12023396Y-14470674D01*
X12023396Y-14470674D02*
X12042444Y-14480198D01*
X12042444Y-14480198D02*
X12051967Y-14489722D01*
X12051967Y-14489722D02*
X12061491Y-14508769D01*
X12061491Y-14508769D02*
X12061491Y-14556388D01*
X12061491Y-14556388D02*
X12051967Y-14575436D01*
X12051967Y-14575436D02*
X12042444Y-14584960D01*
X12042444Y-14584960D02*
X12023396Y-14594484D01*
X12023396Y-14594484D02*
X11966253Y-14594484D01*
X11966253Y-14594484D02*
X11947206Y-14584960D01*
X11947206Y-14584960D02*
X11937682Y-14575436D01*
X12156729Y-14594484D02*
X12194825Y-14594484D01*
X12194825Y-14594484D02*
X12213872Y-14584960D01*
X12213872Y-14584960D02*
X12223396Y-14575436D01*
X12223396Y-14575436D02*
X12242444Y-14546865D01*
X12242444Y-14546865D02*
X12251967Y-14508769D01*
X12251967Y-14508769D02*
X12251967Y-14432579D01*
X12251967Y-14432579D02*
X12242444Y-14413531D01*
X12242444Y-14413531D02*
X12232920Y-14404008D01*
X12232920Y-14404008D02*
X12213872Y-14394484D01*
X12213872Y-14394484D02*
X12175777Y-14394484D01*
X12175777Y-14394484D02*
X12156729Y-14404008D01*
X12156729Y-14404008D02*
X12147206Y-14413531D01*
X12147206Y-14413531D02*
X12137682Y-14432579D01*
X12137682Y-14432579D02*
X12137682Y-14480198D01*
X12137682Y-14480198D02*
X12147206Y-14499246D01*
X12147206Y-14499246D02*
X12156729Y-14508769D01*
X12156729Y-14508769D02*
X12175777Y-14518293D01*
X12175777Y-14518293D02*
X12213872Y-14518293D01*
X12213872Y-14518293D02*
X12232920Y-14508769D01*
X12232920Y-14508769D02*
X12242444Y-14499246D01*
X12242444Y-14499246D02*
X12251967Y-14480198D01*
X12423396Y-14461150D02*
X12423396Y-14594484D01*
X12375777Y-14384960D02*
X12328158Y-14527817D01*
X12328158Y-14527817D02*
X12451967Y-14527817D01*
X12518634Y-14394484D02*
X12518634Y-14432579D01*
X12594825Y-14394484D02*
X12594825Y-14432579D01*
X12890063Y-14670674D02*
X12880539Y-14661150D01*
X12880539Y-14661150D02*
X12861491Y-14632579D01*
X12861491Y-14632579D02*
X12851968Y-14613531D01*
X12851968Y-14613531D02*
X12842444Y-14584960D01*
X12842444Y-14584960D02*
X12832920Y-14537341D01*
X12832920Y-14537341D02*
X12832920Y-14499246D01*
X12832920Y-14499246D02*
X12842444Y-14451627D01*
X12842444Y-14451627D02*
X12851968Y-14423055D01*
X12851968Y-14423055D02*
X12861491Y-14404008D01*
X12861491Y-14404008D02*
X12880539Y-14375436D01*
X12880539Y-14375436D02*
X12890063Y-14365912D01*
X13051968Y-14461150D02*
X13051968Y-14594484D01*
X13004348Y-14384960D02*
X12956729Y-14527817D01*
X12956729Y-14527817D02*
X13080539Y-14527817D01*
X13137682Y-14394484D02*
X13271015Y-14394484D01*
X13271015Y-14394484D02*
X13185301Y-14594484D01*
X13499587Y-14594484D02*
X13499587Y-14394484D01*
X13585301Y-14594484D02*
X13585301Y-14489722D01*
X13585301Y-14489722D02*
X13575777Y-14470674D01*
X13575777Y-14470674D02*
X13556730Y-14461150D01*
X13556730Y-14461150D02*
X13528158Y-14461150D01*
X13528158Y-14461150D02*
X13509110Y-14470674D01*
X13509110Y-14470674D02*
X13499587Y-14480198D01*
X13709110Y-14594484D02*
X13690063Y-14584960D01*
X13690063Y-14584960D02*
X13680539Y-14575436D01*
X13680539Y-14575436D02*
X13671015Y-14556388D01*
X13671015Y-14556388D02*
X13671015Y-14499246D01*
X13671015Y-14499246D02*
X13680539Y-14480198D01*
X13680539Y-14480198D02*
X13690063Y-14470674D01*
X13690063Y-14470674D02*
X13709110Y-14461150D01*
X13709110Y-14461150D02*
X13737682Y-14461150D01*
X13737682Y-14461150D02*
X13756730Y-14470674D01*
X13756730Y-14470674D02*
X13766253Y-14480198D01*
X13766253Y-14480198D02*
X13775777Y-14499246D01*
X13775777Y-14499246D02*
X13775777Y-14556388D01*
X13775777Y-14556388D02*
X13766253Y-14575436D01*
X13766253Y-14575436D02*
X13756730Y-14584960D01*
X13756730Y-14584960D02*
X13737682Y-14594484D01*
X13737682Y-14594484D02*
X13709110Y-14594484D01*
X13890063Y-14594484D02*
X13871015Y-14584960D01*
X13871015Y-14584960D02*
X13861491Y-14565912D01*
X13861491Y-14565912D02*
X13861491Y-14394484D01*
X14042444Y-14584960D02*
X14023396Y-14594484D01*
X14023396Y-14594484D02*
X13985301Y-14594484D01*
X13985301Y-14594484D02*
X13966253Y-14584960D01*
X13966253Y-14584960D02*
X13956730Y-14565912D01*
X13956730Y-14565912D02*
X13956730Y-14489722D01*
X13956730Y-14489722D02*
X13966253Y-14470674D01*
X13966253Y-14470674D02*
X13985301Y-14461150D01*
X13985301Y-14461150D02*
X14023396Y-14461150D01*
X14023396Y-14461150D02*
X14042444Y-14470674D01*
X14042444Y-14470674D02*
X14051968Y-14489722D01*
X14051968Y-14489722D02*
X14051968Y-14508769D01*
X14051968Y-14508769D02*
X13956730Y-14527817D01*
X14128158Y-14584960D02*
X14147206Y-14594484D01*
X14147206Y-14594484D02*
X14185301Y-14594484D01*
X14185301Y-14594484D02*
X14204349Y-14584960D01*
X14204349Y-14584960D02*
X14213872Y-14565912D01*
X14213872Y-14565912D02*
X14213872Y-14556388D01*
X14213872Y-14556388D02*
X14204349Y-14537341D01*
X14204349Y-14537341D02*
X14185301Y-14527817D01*
X14185301Y-14527817D02*
X14156730Y-14527817D01*
X14156730Y-14527817D02*
X14137682Y-14518293D01*
X14137682Y-14518293D02*
X14128158Y-14499246D01*
X14128158Y-14499246D02*
X14128158Y-14489722D01*
X14128158Y-14489722D02*
X14137682Y-14470674D01*
X14137682Y-14470674D02*
X14156730Y-14461150D01*
X14156730Y-14461150D02*
X14185301Y-14461150D01*
X14185301Y-14461150D02*
X14204349Y-14470674D01*
X14280539Y-14670674D02*
X14290063Y-14661150D01*
X14290063Y-14661150D02*
X14309111Y-14632579D01*
X14309111Y-14632579D02*
X14318634Y-14613531D01*
X14318634Y-14613531D02*
X14328158Y-14584960D01*
X14328158Y-14584960D02*
X14337682Y-14537341D01*
X14337682Y-14537341D02*
X14337682Y-14499246D01*
X14337682Y-14499246D02*
X14328158Y-14451627D01*
X14328158Y-14451627D02*
X14318634Y-14423055D01*
X14318634Y-14423055D02*
X14309111Y-14404008D01*
X14309111Y-14404008D02*
X14290063Y-14375436D01*
X14290063Y-14375436D02*
X14280539Y-14365912D01*
D14*
X9295962Y-14812962D02*
X9295962Y-14721038D01*
X9204038Y-14721038D01*
X9204038Y-14812962D01*
X9295962Y-14812962D01*
D11*
X9680539Y-14858484D02*
X9566253Y-14858484D01*
X9623396Y-14858484D02*
X9623396Y-14658484D01*
X9623396Y-14658484D02*
X9604348Y-14687055D01*
X9604348Y-14687055D02*
X9585301Y-14706103D01*
X9585301Y-14706103D02*
X9566253Y-14715627D01*
X9766253Y-14839436D02*
X9775777Y-14848960D01*
X9775777Y-14848960D02*
X9766253Y-14858484D01*
X9766253Y-14858484D02*
X9756729Y-14848960D01*
X9756729Y-14848960D02*
X9766253Y-14839436D01*
X9766253Y-14839436D02*
X9766253Y-14858484D01*
X9842444Y-14658484D02*
X9966253Y-14658484D01*
X9966253Y-14658484D02*
X9899586Y-14734674D01*
X9899586Y-14734674D02*
X9928158Y-14734674D01*
X9928158Y-14734674D02*
X9947205Y-14744198D01*
X9947205Y-14744198D02*
X9956729Y-14753722D01*
X9956729Y-14753722D02*
X9966253Y-14772769D01*
X9966253Y-14772769D02*
X9966253Y-14820388D01*
X9966253Y-14820388D02*
X9956729Y-14839436D01*
X9956729Y-14839436D02*
X9947205Y-14848960D01*
X9947205Y-14848960D02*
X9928158Y-14858484D01*
X9928158Y-14858484D02*
X9871015Y-14858484D01*
X9871015Y-14858484D02*
X9851967Y-14848960D01*
X9851967Y-14848960D02*
X9842444Y-14839436D01*
X10090063Y-14658484D02*
X10109110Y-14658484D01*
X10109110Y-14658484D02*
X10128158Y-14668008D01*
X10128158Y-14668008D02*
X10137682Y-14677531D01*
X10137682Y-14677531D02*
X10147205Y-14696579D01*
X10147205Y-14696579D02*
X10156729Y-14734674D01*
X10156729Y-14734674D02*
X10156729Y-14782293D01*
X10156729Y-14782293D02*
X10147205Y-14820388D01*
X10147205Y-14820388D02*
X10137682Y-14839436D01*
X10137682Y-14839436D02*
X10128158Y-14848960D01*
X10128158Y-14848960D02*
X10109110Y-14858484D01*
X10109110Y-14858484D02*
X10090063Y-14858484D01*
X10090063Y-14858484D02*
X10071015Y-14848960D01*
X10071015Y-14848960D02*
X10061491Y-14839436D01*
X10061491Y-14839436D02*
X10051967Y-14820388D01*
X10051967Y-14820388D02*
X10042444Y-14782293D01*
X10042444Y-14782293D02*
X10042444Y-14734674D01*
X10042444Y-14734674D02*
X10051967Y-14696579D01*
X10051967Y-14696579D02*
X10061491Y-14677531D01*
X10061491Y-14677531D02*
X10071015Y-14668008D01*
X10071015Y-14668008D02*
X10090063Y-14658484D01*
X10280539Y-14658484D02*
X10299586Y-14658484D01*
X10299586Y-14658484D02*
X10318634Y-14668008D01*
X10318634Y-14668008D02*
X10328158Y-14677531D01*
X10328158Y-14677531D02*
X10337682Y-14696579D01*
X10337682Y-14696579D02*
X10347205Y-14734674D01*
X10347205Y-14734674D02*
X10347205Y-14782293D01*
X10347205Y-14782293D02*
X10337682Y-14820388D01*
X10337682Y-14820388D02*
X10328158Y-14839436D01*
X10328158Y-14839436D02*
X10318634Y-14848960D01*
X10318634Y-14848960D02*
X10299586Y-14858484D01*
X10299586Y-14858484D02*
X10280539Y-14858484D01*
X10280539Y-14858484D02*
X10261491Y-14848960D01*
X10261491Y-14848960D02*
X10251967Y-14839436D01*
X10251967Y-14839436D02*
X10242444Y-14820388D01*
X10242444Y-14820388D02*
X10232920Y-14782293D01*
X10232920Y-14782293D02*
X10232920Y-14734674D01*
X10232920Y-14734674D02*
X10242444Y-14696579D01*
X10242444Y-14696579D02*
X10251967Y-14677531D01*
X10251967Y-14677531D02*
X10261491Y-14668008D01*
X10261491Y-14668008D02*
X10280539Y-14658484D01*
X10432920Y-14858484D02*
X10432920Y-14725150D01*
X10432920Y-14744198D02*
X10442444Y-14734674D01*
X10442444Y-14734674D02*
X10461491Y-14725150D01*
X10461491Y-14725150D02*
X10490063Y-14725150D01*
X10490063Y-14725150D02*
X10509110Y-14734674D01*
X10509110Y-14734674D02*
X10518634Y-14753722D01*
X10518634Y-14753722D02*
X10518634Y-14858484D01*
X10518634Y-14753722D02*
X10528158Y-14734674D01*
X10528158Y-14734674D02*
X10547205Y-14725150D01*
X10547205Y-14725150D02*
X10575777Y-14725150D01*
X10575777Y-14725150D02*
X10594825Y-14734674D01*
X10594825Y-14734674D02*
X10604348Y-14753722D01*
X10604348Y-14753722D02*
X10604348Y-14858484D01*
X10699586Y-14858484D02*
X10699586Y-14725150D01*
X10699586Y-14744198D02*
X10709110Y-14734674D01*
X10709110Y-14734674D02*
X10728158Y-14725150D01*
X10728158Y-14725150D02*
X10756729Y-14725150D01*
X10756729Y-14725150D02*
X10775777Y-14734674D01*
X10775777Y-14734674D02*
X10785301Y-14753722D01*
X10785301Y-14753722D02*
X10785301Y-14858484D01*
X10785301Y-14753722D02*
X10794825Y-14734674D01*
X10794825Y-14734674D02*
X10813872Y-14725150D01*
X10813872Y-14725150D02*
X10842444Y-14725150D01*
X10842444Y-14725150D02*
X10861491Y-14734674D01*
X10861491Y-14734674D02*
X10871015Y-14753722D01*
X10871015Y-14753722D02*
X10871015Y-14858484D01*
X11261491Y-14648960D02*
X11090063Y-14906103D01*
X11518634Y-14658484D02*
X11537682Y-14658484D01*
X11537682Y-14658484D02*
X11556729Y-14668008D01*
X11556729Y-14668008D02*
X11566253Y-14677531D01*
X11566253Y-14677531D02*
X11575777Y-14696579D01*
X11575777Y-14696579D02*
X11585301Y-14734674D01*
X11585301Y-14734674D02*
X11585301Y-14782293D01*
X11585301Y-14782293D02*
X11575777Y-14820388D01*
X11575777Y-14820388D02*
X11566253Y-14839436D01*
X11566253Y-14839436D02*
X11556729Y-14848960D01*
X11556729Y-14848960D02*
X11537682Y-14858484D01*
X11537682Y-14858484D02*
X11518634Y-14858484D01*
X11518634Y-14858484D02*
X11499586Y-14848960D01*
X11499586Y-14848960D02*
X11490063Y-14839436D01*
X11490063Y-14839436D02*
X11480539Y-14820388D01*
X11480539Y-14820388D02*
X11471015Y-14782293D01*
X11471015Y-14782293D02*
X11471015Y-14734674D01*
X11471015Y-14734674D02*
X11480539Y-14696579D01*
X11480539Y-14696579D02*
X11490063Y-14677531D01*
X11490063Y-14677531D02*
X11499586Y-14668008D01*
X11499586Y-14668008D02*
X11518634Y-14658484D01*
X11671015Y-14839436D02*
X11680539Y-14848960D01*
X11680539Y-14848960D02*
X11671015Y-14858484D01*
X11671015Y-14858484D02*
X11661491Y-14848960D01*
X11661491Y-14848960D02*
X11671015Y-14839436D01*
X11671015Y-14839436D02*
X11671015Y-14858484D01*
X11804348Y-14658484D02*
X11823396Y-14658484D01*
X11823396Y-14658484D02*
X11842444Y-14668008D01*
X11842444Y-14668008D02*
X11851967Y-14677531D01*
X11851967Y-14677531D02*
X11861491Y-14696579D01*
X11861491Y-14696579D02*
X11871015Y-14734674D01*
X11871015Y-14734674D02*
X11871015Y-14782293D01*
X11871015Y-14782293D02*
X11861491Y-14820388D01*
X11861491Y-14820388D02*
X11851967Y-14839436D01*
X11851967Y-14839436D02*
X11842444Y-14848960D01*
X11842444Y-14848960D02*
X11823396Y-14858484D01*
X11823396Y-14858484D02*
X11804348Y-14858484D01*
X11804348Y-14858484D02*
X11785301Y-14848960D01*
X11785301Y-14848960D02*
X11775777Y-14839436D01*
X11775777Y-14839436D02*
X11766253Y-14820388D01*
X11766253Y-14820388D02*
X11756729Y-14782293D01*
X11756729Y-14782293D02*
X11756729Y-14734674D01*
X11756729Y-14734674D02*
X11766253Y-14696579D01*
X11766253Y-14696579D02*
X11775777Y-14677531D01*
X11775777Y-14677531D02*
X11785301Y-14668008D01*
X11785301Y-14668008D02*
X11804348Y-14658484D01*
X12051967Y-14658484D02*
X11956729Y-14658484D01*
X11956729Y-14658484D02*
X11947206Y-14753722D01*
X11947206Y-14753722D02*
X11956729Y-14744198D01*
X11956729Y-14744198D02*
X11975777Y-14734674D01*
X11975777Y-14734674D02*
X12023396Y-14734674D01*
X12023396Y-14734674D02*
X12042444Y-14744198D01*
X12042444Y-14744198D02*
X12051967Y-14753722D01*
X12051967Y-14753722D02*
X12061491Y-14772769D01*
X12061491Y-14772769D02*
X12061491Y-14820388D01*
X12061491Y-14820388D02*
X12051967Y-14839436D01*
X12051967Y-14839436D02*
X12042444Y-14848960D01*
X12042444Y-14848960D02*
X12023396Y-14858484D01*
X12023396Y-14858484D02*
X11975777Y-14858484D01*
X11975777Y-14858484D02*
X11956729Y-14848960D01*
X11956729Y-14848960D02*
X11947206Y-14839436D01*
X12251967Y-14858484D02*
X12137682Y-14858484D01*
X12194825Y-14858484D02*
X12194825Y-14658484D01*
X12194825Y-14658484D02*
X12175777Y-14687055D01*
X12175777Y-14687055D02*
X12156729Y-14706103D01*
X12156729Y-14706103D02*
X12137682Y-14715627D01*
X12328158Y-14677531D02*
X12337682Y-14668008D01*
X12337682Y-14668008D02*
X12356729Y-14658484D01*
X12356729Y-14658484D02*
X12404348Y-14658484D01*
X12404348Y-14658484D02*
X12423396Y-14668008D01*
X12423396Y-14668008D02*
X12432920Y-14677531D01*
X12432920Y-14677531D02*
X12442444Y-14696579D01*
X12442444Y-14696579D02*
X12442444Y-14715627D01*
X12442444Y-14715627D02*
X12432920Y-14744198D01*
X12432920Y-14744198D02*
X12318634Y-14858484D01*
X12318634Y-14858484D02*
X12442444Y-14858484D01*
X12518634Y-14658484D02*
X12518634Y-14696579D01*
X12594825Y-14658484D02*
X12594825Y-14696579D01*
X12890063Y-14934674D02*
X12880539Y-14925150D01*
X12880539Y-14925150D02*
X12861491Y-14896579D01*
X12861491Y-14896579D02*
X12851968Y-14877531D01*
X12851968Y-14877531D02*
X12842444Y-14848960D01*
X12842444Y-14848960D02*
X12832920Y-14801341D01*
X12832920Y-14801341D02*
X12832920Y-14763246D01*
X12832920Y-14763246D02*
X12842444Y-14715627D01*
X12842444Y-14715627D02*
X12851968Y-14687055D01*
X12851968Y-14687055D02*
X12861491Y-14668008D01*
X12861491Y-14668008D02*
X12880539Y-14639436D01*
X12880539Y-14639436D02*
X12890063Y-14629912D01*
X13071015Y-14858484D02*
X12956729Y-14858484D01*
X13013872Y-14858484D02*
X13013872Y-14658484D01*
X13013872Y-14658484D02*
X12994825Y-14687055D01*
X12994825Y-14687055D02*
X12975777Y-14706103D01*
X12975777Y-14706103D02*
X12956729Y-14715627D01*
X13194825Y-14658484D02*
X13213872Y-14658484D01*
X13213872Y-14658484D02*
X13232920Y-14668008D01*
X13232920Y-14668008D02*
X13242444Y-14677531D01*
X13242444Y-14677531D02*
X13251968Y-14696579D01*
X13251968Y-14696579D02*
X13261491Y-14734674D01*
X13261491Y-14734674D02*
X13261491Y-14782293D01*
X13261491Y-14782293D02*
X13251968Y-14820388D01*
X13251968Y-14820388D02*
X13242444Y-14839436D01*
X13242444Y-14839436D02*
X13232920Y-14848960D01*
X13232920Y-14848960D02*
X13213872Y-14858484D01*
X13213872Y-14858484D02*
X13194825Y-14858484D01*
X13194825Y-14858484D02*
X13175777Y-14848960D01*
X13175777Y-14848960D02*
X13166253Y-14839436D01*
X13166253Y-14839436D02*
X13156729Y-14820388D01*
X13156729Y-14820388D02*
X13147206Y-14782293D01*
X13147206Y-14782293D02*
X13147206Y-14734674D01*
X13147206Y-14734674D02*
X13156729Y-14696579D01*
X13156729Y-14696579D02*
X13166253Y-14677531D01*
X13166253Y-14677531D02*
X13175777Y-14668008D01*
X13175777Y-14668008D02*
X13194825Y-14658484D01*
X13499587Y-14858484D02*
X13499587Y-14658484D01*
X13585301Y-14858484D02*
X13585301Y-14753722D01*
X13585301Y-14753722D02*
X13575777Y-14734674D01*
X13575777Y-14734674D02*
X13556730Y-14725150D01*
X13556730Y-14725150D02*
X13528158Y-14725150D01*
X13528158Y-14725150D02*
X13509110Y-14734674D01*
X13509110Y-14734674D02*
X13499587Y-14744198D01*
X13709110Y-14858484D02*
X13690063Y-14848960D01*
X13690063Y-14848960D02*
X13680539Y-14839436D01*
X13680539Y-14839436D02*
X13671015Y-14820388D01*
X13671015Y-14820388D02*
X13671015Y-14763246D01*
X13671015Y-14763246D02*
X13680539Y-14744198D01*
X13680539Y-14744198D02*
X13690063Y-14734674D01*
X13690063Y-14734674D02*
X13709110Y-14725150D01*
X13709110Y-14725150D02*
X13737682Y-14725150D01*
X13737682Y-14725150D02*
X13756730Y-14734674D01*
X13756730Y-14734674D02*
X13766253Y-14744198D01*
X13766253Y-14744198D02*
X13775777Y-14763246D01*
X13775777Y-14763246D02*
X13775777Y-14820388D01*
X13775777Y-14820388D02*
X13766253Y-14839436D01*
X13766253Y-14839436D02*
X13756730Y-14848960D01*
X13756730Y-14848960D02*
X13737682Y-14858484D01*
X13737682Y-14858484D02*
X13709110Y-14858484D01*
X13890063Y-14858484D02*
X13871015Y-14848960D01*
X13871015Y-14848960D02*
X13861491Y-14829912D01*
X13861491Y-14829912D02*
X13861491Y-14658484D01*
X14042444Y-14848960D02*
X14023396Y-14858484D01*
X14023396Y-14858484D02*
X13985301Y-14858484D01*
X13985301Y-14858484D02*
X13966253Y-14848960D01*
X13966253Y-14848960D02*
X13956730Y-14829912D01*
X13956730Y-14829912D02*
X13956730Y-14753722D01*
X13956730Y-14753722D02*
X13966253Y-14734674D01*
X13966253Y-14734674D02*
X13985301Y-14725150D01*
X13985301Y-14725150D02*
X14023396Y-14725150D01*
X14023396Y-14725150D02*
X14042444Y-14734674D01*
X14042444Y-14734674D02*
X14051968Y-14753722D01*
X14051968Y-14753722D02*
X14051968Y-14772769D01*
X14051968Y-14772769D02*
X13956730Y-14791817D01*
X14128158Y-14848960D02*
X14147206Y-14858484D01*
X14147206Y-14858484D02*
X14185301Y-14858484D01*
X14185301Y-14858484D02*
X14204349Y-14848960D01*
X14204349Y-14848960D02*
X14213872Y-14829912D01*
X14213872Y-14829912D02*
X14213872Y-14820388D01*
X14213872Y-14820388D02*
X14204349Y-14801341D01*
X14204349Y-14801341D02*
X14185301Y-14791817D01*
X14185301Y-14791817D02*
X14156730Y-14791817D01*
X14156730Y-14791817D02*
X14137682Y-14782293D01*
X14137682Y-14782293D02*
X14128158Y-14763246D01*
X14128158Y-14763246D02*
X14128158Y-14753722D01*
X14128158Y-14753722D02*
X14137682Y-14734674D01*
X14137682Y-14734674D02*
X14156730Y-14725150D01*
X14156730Y-14725150D02*
X14185301Y-14725150D01*
X14185301Y-14725150D02*
X14204349Y-14734674D01*
X14280539Y-14934674D02*
X14290063Y-14925150D01*
X14290063Y-14925150D02*
X14309111Y-14896579D01*
X14309111Y-14896579D02*
X14318634Y-14877531D01*
X14318634Y-14877531D02*
X14328158Y-14848960D01*
X14328158Y-14848960D02*
X14337682Y-14801341D01*
X14337682Y-14801341D02*
X14337682Y-14763246D01*
X14337682Y-14763246D02*
X14328158Y-14715627D01*
X14328158Y-14715627D02*
X14318634Y-14687055D01*
X14318634Y-14687055D02*
X14309111Y-14668008D01*
X14309111Y-14668008D02*
X14290063Y-14639436D01*
X14290063Y-14639436D02*
X14280539Y-14629912D01*
X9215000Y-15131000D02*
X9315000Y-15031000D01*
X9215000Y-14931000D01*
X9115000Y-15031000D01*
X9215000Y-15131000D01*
X9566253Y-14941531D02*
X9575777Y-14932008D01*
X9575777Y-14932008D02*
X9594824Y-14922484D01*
X9594824Y-14922484D02*
X9642444Y-14922484D01*
X9642444Y-14922484D02*
X9661491Y-14932008D01*
X9661491Y-14932008D02*
X9671015Y-14941531D01*
X9671015Y-14941531D02*
X9680539Y-14960579D01*
X9680539Y-14960579D02*
X9680539Y-14979627D01*
X9680539Y-14979627D02*
X9671015Y-15008198D01*
X9671015Y-15008198D02*
X9556729Y-15122484D01*
X9556729Y-15122484D02*
X9680539Y-15122484D01*
X9766253Y-15103436D02*
X9775777Y-15112960D01*
X9775777Y-15112960D02*
X9766253Y-15122484D01*
X9766253Y-15122484D02*
X9756729Y-15112960D01*
X9756729Y-15112960D02*
X9766253Y-15103436D01*
X9766253Y-15103436D02*
X9766253Y-15122484D01*
X9899586Y-14922484D02*
X9918634Y-14922484D01*
X9918634Y-14922484D02*
X9937682Y-14932008D01*
X9937682Y-14932008D02*
X9947205Y-14941531D01*
X9947205Y-14941531D02*
X9956729Y-14960579D01*
X9956729Y-14960579D02*
X9966253Y-14998674D01*
X9966253Y-14998674D02*
X9966253Y-15046293D01*
X9966253Y-15046293D02*
X9956729Y-15084388D01*
X9956729Y-15084388D02*
X9947205Y-15103436D01*
X9947205Y-15103436D02*
X9937682Y-15112960D01*
X9937682Y-15112960D02*
X9918634Y-15122484D01*
X9918634Y-15122484D02*
X9899586Y-15122484D01*
X9899586Y-15122484D02*
X9880539Y-15112960D01*
X9880539Y-15112960D02*
X9871015Y-15103436D01*
X9871015Y-15103436D02*
X9861491Y-15084388D01*
X9861491Y-15084388D02*
X9851967Y-15046293D01*
X9851967Y-15046293D02*
X9851967Y-14998674D01*
X9851967Y-14998674D02*
X9861491Y-14960579D01*
X9861491Y-14960579D02*
X9871015Y-14941531D01*
X9871015Y-14941531D02*
X9880539Y-14932008D01*
X9880539Y-14932008D02*
X9899586Y-14922484D01*
X10090063Y-14922484D02*
X10109110Y-14922484D01*
X10109110Y-14922484D02*
X10128158Y-14932008D01*
X10128158Y-14932008D02*
X10137682Y-14941531D01*
X10137682Y-14941531D02*
X10147205Y-14960579D01*
X10147205Y-14960579D02*
X10156729Y-14998674D01*
X10156729Y-14998674D02*
X10156729Y-15046293D01*
X10156729Y-15046293D02*
X10147205Y-15084388D01*
X10147205Y-15084388D02*
X10137682Y-15103436D01*
X10137682Y-15103436D02*
X10128158Y-15112960D01*
X10128158Y-15112960D02*
X10109110Y-15122484D01*
X10109110Y-15122484D02*
X10090063Y-15122484D01*
X10090063Y-15122484D02*
X10071015Y-15112960D01*
X10071015Y-15112960D02*
X10061491Y-15103436D01*
X10061491Y-15103436D02*
X10051967Y-15084388D01*
X10051967Y-15084388D02*
X10042444Y-15046293D01*
X10042444Y-15046293D02*
X10042444Y-14998674D01*
X10042444Y-14998674D02*
X10051967Y-14960579D01*
X10051967Y-14960579D02*
X10061491Y-14941531D01*
X10061491Y-14941531D02*
X10071015Y-14932008D01*
X10071015Y-14932008D02*
X10090063Y-14922484D01*
X10280539Y-14922484D02*
X10299586Y-14922484D01*
X10299586Y-14922484D02*
X10318634Y-14932008D01*
X10318634Y-14932008D02*
X10328158Y-14941531D01*
X10328158Y-14941531D02*
X10337682Y-14960579D01*
X10337682Y-14960579D02*
X10347205Y-14998674D01*
X10347205Y-14998674D02*
X10347205Y-15046293D01*
X10347205Y-15046293D02*
X10337682Y-15084388D01*
X10337682Y-15084388D02*
X10328158Y-15103436D01*
X10328158Y-15103436D02*
X10318634Y-15112960D01*
X10318634Y-15112960D02*
X10299586Y-15122484D01*
X10299586Y-15122484D02*
X10280539Y-15122484D01*
X10280539Y-15122484D02*
X10261491Y-15112960D01*
X10261491Y-15112960D02*
X10251967Y-15103436D01*
X10251967Y-15103436D02*
X10242444Y-15084388D01*
X10242444Y-15084388D02*
X10232920Y-15046293D01*
X10232920Y-15046293D02*
X10232920Y-14998674D01*
X10232920Y-14998674D02*
X10242444Y-14960579D01*
X10242444Y-14960579D02*
X10251967Y-14941531D01*
X10251967Y-14941531D02*
X10261491Y-14932008D01*
X10261491Y-14932008D02*
X10280539Y-14922484D01*
X10432920Y-15122484D02*
X10432920Y-14989150D01*
X10432920Y-15008198D02*
X10442444Y-14998674D01*
X10442444Y-14998674D02*
X10461491Y-14989150D01*
X10461491Y-14989150D02*
X10490063Y-14989150D01*
X10490063Y-14989150D02*
X10509110Y-14998674D01*
X10509110Y-14998674D02*
X10518634Y-15017722D01*
X10518634Y-15017722D02*
X10518634Y-15122484D01*
X10518634Y-15017722D02*
X10528158Y-14998674D01*
X10528158Y-14998674D02*
X10547205Y-14989150D01*
X10547205Y-14989150D02*
X10575777Y-14989150D01*
X10575777Y-14989150D02*
X10594825Y-14998674D01*
X10594825Y-14998674D02*
X10604348Y-15017722D01*
X10604348Y-15017722D02*
X10604348Y-15122484D01*
X10699586Y-15122484D02*
X10699586Y-14989150D01*
X10699586Y-15008198D02*
X10709110Y-14998674D01*
X10709110Y-14998674D02*
X10728158Y-14989150D01*
X10728158Y-14989150D02*
X10756729Y-14989150D01*
X10756729Y-14989150D02*
X10775777Y-14998674D01*
X10775777Y-14998674D02*
X10785301Y-15017722D01*
X10785301Y-15017722D02*
X10785301Y-15122484D01*
X10785301Y-15017722D02*
X10794825Y-14998674D01*
X10794825Y-14998674D02*
X10813872Y-14989150D01*
X10813872Y-14989150D02*
X10842444Y-14989150D01*
X10842444Y-14989150D02*
X10861491Y-14998674D01*
X10861491Y-14998674D02*
X10871015Y-15017722D01*
X10871015Y-15017722D02*
X10871015Y-15122484D01*
X11261491Y-14912960D02*
X11090063Y-15170103D01*
X11518634Y-14922484D02*
X11537682Y-14922484D01*
X11537682Y-14922484D02*
X11556729Y-14932008D01*
X11556729Y-14932008D02*
X11566253Y-14941531D01*
X11566253Y-14941531D02*
X11575777Y-14960579D01*
X11575777Y-14960579D02*
X11585301Y-14998674D01*
X11585301Y-14998674D02*
X11585301Y-15046293D01*
X11585301Y-15046293D02*
X11575777Y-15084388D01*
X11575777Y-15084388D02*
X11566253Y-15103436D01*
X11566253Y-15103436D02*
X11556729Y-15112960D01*
X11556729Y-15112960D02*
X11537682Y-15122484D01*
X11537682Y-15122484D02*
X11518634Y-15122484D01*
X11518634Y-15122484D02*
X11499586Y-15112960D01*
X11499586Y-15112960D02*
X11490063Y-15103436D01*
X11490063Y-15103436D02*
X11480539Y-15084388D01*
X11480539Y-15084388D02*
X11471015Y-15046293D01*
X11471015Y-15046293D02*
X11471015Y-14998674D01*
X11471015Y-14998674D02*
X11480539Y-14960579D01*
X11480539Y-14960579D02*
X11490063Y-14941531D01*
X11490063Y-14941531D02*
X11499586Y-14932008D01*
X11499586Y-14932008D02*
X11518634Y-14922484D01*
X11671015Y-15103436D02*
X11680539Y-15112960D01*
X11680539Y-15112960D02*
X11671015Y-15122484D01*
X11671015Y-15122484D02*
X11661491Y-15112960D01*
X11661491Y-15112960D02*
X11671015Y-15103436D01*
X11671015Y-15103436D02*
X11671015Y-15122484D01*
X11804348Y-14922484D02*
X11823396Y-14922484D01*
X11823396Y-14922484D02*
X11842444Y-14932008D01*
X11842444Y-14932008D02*
X11851967Y-14941531D01*
X11851967Y-14941531D02*
X11861491Y-14960579D01*
X11861491Y-14960579D02*
X11871015Y-14998674D01*
X11871015Y-14998674D02*
X11871015Y-15046293D01*
X11871015Y-15046293D02*
X11861491Y-15084388D01*
X11861491Y-15084388D02*
X11851967Y-15103436D01*
X11851967Y-15103436D02*
X11842444Y-15112960D01*
X11842444Y-15112960D02*
X11823396Y-15122484D01*
X11823396Y-15122484D02*
X11804348Y-15122484D01*
X11804348Y-15122484D02*
X11785301Y-15112960D01*
X11785301Y-15112960D02*
X11775777Y-15103436D01*
X11775777Y-15103436D02*
X11766253Y-15084388D01*
X11766253Y-15084388D02*
X11756729Y-15046293D01*
X11756729Y-15046293D02*
X11756729Y-14998674D01*
X11756729Y-14998674D02*
X11766253Y-14960579D01*
X11766253Y-14960579D02*
X11775777Y-14941531D01*
X11775777Y-14941531D02*
X11785301Y-14932008D01*
X11785301Y-14932008D02*
X11804348Y-14922484D01*
X11937682Y-14922484D02*
X12071015Y-14922484D01*
X12071015Y-14922484D02*
X11985301Y-15122484D01*
X12175777Y-15008198D02*
X12156729Y-14998674D01*
X12156729Y-14998674D02*
X12147206Y-14989150D01*
X12147206Y-14989150D02*
X12137682Y-14970103D01*
X12137682Y-14970103D02*
X12137682Y-14960579D01*
X12137682Y-14960579D02*
X12147206Y-14941531D01*
X12147206Y-14941531D02*
X12156729Y-14932008D01*
X12156729Y-14932008D02*
X12175777Y-14922484D01*
X12175777Y-14922484D02*
X12213872Y-14922484D01*
X12213872Y-14922484D02*
X12232920Y-14932008D01*
X12232920Y-14932008D02*
X12242444Y-14941531D01*
X12242444Y-14941531D02*
X12251967Y-14960579D01*
X12251967Y-14960579D02*
X12251967Y-14970103D01*
X12251967Y-14970103D02*
X12242444Y-14989150D01*
X12242444Y-14989150D02*
X12232920Y-14998674D01*
X12232920Y-14998674D02*
X12213872Y-15008198D01*
X12213872Y-15008198D02*
X12175777Y-15008198D01*
X12175777Y-15008198D02*
X12156729Y-15017722D01*
X12156729Y-15017722D02*
X12147206Y-15027246D01*
X12147206Y-15027246D02*
X12137682Y-15046293D01*
X12137682Y-15046293D02*
X12137682Y-15084388D01*
X12137682Y-15084388D02*
X12147206Y-15103436D01*
X12147206Y-15103436D02*
X12156729Y-15112960D01*
X12156729Y-15112960D02*
X12175777Y-15122484D01*
X12175777Y-15122484D02*
X12213872Y-15122484D01*
X12213872Y-15122484D02*
X12232920Y-15112960D01*
X12232920Y-15112960D02*
X12242444Y-15103436D01*
X12242444Y-15103436D02*
X12251967Y-15084388D01*
X12251967Y-15084388D02*
X12251967Y-15046293D01*
X12251967Y-15046293D02*
X12242444Y-15027246D01*
X12242444Y-15027246D02*
X12232920Y-15017722D01*
X12232920Y-15017722D02*
X12213872Y-15008198D01*
X12318634Y-14922484D02*
X12451967Y-14922484D01*
X12451967Y-14922484D02*
X12366253Y-15122484D01*
X12518634Y-14922484D02*
X12518634Y-14960579D01*
X12594825Y-14922484D02*
X12594825Y-14960579D01*
X12890063Y-15198674D02*
X12880539Y-15189150D01*
X12880539Y-15189150D02*
X12861491Y-15160579D01*
X12861491Y-15160579D02*
X12851968Y-15141531D01*
X12851968Y-15141531D02*
X12842444Y-15112960D01*
X12842444Y-15112960D02*
X12832920Y-15065341D01*
X12832920Y-15065341D02*
X12832920Y-15027246D01*
X12832920Y-15027246D02*
X12842444Y-14979627D01*
X12842444Y-14979627D02*
X12851968Y-14951055D01*
X12851968Y-14951055D02*
X12861491Y-14932008D01*
X12861491Y-14932008D02*
X12880539Y-14903436D01*
X12880539Y-14903436D02*
X12890063Y-14893912D01*
X13004348Y-14922484D02*
X13023396Y-14922484D01*
X13023396Y-14922484D02*
X13042444Y-14932008D01*
X13042444Y-14932008D02*
X13051968Y-14941531D01*
X13051968Y-14941531D02*
X13061491Y-14960579D01*
X13061491Y-14960579D02*
X13071015Y-14998674D01*
X13071015Y-14998674D02*
X13071015Y-15046293D01*
X13071015Y-15046293D02*
X13061491Y-15084388D01*
X13061491Y-15084388D02*
X13051968Y-15103436D01*
X13051968Y-15103436D02*
X13042444Y-15112960D01*
X13042444Y-15112960D02*
X13023396Y-15122484D01*
X13023396Y-15122484D02*
X13004348Y-15122484D01*
X13004348Y-15122484D02*
X12985301Y-15112960D01*
X12985301Y-15112960D02*
X12975777Y-15103436D01*
X12975777Y-15103436D02*
X12966253Y-15084388D01*
X12966253Y-15084388D02*
X12956729Y-15046293D01*
X12956729Y-15046293D02*
X12956729Y-14998674D01*
X12956729Y-14998674D02*
X12966253Y-14960579D01*
X12966253Y-14960579D02*
X12975777Y-14941531D01*
X12975777Y-14941531D02*
X12985301Y-14932008D01*
X12985301Y-14932008D02*
X13004348Y-14922484D01*
X13309110Y-15122484D02*
X13309110Y-14922484D01*
X13394825Y-15122484D02*
X13394825Y-15017722D01*
X13394825Y-15017722D02*
X13385301Y-14998674D01*
X13385301Y-14998674D02*
X13366253Y-14989150D01*
X13366253Y-14989150D02*
X13337682Y-14989150D01*
X13337682Y-14989150D02*
X13318634Y-14998674D01*
X13318634Y-14998674D02*
X13309110Y-15008198D01*
X13518634Y-15122484D02*
X13499587Y-15112960D01*
X13499587Y-15112960D02*
X13490063Y-15103436D01*
X13490063Y-15103436D02*
X13480539Y-15084388D01*
X13480539Y-15084388D02*
X13480539Y-15027246D01*
X13480539Y-15027246D02*
X13490063Y-15008198D01*
X13490063Y-15008198D02*
X13499587Y-14998674D01*
X13499587Y-14998674D02*
X13518634Y-14989150D01*
X13518634Y-14989150D02*
X13547206Y-14989150D01*
X13547206Y-14989150D02*
X13566253Y-14998674D01*
X13566253Y-14998674D02*
X13575777Y-15008198D01*
X13575777Y-15008198D02*
X13585301Y-15027246D01*
X13585301Y-15027246D02*
X13585301Y-15084388D01*
X13585301Y-15084388D02*
X13575777Y-15103436D01*
X13575777Y-15103436D02*
X13566253Y-15112960D01*
X13566253Y-15112960D02*
X13547206Y-15122484D01*
X13547206Y-15122484D02*
X13518634Y-15122484D01*
X13699587Y-15122484D02*
X13680539Y-15112960D01*
X13680539Y-15112960D02*
X13671015Y-15093912D01*
X13671015Y-15093912D02*
X13671015Y-14922484D01*
X13851968Y-15112960D02*
X13832920Y-15122484D01*
X13832920Y-15122484D02*
X13794825Y-15122484D01*
X13794825Y-15122484D02*
X13775777Y-15112960D01*
X13775777Y-15112960D02*
X13766253Y-15093912D01*
X13766253Y-15093912D02*
X13766253Y-15017722D01*
X13766253Y-15017722D02*
X13775777Y-14998674D01*
X13775777Y-14998674D02*
X13794825Y-14989150D01*
X13794825Y-14989150D02*
X13832920Y-14989150D01*
X13832920Y-14989150D02*
X13851968Y-14998674D01*
X13851968Y-14998674D02*
X13861491Y-15017722D01*
X13861491Y-15017722D02*
X13861491Y-15036769D01*
X13861491Y-15036769D02*
X13766253Y-15055817D01*
X13937682Y-15112960D02*
X13956730Y-15122484D01*
X13956730Y-15122484D02*
X13994825Y-15122484D01*
X13994825Y-15122484D02*
X14013872Y-15112960D01*
X14013872Y-15112960D02*
X14023396Y-15093912D01*
X14023396Y-15093912D02*
X14023396Y-15084388D01*
X14023396Y-15084388D02*
X14013872Y-15065341D01*
X14013872Y-15065341D02*
X13994825Y-15055817D01*
X13994825Y-15055817D02*
X13966253Y-15055817D01*
X13966253Y-15055817D02*
X13947206Y-15046293D01*
X13947206Y-15046293D02*
X13937682Y-15027246D01*
X13937682Y-15027246D02*
X13937682Y-15017722D01*
X13937682Y-15017722D02*
X13947206Y-14998674D01*
X13947206Y-14998674D02*
X13966253Y-14989150D01*
X13966253Y-14989150D02*
X13994825Y-14989150D01*
X13994825Y-14989150D02*
X14013872Y-14998674D01*
X14261492Y-15046293D02*
X14413873Y-15046293D01*
X14337682Y-15122484D02*
X14337682Y-14970103D01*
X14651968Y-14941531D02*
X14661492Y-14932008D01*
X14661492Y-14932008D02*
X14680539Y-14922484D01*
X14680539Y-14922484D02*
X14728158Y-14922484D01*
X14728158Y-14922484D02*
X14747206Y-14932008D01*
X14747206Y-14932008D02*
X14756730Y-14941531D01*
X14756730Y-14941531D02*
X14766253Y-14960579D01*
X14766253Y-14960579D02*
X14766253Y-14979627D01*
X14766253Y-14979627D02*
X14756730Y-15008198D01*
X14756730Y-15008198D02*
X14642444Y-15122484D01*
X14642444Y-15122484D02*
X14766253Y-15122484D01*
X14994825Y-15112960D02*
X15013873Y-15122484D01*
X15013873Y-15122484D02*
X15051968Y-15122484D01*
X15051968Y-15122484D02*
X15071015Y-15112960D01*
X15071015Y-15112960D02*
X15080539Y-15093912D01*
X15080539Y-15093912D02*
X15080539Y-15084388D01*
X15080539Y-15084388D02*
X15071015Y-15065341D01*
X15071015Y-15065341D02*
X15051968Y-15055817D01*
X15051968Y-15055817D02*
X15023396Y-15055817D01*
X15023396Y-15055817D02*
X15004349Y-15046293D01*
X15004349Y-15046293D02*
X14994825Y-15027246D01*
X14994825Y-15027246D02*
X14994825Y-15017722D01*
X14994825Y-15017722D02*
X15004349Y-14998674D01*
X15004349Y-14998674D02*
X15023396Y-14989150D01*
X15023396Y-14989150D02*
X15051968Y-14989150D01*
X15051968Y-14989150D02*
X15071015Y-14998674D01*
X15194825Y-15122484D02*
X15175777Y-15112960D01*
X15175777Y-15112960D02*
X15166254Y-15093912D01*
X15166254Y-15093912D02*
X15166254Y-14922484D01*
X15299587Y-15122484D02*
X15280539Y-15112960D01*
X15280539Y-15112960D02*
X15271015Y-15103436D01*
X15271015Y-15103436D02*
X15261492Y-15084388D01*
X15261492Y-15084388D02*
X15261492Y-15027246D01*
X15261492Y-15027246D02*
X15271015Y-15008198D01*
X15271015Y-15008198D02*
X15280539Y-14998674D01*
X15280539Y-14998674D02*
X15299587Y-14989150D01*
X15299587Y-14989150D02*
X15328158Y-14989150D01*
X15328158Y-14989150D02*
X15347206Y-14998674D01*
X15347206Y-14998674D02*
X15356730Y-15008198D01*
X15356730Y-15008198D02*
X15366254Y-15027246D01*
X15366254Y-15027246D02*
X15366254Y-15084388D01*
X15366254Y-15084388D02*
X15356730Y-15103436D01*
X15356730Y-15103436D02*
X15347206Y-15112960D01*
X15347206Y-15112960D02*
X15328158Y-15122484D01*
X15328158Y-15122484D02*
X15299587Y-15122484D01*
X15423396Y-14989150D02*
X15499587Y-14989150D01*
X15451968Y-14922484D02*
X15451968Y-15093912D01*
X15451968Y-15093912D02*
X15461492Y-15112960D01*
X15461492Y-15112960D02*
X15480539Y-15122484D01*
X15480539Y-15122484D02*
X15499587Y-15122484D01*
X15556730Y-15112960D02*
X15575777Y-15122484D01*
X15575777Y-15122484D02*
X15613873Y-15122484D01*
X15613873Y-15122484D02*
X15632920Y-15112960D01*
X15632920Y-15112960D02*
X15642444Y-15093912D01*
X15642444Y-15093912D02*
X15642444Y-15084388D01*
X15642444Y-15084388D02*
X15632920Y-15065341D01*
X15632920Y-15065341D02*
X15613873Y-15055817D01*
X15613873Y-15055817D02*
X15585301Y-15055817D01*
X15585301Y-15055817D02*
X15566254Y-15046293D01*
X15566254Y-15046293D02*
X15556730Y-15027246D01*
X15556730Y-15027246D02*
X15556730Y-15017722D01*
X15556730Y-15017722D02*
X15566254Y-14998674D01*
X15566254Y-14998674D02*
X15585301Y-14989150D01*
X15585301Y-14989150D02*
X15613873Y-14989150D01*
X15613873Y-14989150D02*
X15632920Y-14998674D01*
X15709111Y-15198674D02*
X15718635Y-15189150D01*
X15718635Y-15189150D02*
X15737682Y-15160579D01*
X15737682Y-15160579D02*
X15747206Y-15141531D01*
X15747206Y-15141531D02*
X15756730Y-15112960D01*
X15756730Y-15112960D02*
X15766254Y-15065341D01*
X15766254Y-15065341D02*
X15766254Y-15027246D01*
X15766254Y-15027246D02*
X15756730Y-14979627D01*
X15756730Y-14979627D02*
X15747206Y-14951055D01*
X15747206Y-14951055D02*
X15737682Y-14932008D01*
X15737682Y-14932008D02*
X15718635Y-14903436D01*
X15718635Y-14903436D02*
X15709111Y-14893912D01*
X9115000Y-15251000D02*
X9315000Y-15451000D01*
X9315000Y-15251000D02*
X9115000Y-15451000D01*
X9315000Y-15351000D02*
G75*
G03*
X9315000Y-15351000I-100000J0D01*
G01*
X9566253Y-15261531D02*
X9575777Y-15252008D01*
X9575777Y-15252008D02*
X9594824Y-15242484D01*
X9594824Y-15242484D02*
X9642444Y-15242484D01*
X9642444Y-15242484D02*
X9661491Y-15252008D01*
X9661491Y-15252008D02*
X9671015Y-15261531D01*
X9671015Y-15261531D02*
X9680539Y-15280579D01*
X9680539Y-15280579D02*
X9680539Y-15299627D01*
X9680539Y-15299627D02*
X9671015Y-15328198D01*
X9671015Y-15328198D02*
X9556729Y-15442484D01*
X9556729Y-15442484D02*
X9680539Y-15442484D01*
X9766253Y-15423436D02*
X9775777Y-15432960D01*
X9775777Y-15432960D02*
X9766253Y-15442484D01*
X9766253Y-15442484D02*
X9756729Y-15432960D01*
X9756729Y-15432960D02*
X9766253Y-15423436D01*
X9766253Y-15423436D02*
X9766253Y-15442484D01*
X9956729Y-15242484D02*
X9861491Y-15242484D01*
X9861491Y-15242484D02*
X9851967Y-15337722D01*
X9851967Y-15337722D02*
X9861491Y-15328198D01*
X9861491Y-15328198D02*
X9880539Y-15318674D01*
X9880539Y-15318674D02*
X9928158Y-15318674D01*
X9928158Y-15318674D02*
X9947205Y-15328198D01*
X9947205Y-15328198D02*
X9956729Y-15337722D01*
X9956729Y-15337722D02*
X9966253Y-15356769D01*
X9966253Y-15356769D02*
X9966253Y-15404388D01*
X9966253Y-15404388D02*
X9956729Y-15423436D01*
X9956729Y-15423436D02*
X9947205Y-15432960D01*
X9947205Y-15432960D02*
X9928158Y-15442484D01*
X9928158Y-15442484D02*
X9880539Y-15442484D01*
X9880539Y-15442484D02*
X9861491Y-15432960D01*
X9861491Y-15432960D02*
X9851967Y-15423436D01*
X10090063Y-15242484D02*
X10109110Y-15242484D01*
X10109110Y-15242484D02*
X10128158Y-15252008D01*
X10128158Y-15252008D02*
X10137682Y-15261531D01*
X10137682Y-15261531D02*
X10147205Y-15280579D01*
X10147205Y-15280579D02*
X10156729Y-15318674D01*
X10156729Y-15318674D02*
X10156729Y-15366293D01*
X10156729Y-15366293D02*
X10147205Y-15404388D01*
X10147205Y-15404388D02*
X10137682Y-15423436D01*
X10137682Y-15423436D02*
X10128158Y-15432960D01*
X10128158Y-15432960D02*
X10109110Y-15442484D01*
X10109110Y-15442484D02*
X10090063Y-15442484D01*
X10090063Y-15442484D02*
X10071015Y-15432960D01*
X10071015Y-15432960D02*
X10061491Y-15423436D01*
X10061491Y-15423436D02*
X10051967Y-15404388D01*
X10051967Y-15404388D02*
X10042444Y-15366293D01*
X10042444Y-15366293D02*
X10042444Y-15318674D01*
X10042444Y-15318674D02*
X10051967Y-15280579D01*
X10051967Y-15280579D02*
X10061491Y-15261531D01*
X10061491Y-15261531D02*
X10071015Y-15252008D01*
X10071015Y-15252008D02*
X10090063Y-15242484D01*
X10280539Y-15242484D02*
X10299586Y-15242484D01*
X10299586Y-15242484D02*
X10318634Y-15252008D01*
X10318634Y-15252008D02*
X10328158Y-15261531D01*
X10328158Y-15261531D02*
X10337682Y-15280579D01*
X10337682Y-15280579D02*
X10347205Y-15318674D01*
X10347205Y-15318674D02*
X10347205Y-15366293D01*
X10347205Y-15366293D02*
X10337682Y-15404388D01*
X10337682Y-15404388D02*
X10328158Y-15423436D01*
X10328158Y-15423436D02*
X10318634Y-15432960D01*
X10318634Y-15432960D02*
X10299586Y-15442484D01*
X10299586Y-15442484D02*
X10280539Y-15442484D01*
X10280539Y-15442484D02*
X10261491Y-15432960D01*
X10261491Y-15432960D02*
X10251967Y-15423436D01*
X10251967Y-15423436D02*
X10242444Y-15404388D01*
X10242444Y-15404388D02*
X10232920Y-15366293D01*
X10232920Y-15366293D02*
X10232920Y-15318674D01*
X10232920Y-15318674D02*
X10242444Y-15280579D01*
X10242444Y-15280579D02*
X10251967Y-15261531D01*
X10251967Y-15261531D02*
X10261491Y-15252008D01*
X10261491Y-15252008D02*
X10280539Y-15242484D01*
X10432920Y-15442484D02*
X10432920Y-15309150D01*
X10432920Y-15328198D02*
X10442444Y-15318674D01*
X10442444Y-15318674D02*
X10461491Y-15309150D01*
X10461491Y-15309150D02*
X10490063Y-15309150D01*
X10490063Y-15309150D02*
X10509110Y-15318674D01*
X10509110Y-15318674D02*
X10518634Y-15337722D01*
X10518634Y-15337722D02*
X10518634Y-15442484D01*
X10518634Y-15337722D02*
X10528158Y-15318674D01*
X10528158Y-15318674D02*
X10547205Y-15309150D01*
X10547205Y-15309150D02*
X10575777Y-15309150D01*
X10575777Y-15309150D02*
X10594825Y-15318674D01*
X10594825Y-15318674D02*
X10604348Y-15337722D01*
X10604348Y-15337722D02*
X10604348Y-15442484D01*
X10699586Y-15442484D02*
X10699586Y-15309150D01*
X10699586Y-15328198D02*
X10709110Y-15318674D01*
X10709110Y-15318674D02*
X10728158Y-15309150D01*
X10728158Y-15309150D02*
X10756729Y-15309150D01*
X10756729Y-15309150D02*
X10775777Y-15318674D01*
X10775777Y-15318674D02*
X10785301Y-15337722D01*
X10785301Y-15337722D02*
X10785301Y-15442484D01*
X10785301Y-15337722D02*
X10794825Y-15318674D01*
X10794825Y-15318674D02*
X10813872Y-15309150D01*
X10813872Y-15309150D02*
X10842444Y-15309150D01*
X10842444Y-15309150D02*
X10861491Y-15318674D01*
X10861491Y-15318674D02*
X10871015Y-15337722D01*
X10871015Y-15337722D02*
X10871015Y-15442484D01*
X11261491Y-15232960D02*
X11090063Y-15490103D01*
X11518634Y-15242484D02*
X11537682Y-15242484D01*
X11537682Y-15242484D02*
X11556729Y-15252008D01*
X11556729Y-15252008D02*
X11566253Y-15261531D01*
X11566253Y-15261531D02*
X11575777Y-15280579D01*
X11575777Y-15280579D02*
X11585301Y-15318674D01*
X11585301Y-15318674D02*
X11585301Y-15366293D01*
X11585301Y-15366293D02*
X11575777Y-15404388D01*
X11575777Y-15404388D02*
X11566253Y-15423436D01*
X11566253Y-15423436D02*
X11556729Y-15432960D01*
X11556729Y-15432960D02*
X11537682Y-15442484D01*
X11537682Y-15442484D02*
X11518634Y-15442484D01*
X11518634Y-15442484D02*
X11499586Y-15432960D01*
X11499586Y-15432960D02*
X11490063Y-15423436D01*
X11490063Y-15423436D02*
X11480539Y-15404388D01*
X11480539Y-15404388D02*
X11471015Y-15366293D01*
X11471015Y-15366293D02*
X11471015Y-15318674D01*
X11471015Y-15318674D02*
X11480539Y-15280579D01*
X11480539Y-15280579D02*
X11490063Y-15261531D01*
X11490063Y-15261531D02*
X11499586Y-15252008D01*
X11499586Y-15252008D02*
X11518634Y-15242484D01*
X11671015Y-15423436D02*
X11680539Y-15432960D01*
X11680539Y-15432960D02*
X11671015Y-15442484D01*
X11671015Y-15442484D02*
X11661491Y-15432960D01*
X11661491Y-15432960D02*
X11671015Y-15423436D01*
X11671015Y-15423436D02*
X11671015Y-15442484D01*
X11804348Y-15242484D02*
X11823396Y-15242484D01*
X11823396Y-15242484D02*
X11842444Y-15252008D01*
X11842444Y-15252008D02*
X11851967Y-15261531D01*
X11851967Y-15261531D02*
X11861491Y-15280579D01*
X11861491Y-15280579D02*
X11871015Y-15318674D01*
X11871015Y-15318674D02*
X11871015Y-15366293D01*
X11871015Y-15366293D02*
X11861491Y-15404388D01*
X11861491Y-15404388D02*
X11851967Y-15423436D01*
X11851967Y-15423436D02*
X11842444Y-15432960D01*
X11842444Y-15432960D02*
X11823396Y-15442484D01*
X11823396Y-15442484D02*
X11804348Y-15442484D01*
X11804348Y-15442484D02*
X11785301Y-15432960D01*
X11785301Y-15432960D02*
X11775777Y-15423436D01*
X11775777Y-15423436D02*
X11766253Y-15404388D01*
X11766253Y-15404388D02*
X11756729Y-15366293D01*
X11756729Y-15366293D02*
X11756729Y-15318674D01*
X11756729Y-15318674D02*
X11766253Y-15280579D01*
X11766253Y-15280579D02*
X11775777Y-15261531D01*
X11775777Y-15261531D02*
X11785301Y-15252008D01*
X11785301Y-15252008D02*
X11804348Y-15242484D01*
X11966253Y-15442484D02*
X12004348Y-15442484D01*
X12004348Y-15442484D02*
X12023396Y-15432960D01*
X12023396Y-15432960D02*
X12032920Y-15423436D01*
X12032920Y-15423436D02*
X12051967Y-15394865D01*
X12051967Y-15394865D02*
X12061491Y-15356769D01*
X12061491Y-15356769D02*
X12061491Y-15280579D01*
X12061491Y-15280579D02*
X12051967Y-15261531D01*
X12051967Y-15261531D02*
X12042444Y-15252008D01*
X12042444Y-15252008D02*
X12023396Y-15242484D01*
X12023396Y-15242484D02*
X11985301Y-15242484D01*
X11985301Y-15242484D02*
X11966253Y-15252008D01*
X11966253Y-15252008D02*
X11956729Y-15261531D01*
X11956729Y-15261531D02*
X11947206Y-15280579D01*
X11947206Y-15280579D02*
X11947206Y-15328198D01*
X11947206Y-15328198D02*
X11956729Y-15347246D01*
X11956729Y-15347246D02*
X11966253Y-15356769D01*
X11966253Y-15356769D02*
X11985301Y-15366293D01*
X11985301Y-15366293D02*
X12023396Y-15366293D01*
X12023396Y-15366293D02*
X12042444Y-15356769D01*
X12042444Y-15356769D02*
X12051967Y-15347246D01*
X12051967Y-15347246D02*
X12061491Y-15328198D01*
X12175777Y-15328198D02*
X12156729Y-15318674D01*
X12156729Y-15318674D02*
X12147206Y-15309150D01*
X12147206Y-15309150D02*
X12137682Y-15290103D01*
X12137682Y-15290103D02*
X12137682Y-15280579D01*
X12137682Y-15280579D02*
X12147206Y-15261531D01*
X12147206Y-15261531D02*
X12156729Y-15252008D01*
X12156729Y-15252008D02*
X12175777Y-15242484D01*
X12175777Y-15242484D02*
X12213872Y-15242484D01*
X12213872Y-15242484D02*
X12232920Y-15252008D01*
X12232920Y-15252008D02*
X12242444Y-15261531D01*
X12242444Y-15261531D02*
X12251967Y-15280579D01*
X12251967Y-15280579D02*
X12251967Y-15290103D01*
X12251967Y-15290103D02*
X12242444Y-15309150D01*
X12242444Y-15309150D02*
X12232920Y-15318674D01*
X12232920Y-15318674D02*
X12213872Y-15328198D01*
X12213872Y-15328198D02*
X12175777Y-15328198D01*
X12175777Y-15328198D02*
X12156729Y-15337722D01*
X12156729Y-15337722D02*
X12147206Y-15347246D01*
X12147206Y-15347246D02*
X12137682Y-15366293D01*
X12137682Y-15366293D02*
X12137682Y-15404388D01*
X12137682Y-15404388D02*
X12147206Y-15423436D01*
X12147206Y-15423436D02*
X12156729Y-15432960D01*
X12156729Y-15432960D02*
X12175777Y-15442484D01*
X12175777Y-15442484D02*
X12213872Y-15442484D01*
X12213872Y-15442484D02*
X12232920Y-15432960D01*
X12232920Y-15432960D02*
X12242444Y-15423436D01*
X12242444Y-15423436D02*
X12251967Y-15404388D01*
X12251967Y-15404388D02*
X12251967Y-15366293D01*
X12251967Y-15366293D02*
X12242444Y-15347246D01*
X12242444Y-15347246D02*
X12232920Y-15337722D01*
X12232920Y-15337722D02*
X12213872Y-15328198D01*
X12423396Y-15309150D02*
X12423396Y-15442484D01*
X12375777Y-15232960D02*
X12328158Y-15375817D01*
X12328158Y-15375817D02*
X12451967Y-15375817D01*
X12518634Y-15242484D02*
X12518634Y-15280579D01*
X12594825Y-15242484D02*
X12594825Y-15280579D01*
X12890063Y-15518674D02*
X12880539Y-15509150D01*
X12880539Y-15509150D02*
X12861491Y-15480579D01*
X12861491Y-15480579D02*
X12851968Y-15461531D01*
X12851968Y-15461531D02*
X12842444Y-15432960D01*
X12842444Y-15432960D02*
X12832920Y-15385341D01*
X12832920Y-15385341D02*
X12832920Y-15347246D01*
X12832920Y-15347246D02*
X12842444Y-15299627D01*
X12842444Y-15299627D02*
X12851968Y-15271055D01*
X12851968Y-15271055D02*
X12861491Y-15252008D01*
X12861491Y-15252008D02*
X12880539Y-15223436D01*
X12880539Y-15223436D02*
X12890063Y-15213912D01*
X13051968Y-15309150D02*
X13051968Y-15442484D01*
X13004348Y-15232960D02*
X12956729Y-15375817D01*
X12956729Y-15375817D02*
X13080539Y-15375817D01*
X13309110Y-15442484D02*
X13309110Y-15242484D01*
X13394825Y-15442484D02*
X13394825Y-15337722D01*
X13394825Y-15337722D02*
X13385301Y-15318674D01*
X13385301Y-15318674D02*
X13366253Y-15309150D01*
X13366253Y-15309150D02*
X13337682Y-15309150D01*
X13337682Y-15309150D02*
X13318634Y-15318674D01*
X13318634Y-15318674D02*
X13309110Y-15328198D01*
X13518634Y-15442484D02*
X13499587Y-15432960D01*
X13499587Y-15432960D02*
X13490063Y-15423436D01*
X13490063Y-15423436D02*
X13480539Y-15404388D01*
X13480539Y-15404388D02*
X13480539Y-15347246D01*
X13480539Y-15347246D02*
X13490063Y-15328198D01*
X13490063Y-15328198D02*
X13499587Y-15318674D01*
X13499587Y-15318674D02*
X13518634Y-15309150D01*
X13518634Y-15309150D02*
X13547206Y-15309150D01*
X13547206Y-15309150D02*
X13566253Y-15318674D01*
X13566253Y-15318674D02*
X13575777Y-15328198D01*
X13575777Y-15328198D02*
X13585301Y-15347246D01*
X13585301Y-15347246D02*
X13585301Y-15404388D01*
X13585301Y-15404388D02*
X13575777Y-15423436D01*
X13575777Y-15423436D02*
X13566253Y-15432960D01*
X13566253Y-15432960D02*
X13547206Y-15442484D01*
X13547206Y-15442484D02*
X13518634Y-15442484D01*
X13699587Y-15442484D02*
X13680539Y-15432960D01*
X13680539Y-15432960D02*
X13671015Y-15413912D01*
X13671015Y-15413912D02*
X13671015Y-15242484D01*
X13851968Y-15432960D02*
X13832920Y-15442484D01*
X13832920Y-15442484D02*
X13794825Y-15442484D01*
X13794825Y-15442484D02*
X13775777Y-15432960D01*
X13775777Y-15432960D02*
X13766253Y-15413912D01*
X13766253Y-15413912D02*
X13766253Y-15337722D01*
X13766253Y-15337722D02*
X13775777Y-15318674D01*
X13775777Y-15318674D02*
X13794825Y-15309150D01*
X13794825Y-15309150D02*
X13832920Y-15309150D01*
X13832920Y-15309150D02*
X13851968Y-15318674D01*
X13851968Y-15318674D02*
X13861491Y-15337722D01*
X13861491Y-15337722D02*
X13861491Y-15356769D01*
X13861491Y-15356769D02*
X13766253Y-15375817D01*
X13937682Y-15432960D02*
X13956730Y-15442484D01*
X13956730Y-15442484D02*
X13994825Y-15442484D01*
X13994825Y-15442484D02*
X14013872Y-15432960D01*
X14013872Y-15432960D02*
X14023396Y-15413912D01*
X14023396Y-15413912D02*
X14023396Y-15404388D01*
X14023396Y-15404388D02*
X14013872Y-15385341D01*
X14013872Y-15385341D02*
X13994825Y-15375817D01*
X13994825Y-15375817D02*
X13966253Y-15375817D01*
X13966253Y-15375817D02*
X13947206Y-15366293D01*
X13947206Y-15366293D02*
X13937682Y-15347246D01*
X13937682Y-15347246D02*
X13937682Y-15337722D01*
X13937682Y-15337722D02*
X13947206Y-15318674D01*
X13947206Y-15318674D02*
X13966253Y-15309150D01*
X13966253Y-15309150D02*
X13994825Y-15309150D01*
X13994825Y-15309150D02*
X14013872Y-15318674D01*
X14261492Y-15366293D02*
X14413873Y-15366293D01*
X14337682Y-15442484D02*
X14337682Y-15290103D01*
X14766253Y-15442484D02*
X14651968Y-15442484D01*
X14709111Y-15442484D02*
X14709111Y-15242484D01*
X14709111Y-15242484D02*
X14690063Y-15271055D01*
X14690063Y-15271055D02*
X14671015Y-15290103D01*
X14671015Y-15290103D02*
X14651968Y-15299627D01*
X14994825Y-15432960D02*
X15013873Y-15442484D01*
X15013873Y-15442484D02*
X15051968Y-15442484D01*
X15051968Y-15442484D02*
X15071015Y-15432960D01*
X15071015Y-15432960D02*
X15080539Y-15413912D01*
X15080539Y-15413912D02*
X15080539Y-15404388D01*
X15080539Y-15404388D02*
X15071015Y-15385341D01*
X15071015Y-15385341D02*
X15051968Y-15375817D01*
X15051968Y-15375817D02*
X15023396Y-15375817D01*
X15023396Y-15375817D02*
X15004349Y-15366293D01*
X15004349Y-15366293D02*
X14994825Y-15347246D01*
X14994825Y-15347246D02*
X14994825Y-15337722D01*
X14994825Y-15337722D02*
X15004349Y-15318674D01*
X15004349Y-15318674D02*
X15023396Y-15309150D01*
X15023396Y-15309150D02*
X15051968Y-15309150D01*
X15051968Y-15309150D02*
X15071015Y-15318674D01*
X15194825Y-15442484D02*
X15175777Y-15432960D01*
X15175777Y-15432960D02*
X15166254Y-15413912D01*
X15166254Y-15413912D02*
X15166254Y-15242484D01*
X15299587Y-15442484D02*
X15280539Y-15432960D01*
X15280539Y-15432960D02*
X15271015Y-15423436D01*
X15271015Y-15423436D02*
X15261492Y-15404388D01*
X15261492Y-15404388D02*
X15261492Y-15347246D01*
X15261492Y-15347246D02*
X15271015Y-15328198D01*
X15271015Y-15328198D02*
X15280539Y-15318674D01*
X15280539Y-15318674D02*
X15299587Y-15309150D01*
X15299587Y-15309150D02*
X15328158Y-15309150D01*
X15328158Y-15309150D02*
X15347206Y-15318674D01*
X15347206Y-15318674D02*
X15356730Y-15328198D01*
X15356730Y-15328198D02*
X15366254Y-15347246D01*
X15366254Y-15347246D02*
X15366254Y-15404388D01*
X15366254Y-15404388D02*
X15356730Y-15423436D01*
X15356730Y-15423436D02*
X15347206Y-15432960D01*
X15347206Y-15432960D02*
X15328158Y-15442484D01*
X15328158Y-15442484D02*
X15299587Y-15442484D01*
X15423396Y-15309150D02*
X15499587Y-15309150D01*
X15451968Y-15242484D02*
X15451968Y-15413912D01*
X15451968Y-15413912D02*
X15461492Y-15432960D01*
X15461492Y-15432960D02*
X15480539Y-15442484D01*
X15480539Y-15442484D02*
X15499587Y-15442484D01*
X15547206Y-15518674D02*
X15556730Y-15509150D01*
X15556730Y-15509150D02*
X15575777Y-15480579D01*
X15575777Y-15480579D02*
X15585301Y-15461531D01*
X15585301Y-15461531D02*
X15594825Y-15432960D01*
X15594825Y-15432960D02*
X15604349Y-15385341D01*
X15604349Y-15385341D02*
X15604349Y-15347246D01*
X15604349Y-15347246D02*
X15594825Y-15299627D01*
X15594825Y-15299627D02*
X15585301Y-15271055D01*
X15585301Y-15271055D02*
X15575777Y-15252008D01*
X15575777Y-15252008D02*
X15556730Y-15223436D01*
X15556730Y-15223436D02*
X15547206Y-15213912D01*
X9115000Y-15571000D02*
X9315000Y-15771000D01*
X9315000Y-15571000D02*
X9115000Y-15771000D01*
X9215000Y-15571000D02*
X9215000Y-15771000D01*
X9115000Y-15671000D02*
X9315000Y-15671000D01*
X9566253Y-15581531D02*
X9575777Y-15572008D01*
X9575777Y-15572008D02*
X9594824Y-15562484D01*
X9594824Y-15562484D02*
X9642444Y-15562484D01*
X9642444Y-15562484D02*
X9661491Y-15572008D01*
X9661491Y-15572008D02*
X9671015Y-15581531D01*
X9671015Y-15581531D02*
X9680539Y-15600579D01*
X9680539Y-15600579D02*
X9680539Y-15619627D01*
X9680539Y-15619627D02*
X9671015Y-15648198D01*
X9671015Y-15648198D02*
X9556729Y-15762484D01*
X9556729Y-15762484D02*
X9680539Y-15762484D01*
X9766253Y-15743436D02*
X9775777Y-15752960D01*
X9775777Y-15752960D02*
X9766253Y-15762484D01*
X9766253Y-15762484D02*
X9756729Y-15752960D01*
X9756729Y-15752960D02*
X9766253Y-15743436D01*
X9766253Y-15743436D02*
X9766253Y-15762484D01*
X9842444Y-15562484D02*
X9975777Y-15562484D01*
X9975777Y-15562484D02*
X9890063Y-15762484D01*
X10090063Y-15562484D02*
X10109110Y-15562484D01*
X10109110Y-15562484D02*
X10128158Y-15572008D01*
X10128158Y-15572008D02*
X10137682Y-15581531D01*
X10137682Y-15581531D02*
X10147205Y-15600579D01*
X10147205Y-15600579D02*
X10156729Y-15638674D01*
X10156729Y-15638674D02*
X10156729Y-15686293D01*
X10156729Y-15686293D02*
X10147205Y-15724388D01*
X10147205Y-15724388D02*
X10137682Y-15743436D01*
X10137682Y-15743436D02*
X10128158Y-15752960D01*
X10128158Y-15752960D02*
X10109110Y-15762484D01*
X10109110Y-15762484D02*
X10090063Y-15762484D01*
X10090063Y-15762484D02*
X10071015Y-15752960D01*
X10071015Y-15752960D02*
X10061491Y-15743436D01*
X10061491Y-15743436D02*
X10051967Y-15724388D01*
X10051967Y-15724388D02*
X10042444Y-15686293D01*
X10042444Y-15686293D02*
X10042444Y-15638674D01*
X10042444Y-15638674D02*
X10051967Y-15600579D01*
X10051967Y-15600579D02*
X10061491Y-15581531D01*
X10061491Y-15581531D02*
X10071015Y-15572008D01*
X10071015Y-15572008D02*
X10090063Y-15562484D01*
X10280539Y-15562484D02*
X10299586Y-15562484D01*
X10299586Y-15562484D02*
X10318634Y-15572008D01*
X10318634Y-15572008D02*
X10328158Y-15581531D01*
X10328158Y-15581531D02*
X10337682Y-15600579D01*
X10337682Y-15600579D02*
X10347205Y-15638674D01*
X10347205Y-15638674D02*
X10347205Y-15686293D01*
X10347205Y-15686293D02*
X10337682Y-15724388D01*
X10337682Y-15724388D02*
X10328158Y-15743436D01*
X10328158Y-15743436D02*
X10318634Y-15752960D01*
X10318634Y-15752960D02*
X10299586Y-15762484D01*
X10299586Y-15762484D02*
X10280539Y-15762484D01*
X10280539Y-15762484D02*
X10261491Y-15752960D01*
X10261491Y-15752960D02*
X10251967Y-15743436D01*
X10251967Y-15743436D02*
X10242444Y-15724388D01*
X10242444Y-15724388D02*
X10232920Y-15686293D01*
X10232920Y-15686293D02*
X10232920Y-15638674D01*
X10232920Y-15638674D02*
X10242444Y-15600579D01*
X10242444Y-15600579D02*
X10251967Y-15581531D01*
X10251967Y-15581531D02*
X10261491Y-15572008D01*
X10261491Y-15572008D02*
X10280539Y-15562484D01*
X10432920Y-15762484D02*
X10432920Y-15629150D01*
X10432920Y-15648198D02*
X10442444Y-15638674D01*
X10442444Y-15638674D02*
X10461491Y-15629150D01*
X10461491Y-15629150D02*
X10490063Y-15629150D01*
X10490063Y-15629150D02*
X10509110Y-15638674D01*
X10509110Y-15638674D02*
X10518634Y-15657722D01*
X10518634Y-15657722D02*
X10518634Y-15762484D01*
X10518634Y-15657722D02*
X10528158Y-15638674D01*
X10528158Y-15638674D02*
X10547205Y-15629150D01*
X10547205Y-15629150D02*
X10575777Y-15629150D01*
X10575777Y-15629150D02*
X10594825Y-15638674D01*
X10594825Y-15638674D02*
X10604348Y-15657722D01*
X10604348Y-15657722D02*
X10604348Y-15762484D01*
X10699586Y-15762484D02*
X10699586Y-15629150D01*
X10699586Y-15648198D02*
X10709110Y-15638674D01*
X10709110Y-15638674D02*
X10728158Y-15629150D01*
X10728158Y-15629150D02*
X10756729Y-15629150D01*
X10756729Y-15629150D02*
X10775777Y-15638674D01*
X10775777Y-15638674D02*
X10785301Y-15657722D01*
X10785301Y-15657722D02*
X10785301Y-15762484D01*
X10785301Y-15657722D02*
X10794825Y-15638674D01*
X10794825Y-15638674D02*
X10813872Y-15629150D01*
X10813872Y-15629150D02*
X10842444Y-15629150D01*
X10842444Y-15629150D02*
X10861491Y-15638674D01*
X10861491Y-15638674D02*
X10871015Y-15657722D01*
X10871015Y-15657722D02*
X10871015Y-15762484D01*
X11261491Y-15552960D02*
X11090063Y-15810103D01*
X11518634Y-15562484D02*
X11537682Y-15562484D01*
X11537682Y-15562484D02*
X11556729Y-15572008D01*
X11556729Y-15572008D02*
X11566253Y-15581531D01*
X11566253Y-15581531D02*
X11575777Y-15600579D01*
X11575777Y-15600579D02*
X11585301Y-15638674D01*
X11585301Y-15638674D02*
X11585301Y-15686293D01*
X11585301Y-15686293D02*
X11575777Y-15724388D01*
X11575777Y-15724388D02*
X11566253Y-15743436D01*
X11566253Y-15743436D02*
X11556729Y-15752960D01*
X11556729Y-15752960D02*
X11537682Y-15762484D01*
X11537682Y-15762484D02*
X11518634Y-15762484D01*
X11518634Y-15762484D02*
X11499586Y-15752960D01*
X11499586Y-15752960D02*
X11490063Y-15743436D01*
X11490063Y-15743436D02*
X11480539Y-15724388D01*
X11480539Y-15724388D02*
X11471015Y-15686293D01*
X11471015Y-15686293D02*
X11471015Y-15638674D01*
X11471015Y-15638674D02*
X11480539Y-15600579D01*
X11480539Y-15600579D02*
X11490063Y-15581531D01*
X11490063Y-15581531D02*
X11499586Y-15572008D01*
X11499586Y-15572008D02*
X11518634Y-15562484D01*
X11671015Y-15743436D02*
X11680539Y-15752960D01*
X11680539Y-15752960D02*
X11671015Y-15762484D01*
X11671015Y-15762484D02*
X11661491Y-15752960D01*
X11661491Y-15752960D02*
X11671015Y-15743436D01*
X11671015Y-15743436D02*
X11671015Y-15762484D01*
X11871015Y-15762484D02*
X11756729Y-15762484D01*
X11813872Y-15762484D02*
X11813872Y-15562484D01*
X11813872Y-15562484D02*
X11794825Y-15591055D01*
X11794825Y-15591055D02*
X11775777Y-15610103D01*
X11775777Y-15610103D02*
X11756729Y-15619627D01*
X11994825Y-15562484D02*
X12013872Y-15562484D01*
X12013872Y-15562484D02*
X12032920Y-15572008D01*
X12032920Y-15572008D02*
X12042444Y-15581531D01*
X12042444Y-15581531D02*
X12051967Y-15600579D01*
X12051967Y-15600579D02*
X12061491Y-15638674D01*
X12061491Y-15638674D02*
X12061491Y-15686293D01*
X12061491Y-15686293D02*
X12051967Y-15724388D01*
X12051967Y-15724388D02*
X12042444Y-15743436D01*
X12042444Y-15743436D02*
X12032920Y-15752960D01*
X12032920Y-15752960D02*
X12013872Y-15762484D01*
X12013872Y-15762484D02*
X11994825Y-15762484D01*
X11994825Y-15762484D02*
X11975777Y-15752960D01*
X11975777Y-15752960D02*
X11966253Y-15743436D01*
X11966253Y-15743436D02*
X11956729Y-15724388D01*
X11956729Y-15724388D02*
X11947206Y-15686293D01*
X11947206Y-15686293D02*
X11947206Y-15638674D01*
X11947206Y-15638674D02*
X11956729Y-15600579D01*
X11956729Y-15600579D02*
X11966253Y-15581531D01*
X11966253Y-15581531D02*
X11975777Y-15572008D01*
X11975777Y-15572008D02*
X11994825Y-15562484D01*
X12232920Y-15562484D02*
X12194825Y-15562484D01*
X12194825Y-15562484D02*
X12175777Y-15572008D01*
X12175777Y-15572008D02*
X12166253Y-15581531D01*
X12166253Y-15581531D02*
X12147206Y-15610103D01*
X12147206Y-15610103D02*
X12137682Y-15648198D01*
X12137682Y-15648198D02*
X12137682Y-15724388D01*
X12137682Y-15724388D02*
X12147206Y-15743436D01*
X12147206Y-15743436D02*
X12156729Y-15752960D01*
X12156729Y-15752960D02*
X12175777Y-15762484D01*
X12175777Y-15762484D02*
X12213872Y-15762484D01*
X12213872Y-15762484D02*
X12232920Y-15752960D01*
X12232920Y-15752960D02*
X12242444Y-15743436D01*
X12242444Y-15743436D02*
X12251967Y-15724388D01*
X12251967Y-15724388D02*
X12251967Y-15676769D01*
X12251967Y-15676769D02*
X12242444Y-15657722D01*
X12242444Y-15657722D02*
X12232920Y-15648198D01*
X12232920Y-15648198D02*
X12213872Y-15638674D01*
X12213872Y-15638674D02*
X12175777Y-15638674D01*
X12175777Y-15638674D02*
X12156729Y-15648198D01*
X12156729Y-15648198D02*
X12147206Y-15657722D01*
X12147206Y-15657722D02*
X12137682Y-15676769D01*
X12318634Y-15562484D02*
X12442444Y-15562484D01*
X12442444Y-15562484D02*
X12375777Y-15638674D01*
X12375777Y-15638674D02*
X12404348Y-15638674D01*
X12404348Y-15638674D02*
X12423396Y-15648198D01*
X12423396Y-15648198D02*
X12432920Y-15657722D01*
X12432920Y-15657722D02*
X12442444Y-15676769D01*
X12442444Y-15676769D02*
X12442444Y-15724388D01*
X12442444Y-15724388D02*
X12432920Y-15743436D01*
X12432920Y-15743436D02*
X12423396Y-15752960D01*
X12423396Y-15752960D02*
X12404348Y-15762484D01*
X12404348Y-15762484D02*
X12347206Y-15762484D01*
X12347206Y-15762484D02*
X12328158Y-15752960D01*
X12328158Y-15752960D02*
X12318634Y-15743436D01*
X12518634Y-15562484D02*
X12518634Y-15600579D01*
X12594825Y-15562484D02*
X12594825Y-15600579D01*
X12890063Y-15838674D02*
X12880539Y-15829150D01*
X12880539Y-15829150D02*
X12861491Y-15800579D01*
X12861491Y-15800579D02*
X12851968Y-15781531D01*
X12851968Y-15781531D02*
X12842444Y-15752960D01*
X12842444Y-15752960D02*
X12832920Y-15705341D01*
X12832920Y-15705341D02*
X12832920Y-15667246D01*
X12832920Y-15667246D02*
X12842444Y-15619627D01*
X12842444Y-15619627D02*
X12851968Y-15591055D01*
X12851968Y-15591055D02*
X12861491Y-15572008D01*
X12861491Y-15572008D02*
X12880539Y-15543436D01*
X12880539Y-15543436D02*
X12890063Y-15533912D01*
X13071015Y-15762484D02*
X12956729Y-15762484D01*
X13013872Y-15762484D02*
X13013872Y-15562484D01*
X13013872Y-15562484D02*
X12994825Y-15591055D01*
X12994825Y-15591055D02*
X12975777Y-15610103D01*
X12975777Y-15610103D02*
X12956729Y-15619627D01*
X13299587Y-15752960D02*
X13318634Y-15762484D01*
X13318634Y-15762484D02*
X13356729Y-15762484D01*
X13356729Y-15762484D02*
X13375777Y-15752960D01*
X13375777Y-15752960D02*
X13385301Y-15733912D01*
X13385301Y-15733912D02*
X13385301Y-15724388D01*
X13385301Y-15724388D02*
X13375777Y-15705341D01*
X13375777Y-15705341D02*
X13356729Y-15695817D01*
X13356729Y-15695817D02*
X13328158Y-15695817D01*
X13328158Y-15695817D02*
X13309110Y-15686293D01*
X13309110Y-15686293D02*
X13299587Y-15667246D01*
X13299587Y-15667246D02*
X13299587Y-15657722D01*
X13299587Y-15657722D02*
X13309110Y-15638674D01*
X13309110Y-15638674D02*
X13328158Y-15629150D01*
X13328158Y-15629150D02*
X13356729Y-15629150D01*
X13356729Y-15629150D02*
X13375777Y-15638674D01*
X13499587Y-15762484D02*
X13480539Y-15752960D01*
X13480539Y-15752960D02*
X13471015Y-15733912D01*
X13471015Y-15733912D02*
X13471015Y-15562484D01*
X13604349Y-15762484D02*
X13585301Y-15752960D01*
X13585301Y-15752960D02*
X13575777Y-15743436D01*
X13575777Y-15743436D02*
X13566253Y-15724388D01*
X13566253Y-15724388D02*
X13566253Y-15667246D01*
X13566253Y-15667246D02*
X13575777Y-15648198D01*
X13575777Y-15648198D02*
X13585301Y-15638674D01*
X13585301Y-15638674D02*
X13604349Y-15629150D01*
X13604349Y-15629150D02*
X13632920Y-15629150D01*
X13632920Y-15629150D02*
X13651968Y-15638674D01*
X13651968Y-15638674D02*
X13661491Y-15648198D01*
X13661491Y-15648198D02*
X13671015Y-15667246D01*
X13671015Y-15667246D02*
X13671015Y-15724388D01*
X13671015Y-15724388D02*
X13661491Y-15743436D01*
X13661491Y-15743436D02*
X13651968Y-15752960D01*
X13651968Y-15752960D02*
X13632920Y-15762484D01*
X13632920Y-15762484D02*
X13604349Y-15762484D01*
X13728158Y-15629150D02*
X13804349Y-15629150D01*
X13756730Y-15562484D02*
X13756730Y-15733912D01*
X13756730Y-15733912D02*
X13766253Y-15752960D01*
X13766253Y-15752960D02*
X13785301Y-15762484D01*
X13785301Y-15762484D02*
X13804349Y-15762484D01*
X13851968Y-15838674D02*
X13861491Y-15829150D01*
X13861491Y-15829150D02*
X13880539Y-15800579D01*
X13880539Y-15800579D02*
X13890063Y-15781531D01*
X13890063Y-15781531D02*
X13899587Y-15752960D01*
X13899587Y-15752960D02*
X13909110Y-15705341D01*
X13909110Y-15705341D02*
X13909110Y-15667246D01*
X13909110Y-15667246D02*
X13899587Y-15619627D01*
X13899587Y-15619627D02*
X13890063Y-15591055D01*
X13890063Y-15591055D02*
X13880539Y-15572008D01*
X13880539Y-15572008D02*
X13861491Y-15543436D01*
X13861491Y-15543436D02*
X13851968Y-15533912D01*
M02*
