%TF.GenerationSoftware,KiCad,Pcbnew,7.0.6*%
%TF.CreationDate,2023-08-14T13:22:57+02:00*%
%TF.ProjectId,forrasztos,666f7272-6173-47a7-946f-732e6b696361,rev?*%
%TF.SameCoordinates,Original*%
%TF.FileFunction,Copper,L2,Bot*%
%TF.FilePolarity,Positive*%
%FSLAX46Y46*%
G04 Gerber Fmt 4.6, Leading zero omitted, Abs format (unit mm)*
G04 Created by KiCad (PCBNEW 7.0.6) date 2023-08-14 13:22:57*
%MOMM*%
%LPD*%
G01*
G04 APERTURE LIST*
%TA.AperFunction,ComponentPad*%
%ADD10C,2.900000*%
%TD*%
%TA.AperFunction,ConnectorPad*%
%ADD11C,5.000000*%
%TD*%
%TA.AperFunction,ComponentPad*%
%ADD12O,3.670000X3.100000*%
%TD*%
%TA.AperFunction,ConnectorPad*%
%ADD13O,5.770000X5.000000*%
%TD*%
%TA.AperFunction,ComponentPad*%
%ADD14O,3.670000X2.900000*%
%TD*%
%TA.AperFunction,ComponentPad*%
%ADD15O,1.700000X1.700000*%
%TD*%
%TA.AperFunction,ComponentPad*%
%ADD16R,1.700000X1.700000*%
%TD*%
%TA.AperFunction,ComponentPad*%
%ADD17C,1.600000*%
%TD*%
%TA.AperFunction,ComponentPad*%
%ADD18O,1.600000X1.600000*%
%TD*%
%TA.AperFunction,ComponentPad*%
%ADD19O,3.048000X1.850000*%
%TD*%
%TA.AperFunction,ComponentPad*%
%ADD20C,1.500000*%
%TD*%
%TA.AperFunction,ComponentPad*%
%ADD21C,2.000000*%
%TD*%
%TA.AperFunction,ComponentPad*%
%ADD22R,1.600000X1.600000*%
%TD*%
%TA.AperFunction,ComponentPad*%
%ADD23R,2.000000X2.000000*%
%TD*%
%TA.AperFunction,ComponentPad*%
%ADD24R,3.000000X2.500000*%
%TD*%
%TA.AperFunction,ViaPad*%
%ADD25C,0.800000*%
%TD*%
%TA.AperFunction,Conductor*%
%ADD26C,0.500000*%
%TD*%
%TA.AperFunction,Conductor*%
%ADD27C,0.300000*%
%TD*%
%TA.AperFunction,Conductor*%
%ADD28C,0.600000*%
%TD*%
G04 APERTURE END LIST*
D10*
%TO.P,H3,1,1*%
%TO.N,Earth_Protective*%
X111200000Y-130300000D03*
D11*
X111200000Y-130300000D03*
%TD*%
D12*
%TO.P,H2,1,1*%
%TO.N,Earth_Protective*%
X184000000Y-130400000D03*
D13*
X184000000Y-130400000D03*
%TD*%
D14*
%TO.P,H1,1,1*%
%TO.N,Earth_Protective*%
X184000000Y-65500000D03*
D13*
X184000000Y-65500000D03*
%TD*%
D15*
%TO.P,J2,1,Pin_1*%
%TO.N,/CH1_AMP_P*%
X131340000Y-131010000D03*
X133880000Y-131010000D03*
X131340000Y-128470000D03*
%TO.P,J2,2,Pin_2*%
%TO.N,/CH1_AMP_N*%
X136420000Y-131010000D03*
X133880000Y-128470000D03*
X136420000Y-128470000D03*
D16*
%TO.P,J2,3,Pin_3*%
%TO.N,Net-(J2-Pin_3)*%
X128800000Y-131010000D03*
D15*
%TO.P,J2,4,Pin_4*%
%TO.N,Net-(J2-Pin_4)*%
X128800000Y-128470000D03*
%TD*%
%TO.P,J5,1,Pin_1*%
%TO.N,/CH2_AMP_P*%
X163860000Y-128460000D03*
X163860000Y-131000000D03*
X161320000Y-131000000D03*
%TO.P,J5,2,Pin_2*%
%TO.N,/CH2_AMP_N*%
X161320000Y-128460000D03*
X158780000Y-128460000D03*
X158780000Y-131000000D03*
D16*
%TO.P,J5,3,Pin_3*%
%TO.N,Net-(J5-Pin_3)*%
X166400000Y-128460000D03*
D15*
%TO.P,J5,4,Pin_4*%
%TO.N,Net-(J5-Pin_4)*%
X166400000Y-131000000D03*
%TD*%
D16*
%TO.P,J3,1,Pin_1*%
%TO.N,GND*%
X169615000Y-65500000D03*
D15*
%TO.P,J3,2,Pin_2*%
%TO.N,+5V*%
X167075000Y-65500000D03*
%TO.P,J3,3,Pin_3*%
%TO.N,/LCD_V0*%
X164535000Y-65500000D03*
%TO.P,J3,4,Pin_4*%
%TO.N,/LCD_DI*%
X161995000Y-65500000D03*
%TO.P,J3,5,Pin_5*%
%TO.N,/LCD_RW*%
X159455000Y-65500000D03*
%TO.P,J3,6,Pin_6*%
%TO.N,/LCD_E*%
X156915000Y-65500000D03*
%TO.P,J3,7,Pin_7*%
%TO.N,/LCD_D0*%
X154375000Y-65500000D03*
%TO.P,J3,8,Pin_8*%
%TO.N,/LCD_D1*%
X151835000Y-65500000D03*
%TO.P,J3,9,Pin_9*%
%TO.N,/LCD_D2*%
X149295000Y-65500000D03*
%TO.P,J3,10,Pin_10*%
%TO.N,/LCD_D3*%
X146755000Y-65500000D03*
%TO.P,J3,11,Pin_11*%
%TO.N,/LCD_D4*%
X144215000Y-65500000D03*
%TO.P,J3,12,Pin_12*%
%TO.N,/LCD_D5*%
X141675000Y-65500000D03*
%TO.P,J3,13,Pin_13*%
%TO.N,/LCD_D6*%
X139135000Y-65500000D03*
%TO.P,J3,14,Pin_14*%
%TO.N,/LCD_D7*%
X136595000Y-65500000D03*
%TO.P,J3,15,Pin_15*%
%TO.N,/LCD_CS1*%
X134055000Y-65500000D03*
%TO.P,J3,16,Pin_16*%
%TO.N,/LCD_CS2*%
X131515000Y-65500000D03*
%TO.P,J3,17,Pin_17*%
%TO.N,/LCD_RST*%
X128975000Y-65500000D03*
%TO.P,J3,18,Pin_18*%
%TO.N,/LCD_VOUT*%
X126435000Y-65500000D03*
%TO.P,J3,19,Pin_19*%
%TO.N,Net-(J3-Pin_19)*%
X123895000Y-65500000D03*
%TO.P,J3,20,Pin_20*%
%TO.N,GND*%
X121355000Y-65500000D03*
%TD*%
D16*
%TO.P,J4,1,Pin_1*%
%TO.N,+3.3V*%
X133981000Y-74958500D03*
D15*
%TO.P,J4,2,Pin_2*%
%TO.N,/SWCLK*%
X131441000Y-74958500D03*
%TO.P,J4,3,Pin_3*%
%TO.N,GND*%
X128901000Y-74958500D03*
%TO.P,J4,4,Pin_4*%
%TO.N,/SWDIO*%
X126361000Y-74958500D03*
%TO.P,J4,5,Pin_5*%
%TO.N,/NRST*%
X123821000Y-74958500D03*
%TO.P,J4,6,Pin_6*%
%TO.N,/SWO*%
X121281000Y-74958500D03*
%TD*%
D17*
%TO.P,R40,1*%
%TO.N,Earth_Protective*%
X179560000Y-128460000D03*
D18*
%TO.P,R40,2*%
%TO.N,Net-(J5-Pin_3)*%
X169400000Y-128460000D03*
%TD*%
D17*
%TO.P,R30,1*%
%TO.N,+5V*%
X137830000Y-70500000D03*
D18*
%TO.P,R30,2*%
%TO.N,Net-(J3-Pin_19)*%
X127670000Y-70500000D03*
%TD*%
D19*
%TO.P,SW2,1,1*%
%TO.N,Net-(R10-Pad2)*%
X193300000Y-103500000D03*
X205800000Y-103500000D03*
%TO.P,SW2,2,2*%
%TO.N,GND*%
X193300000Y-108500000D03*
X205800000Y-108500000D03*
%TD*%
D10*
%TO.P,H5,1,1*%
%TO.N,Earth_Protective*%
X96000000Y-65500000D03*
D11*
X96000000Y-65500000D03*
%TD*%
D20*
%TO.P,Y1,1,1*%
%TO.N,/CRYSTAL_1*%
X125200000Y-84350000D03*
%TO.P,Y1,2,2*%
%TO.N,Net-(C22-Pad2)*%
X125200000Y-89230000D03*
%TD*%
D19*
%TO.P,SW3,1,1*%
%TO.N,Net-(R11-Pad1)*%
X193300000Y-118700000D03*
X205800000Y-118700000D03*
%TO.P,SW3,2,2*%
%TO.N,GND*%
X193300000Y-123700000D03*
X205800000Y-123700000D03*
%TD*%
D21*
%TO.P,J1,1,Pin_1*%
%TO.N,+24V*%
X145100000Y-129500000D03*
%TO.P,J1,2,Pin_2*%
%TO.N,GND*%
X150100000Y-129500000D03*
%TD*%
D10*
%TO.P,H6,1,1*%
%TO.N,Earth_Protective*%
X112200000Y-65500000D03*
D11*
X112200000Y-65500000D03*
%TD*%
D22*
%TO.P,U4,1,A0*%
%TO.N,GND*%
X165200000Y-86000000D03*
D18*
%TO.P,U4,2,A1*%
X165200000Y-83460000D03*
%TO.P,U4,3,A2*%
X165200000Y-80920000D03*
%TO.P,U4,4,GND*%
X165200000Y-78380000D03*
%TO.P,U4,5,SDA*%
%TO.N,/i2c_SDA*%
X157580000Y-78380000D03*
%TO.P,U4,6,SCL*%
%TO.N,/i2c_SCL*%
X157580000Y-80920000D03*
%TO.P,U4,7,WP*%
%TO.N,GND*%
X157580000Y-83460000D03*
%TO.P,U4,8,VCC*%
%TO.N,+3.3V*%
X157580000Y-86000000D03*
%TD*%
D17*
%TO.P,R14,1*%
%TO.N,Earth_Protective*%
X115520000Y-131000000D03*
D18*
%TO.P,R14,2*%
%TO.N,Net-(J2-Pin_3)*%
X125680000Y-131000000D03*
%TD*%
D10*
%TO.P,H4,1,1*%
%TO.N,Earth_Protective*%
X96000000Y-130500000D03*
D11*
X96000000Y-130500000D03*
%TD*%
D23*
%TO.P,SW1,A,A*%
%TO.N,/ENC_B*%
X191850000Y-72300000D03*
D21*
%TO.P,SW1,B,B*%
%TO.N,/ENC_A*%
X191850000Y-77300000D03*
%TO.P,SW1,C,C*%
%TO.N,GND*%
X191850000Y-74800000D03*
D24*
%TO.P,SW1,MP*%
%TO.N,N/C*%
X199350000Y-69200000D03*
X199350000Y-80400000D03*
D21*
%TO.P,SW1,S1,S1*%
%TO.N,GND*%
X206350000Y-72300000D03*
%TO.P,SW1,S2,S2*%
%TO.N,/ENC_SW*%
X206350000Y-77300000D03*
%TD*%
D25*
%TO.N,GND*%
X168900000Y-106800000D03*
X103325000Y-106805000D03*
X171300000Y-106800000D03*
X147200000Y-82400000D03*
X181400000Y-124700000D03*
X134300000Y-85737000D03*
X148987083Y-80612917D03*
X138100000Y-131100000D03*
X130400000Y-77800000D03*
X105925000Y-98005000D03*
X143600000Y-90800000D03*
X136359817Y-124729908D03*
X127537501Y-92162499D03*
X140600000Y-102300000D03*
%TO.N,+5V*%
X167100000Y-67900000D03*
%TO.N,/LCD_V0*%
X165450000Y-68800000D03*
%TO.N,+3.3V*%
X136521000Y-80419500D03*
X145300000Y-88800000D03*
X123900000Y-130000000D03*
X149900000Y-94700000D03*
X144800000Y-80419500D03*
X177800000Y-131000000D03*
X154100000Y-88250000D03*
X123400000Y-97100000D03*
X157700000Y-108100000D03*
X190440000Y-114360000D03*
X135100000Y-96400000D03*
%TO.N,+3.3VA*%
X121900000Y-93200000D03*
X104625000Y-93205000D03*
%TO.N,/ENC_B*%
X189250000Y-72300000D03*
X150487083Y-80500000D03*
%TO.N,/ENC_A*%
X149737083Y-81320023D03*
X187050000Y-73200000D03*
%TO.N,/NRST*%
X127900000Y-78514000D03*
X130614683Y-86000000D03*
%TO.N,/CH1_AMP_P*%
X132300000Y-113300000D03*
X127300000Y-117700000D03*
X128200000Y-121300001D03*
X129999999Y-114099999D03*
X127300000Y-115000000D03*
X130900001Y-114099999D03*
X133600000Y-114099999D03*
X134500000Y-114099999D03*
X127300000Y-118600000D03*
X128699999Y-113300000D03*
X129600000Y-113299999D03*
X131400000Y-113300000D03*
X134100000Y-113300000D03*
X132300000Y-122100001D03*
X127800000Y-113300000D03*
X133200000Y-113300000D03*
X131800000Y-121300001D03*
X126400000Y-119500000D03*
X132700000Y-121300001D03*
X130900000Y-121300000D03*
X127300000Y-121300001D03*
X127300000Y-120400000D03*
X133600000Y-121300001D03*
X129599999Y-122100001D03*
X131400000Y-122100001D03*
X126400000Y-120400000D03*
X129099999Y-121300001D03*
X128200000Y-114099999D03*
X127300000Y-116800000D03*
X130500001Y-122100001D03*
X129099999Y-114099999D03*
X127300000Y-114099999D03*
X127800000Y-122100001D03*
X128699999Y-122100001D03*
X126400000Y-115000000D03*
X133200000Y-122100001D03*
X134500000Y-121300001D03*
X126900000Y-122100001D03*
X127300000Y-119500000D03*
X126400000Y-115900000D03*
X130000000Y-121300000D03*
X126400000Y-116800000D03*
X126400000Y-117700000D03*
X126900000Y-113300000D03*
X126400000Y-121300000D03*
X130500000Y-113299999D03*
X134100000Y-122100001D03*
X127300000Y-115900000D03*
X126400000Y-114100000D03*
X126400000Y-118600000D03*
X131800000Y-114099999D03*
X132700000Y-114099999D03*
%TO.N,/CH1_AMP_N*%
X113900000Y-100700000D03*
X111175500Y-100700000D03*
%TO.N,/LCD_DI*%
X150842800Y-83858340D03*
%TO.N,/LCD_RW*%
X151605423Y-84504414D03*
%TO.N,/LCD_E*%
X152426876Y-85083606D03*
%TO.N,/LCD_D0*%
X140343000Y-76273000D03*
%TO.N,/LCD_D1*%
X139592500Y-75500000D03*
%TO.N,/LCD_D2*%
X149057647Y-89400000D03*
%TO.N,/LCD_D3*%
X148300000Y-90100000D03*
%TO.N,/LCD_D4*%
X144200000Y-71349500D03*
%TO.N,/LCD_D5*%
X143000000Y-71349500D03*
%TO.N,/LCD_D6*%
X141800000Y-71400000D03*
%TO.N,/LCD_D7*%
X140600000Y-71400000D03*
%TO.N,/LCD_CS1*%
X130000000Y-76800000D03*
X140200000Y-93150500D03*
X134000000Y-70500000D03*
%TO.N,/LCD_CS2*%
X131500000Y-70500000D03*
X128691581Y-76815000D03*
X141300000Y-93300000D03*
%TO.N,/LCD_RST*%
X142320023Y-93149500D03*
%TO.N,/SWCLK*%
X143644730Y-79067230D03*
%TO.N,/SWDIO*%
X147149500Y-83738000D03*
%TO.N,/SWO*%
X143841500Y-77567730D03*
%TO.N,/CH2_AMP_P*%
X168700000Y-123500001D03*
X172300001Y-123500001D03*
X175500000Y-116400000D03*
X174100000Y-114700000D03*
X172800001Y-115499999D03*
X175500000Y-118200000D03*
X173200001Y-123500001D03*
X168700000Y-114700000D03*
X170100000Y-122700001D03*
X167400000Y-115499999D03*
X174600000Y-120000000D03*
X170500000Y-114700000D03*
X171000000Y-122700000D03*
X175000000Y-123500001D03*
X167800000Y-123500001D03*
X100000000Y-108585000D03*
X172800001Y-122700001D03*
X171400000Y-114699999D03*
X175500000Y-117300000D03*
X169600000Y-123500001D03*
X167400000Y-122700001D03*
X171900000Y-122700000D03*
X170999999Y-115499999D03*
X169200000Y-115499999D03*
X168300000Y-115499999D03*
X170100000Y-115499999D03*
X174600000Y-115499999D03*
X175500000Y-115500000D03*
X174600000Y-116400000D03*
X175500000Y-119100000D03*
X174600000Y-119100000D03*
X173200001Y-114700000D03*
X175500000Y-121800000D03*
X174600000Y-120900000D03*
X175500000Y-120900000D03*
X174600000Y-117300000D03*
X172300000Y-114699999D03*
X175000000Y-114700000D03*
X173700000Y-122700001D03*
X170500000Y-123500001D03*
X169200000Y-122700001D03*
X175500000Y-122700000D03*
X168300000Y-122700001D03*
X171900001Y-115499999D03*
X175500000Y-120000000D03*
X167800000Y-114700000D03*
X171399999Y-123500001D03*
X174600000Y-122700001D03*
X174600000Y-118200000D03*
X169600000Y-114700000D03*
X174600000Y-121800000D03*
X173700000Y-115499999D03*
X174100000Y-123500001D03*
%TO.N,/CH2_AMP_N*%
X101000000Y-107500000D03*
X156200000Y-126700000D03*
%TO.N,/ENC_SW*%
X133833360Y-82234000D03*
X184850000Y-74000000D03*
%TO.N,/i2c_SDA*%
X149836583Y-77300000D03*
%TO.N,/i2c_SCL*%
X149836583Y-78400000D03*
%TO.N,/CH1_TILT*%
X111100000Y-101800000D03*
X112900000Y-101800000D03*
%TO.N,/CH1_HEATER*%
X140500000Y-121700000D03*
X132838973Y-90446263D03*
%TO.N,/CH2_THERMO*%
X99425000Y-100305000D03*
X131000000Y-93900000D03*
%TO.N,/CH2_TILT*%
X172500000Y-131000000D03*
X143303653Y-93349500D03*
%TO.N,/CH2_HEATER*%
X148200000Y-124000000D03*
X133596355Y-91203645D03*
%TO.N,/BTN_1*%
X132698397Y-82206112D03*
X185100000Y-102800000D03*
%TO.N,/CH1_CURRENT*%
X125400000Y-97800000D03*
X129800000Y-97800000D03*
%TO.N,/CH2_CURRENT*%
X109685000Y-100685000D03*
X131300000Y-97400000D03*
%TO.N,/BTN_2*%
X132449500Y-83238000D03*
X185200000Y-118000000D03*
%TD*%
D26*
%TO.N,GND*%
X135489725Y-125600000D02*
X115069850Y-125600000D01*
X159000000Y-77750000D02*
X159000000Y-83100000D01*
X102000000Y-107900000D02*
X103095000Y-106805000D01*
X193500000Y-71200000D02*
X193000000Y-70700000D01*
X134300000Y-86463277D02*
X134300000Y-85737000D01*
X181400000Y-124700000D02*
X192300000Y-124700000D01*
X134700000Y-81700000D02*
X134700000Y-85337000D01*
X133000000Y-81300000D02*
X134300000Y-81300000D01*
X165200000Y-78380000D02*
X165200000Y-76900000D01*
X130400000Y-77800000D02*
X130400000Y-78700000D01*
X130850000Y-76447918D02*
X129360582Y-74958500D01*
X153420000Y-79300000D02*
X157580000Y-83460000D01*
X193300000Y-108500000D02*
X193300000Y-114100000D01*
X147200000Y-82400000D02*
X146300000Y-83300000D01*
X105925000Y-104205000D02*
X105925000Y-98005000D01*
X171300000Y-106800000D02*
X168900000Y-106800000D01*
X146300000Y-83300000D02*
X146300000Y-89900000D01*
X139650000Y-121350000D02*
X136359817Y-124640183D01*
X158640000Y-83460000D02*
X157580000Y-83460000D01*
X138100000Y-131100000D02*
X138300000Y-131300000D01*
X158150000Y-76900000D02*
X159000000Y-77750000D01*
X138300000Y-131300000D02*
X148300000Y-131300000D01*
X148987083Y-76812917D02*
X149400000Y-76400000D01*
X205800000Y-108500000D02*
X193300000Y-108500000D01*
X130400000Y-78700000D02*
X133000000Y-81300000D01*
X149400000Y-76400000D02*
X150200000Y-76400000D01*
X140600000Y-100697918D02*
X140600000Y-102300000D01*
X130850000Y-77350000D02*
X130850000Y-76447918D01*
X136359817Y-124640183D02*
X136359817Y-124729908D01*
X129360582Y-74958500D02*
X128901000Y-74958500D01*
X139650000Y-121347918D02*
X139650000Y-121350000D01*
X150700000Y-76900000D02*
X158150000Y-76900000D01*
X166710050Y-86000000D02*
X165200000Y-86000000D01*
X138636723Y-90800000D02*
X134300000Y-86463277D01*
X192400000Y-74800000D02*
X193500000Y-73700000D01*
X143600000Y-90800000D02*
X138636723Y-90800000D01*
X193000000Y-70700000D02*
X182010050Y-70700000D01*
X191000000Y-116400000D02*
X191000000Y-121400000D01*
X191850000Y-74800000D02*
X192400000Y-74800000D01*
X191000000Y-121400000D02*
X193300000Y-123700000D01*
X148300000Y-131300000D02*
X150100000Y-129500000D01*
X205800000Y-123700000D02*
X193300000Y-123700000D01*
X134300000Y-81300000D02*
X134700000Y-81700000D01*
X132064581Y-92162499D02*
X140600000Y-100697918D01*
X193500000Y-73700000D02*
X193500000Y-71200000D01*
X145400000Y-90800000D02*
X143600000Y-90800000D01*
X130400000Y-77800000D02*
X130850000Y-77350000D01*
X150200000Y-76400000D02*
X150700000Y-76900000D01*
X148987083Y-80612917D02*
X148987083Y-79300000D01*
X127537501Y-92162499D02*
X132064581Y-92162499D01*
X148987083Y-79300000D02*
X153420000Y-79300000D01*
X103325000Y-106805000D02*
X105925000Y-104205000D01*
X165200000Y-86000000D02*
X165200000Y-78380000D01*
X165200000Y-76900000D02*
X169615000Y-72485000D01*
X159000000Y-83100000D02*
X158640000Y-83460000D01*
X102000000Y-112530150D02*
X102000000Y-107900000D01*
X192300000Y-124700000D02*
X193300000Y-123700000D01*
X115069850Y-125600000D02*
X102000000Y-112530150D01*
X182010050Y-70700000D02*
X166710050Y-86000000D01*
X134700000Y-85337000D02*
X134300000Y-85737000D01*
X193300000Y-114100000D02*
X191000000Y-116400000D01*
X136359817Y-124729908D02*
X135489725Y-125600000D01*
X169615000Y-72485000D02*
X169615000Y-65500000D01*
X103095000Y-106805000D02*
X103325000Y-106805000D01*
X146300000Y-89900000D02*
X145400000Y-90800000D01*
X140600000Y-102300000D02*
X140600000Y-120397918D01*
X140600000Y-120397918D02*
X139650000Y-121347918D01*
X148987083Y-79300000D02*
X148987083Y-76812917D01*
%TO.N,+5V*%
X167075000Y-67875000D02*
X167100000Y-67900000D01*
X167075000Y-65500000D02*
X167075000Y-67875000D01*
%TO.N,/LCD_V0*%
X165450000Y-68800000D02*
X165450000Y-66415000D01*
X165450000Y-66415000D02*
X164535000Y-65500000D01*
%TO.N,+3.3V*%
X180350000Y-124450000D02*
X180350000Y-125750000D01*
X133981000Y-75099921D02*
X135886000Y-77004921D01*
X155330000Y-88250000D02*
X157580000Y-86000000D01*
X116500000Y-130000000D02*
X123900000Y-130000000D01*
X178200000Y-130600000D02*
X177800000Y-131000000D01*
X181400000Y-114600000D02*
X181400000Y-123400000D01*
X177800000Y-131000000D02*
X176100000Y-132700000D01*
X135100000Y-96400000D02*
X129600000Y-96400000D01*
X135886000Y-77004921D02*
X135886000Y-79784500D01*
X99100000Y-103627918D02*
X99100000Y-112600000D01*
X123700000Y-96800000D02*
X123400000Y-97100000D01*
X144800000Y-80419500D02*
X136521000Y-80419500D01*
X157700000Y-102500000D02*
X157700000Y-108100000D01*
X123345000Y-97155000D02*
X105572918Y-97155000D01*
X181400000Y-123400000D02*
X180350000Y-124450000D01*
X145300000Y-88800000D02*
X137626673Y-88800000D01*
X129600000Y-96400000D02*
X129200000Y-96800000D01*
X144800000Y-80419500D02*
X145300000Y-80919500D01*
X145300000Y-80919500D02*
X145300000Y-88800000D01*
X178200000Y-127900000D02*
X178200000Y-130600000D01*
X135886000Y-79784500D02*
X136521000Y-80419500D01*
X154100000Y-88250000D02*
X155330000Y-88250000D01*
X176100000Y-132700000D02*
X124100000Y-132700000D01*
X123900000Y-132500000D02*
X123900000Y-130000000D01*
X157700000Y-108100000D02*
X158900000Y-109300000D01*
X99100000Y-112600000D02*
X116500000Y-130000000D01*
X158900000Y-109300000D02*
X180300000Y-109300000D01*
X129200000Y-96800000D02*
X123700000Y-96800000D01*
X190440000Y-114360000D02*
X181400000Y-114360000D01*
X180350000Y-125750000D02*
X178200000Y-127900000D01*
X137626673Y-88800000D02*
X136521000Y-87694327D01*
X149900000Y-94700000D02*
X157700000Y-102500000D01*
X123400000Y-97100000D02*
X123345000Y-97155000D01*
X124100000Y-132700000D02*
X123900000Y-132500000D01*
X181400000Y-110400000D02*
X181400000Y-114600000D01*
X133981000Y-74958500D02*
X133981000Y-75099921D01*
X105572918Y-97155000D02*
X99100000Y-103627918D01*
X136521000Y-87694327D02*
X136521000Y-80419500D01*
X180300000Y-109300000D02*
X181400000Y-110400000D01*
%TO.N,+3.3VA*%
X121895000Y-93205000D02*
X104625000Y-93205000D01*
X121900000Y-93200000D02*
X121895000Y-93205000D01*
D27*
%TO.N,/ENC_B*%
X152600000Y-90600000D02*
X150057647Y-88057647D01*
D26*
X181400000Y-72300000D02*
X189250000Y-72300000D01*
D27*
X150487083Y-81630684D02*
X150487083Y-80500000D01*
X150057647Y-88057647D02*
X150057647Y-82060120D01*
D26*
X189250000Y-72300000D02*
X191850000Y-72300000D01*
D27*
X150057647Y-82060120D02*
X150487083Y-81630684D01*
X163300000Y-90400000D02*
X163100000Y-90600000D01*
D26*
X163300000Y-90400000D02*
X181400000Y-72300000D01*
D27*
X163100000Y-90600000D02*
X152600000Y-90600000D01*
%TO.N,/ENC_A*%
X163844975Y-90844975D02*
X163589950Y-91100000D01*
D26*
X181539950Y-73150000D02*
X187000000Y-73150000D01*
X191850000Y-77050000D02*
X191850000Y-77300000D01*
D27*
X150129177Y-89010869D02*
X149557647Y-88439339D01*
X163589950Y-91100000D02*
X152200000Y-91100000D01*
D26*
X187000000Y-73150000D02*
X187050000Y-73200000D01*
D27*
X149557647Y-88439339D02*
X149557647Y-81499459D01*
D26*
X188000000Y-73200000D02*
X191850000Y-77050000D01*
D27*
X152200000Y-91100000D02*
X150129177Y-89029177D01*
X150129177Y-89029177D02*
X150129177Y-89010869D01*
D26*
X163844975Y-90844975D02*
X181539950Y-73150000D01*
X187050000Y-73200000D02*
X188000000Y-73200000D01*
D27*
X149557647Y-81499459D02*
X149737083Y-81320023D01*
D26*
%TO.N,/NRST*%
X127376500Y-78514000D02*
X123821000Y-74958500D01*
D27*
X130614683Y-81514683D02*
X127900000Y-78800000D01*
X130614683Y-86000000D02*
X130614683Y-81514683D01*
D26*
X127900000Y-78514000D02*
X127376500Y-78514000D01*
D27*
X127900000Y-78800000D02*
X127900000Y-78514000D01*
D26*
%TO.N,/CH1_AMP_P*%
X131340000Y-131010000D02*
X131340000Y-128470000D01*
X131340000Y-131010000D02*
X133880000Y-131010000D01*
%TO.N,/CH1_AMP_N*%
X111175500Y-100700000D02*
X113900000Y-100700000D01*
X136420000Y-128470000D02*
X136420000Y-131010000D01*
X133880000Y-128470000D02*
X136420000Y-128470000D01*
D27*
%TO.N,/LCD_DI*%
X160600000Y-86800000D02*
X160600000Y-69700000D01*
X153014212Y-90100000D02*
X157300000Y-90100000D01*
X161995000Y-68305000D02*
X161995000Y-65500000D01*
X160600000Y-69700000D02*
X161995000Y-68305000D01*
X150842800Y-87928588D02*
X153014212Y-90100000D01*
X157300000Y-90100000D02*
X160600000Y-86800000D01*
X150842800Y-83858340D02*
X150842800Y-87928588D01*
%TO.N,/LCD_RW*%
X151605423Y-84504414D02*
X151605423Y-87784105D01*
X160100000Y-86507106D02*
X160100000Y-69000000D01*
X157007106Y-89600000D02*
X160100000Y-86507106D01*
X151605423Y-87784105D02*
X153421318Y-89600000D01*
X160100000Y-69000000D02*
X159455000Y-68355000D01*
X153421318Y-89600000D02*
X157007106Y-89600000D01*
X159455000Y-68355000D02*
X159455000Y-65500000D01*
%TO.N,/LCD_E*%
X152426876Y-85083606D02*
X152426876Y-87698452D01*
X159600000Y-71000000D02*
X156915000Y-68315000D01*
X156915000Y-68315000D02*
X156915000Y-65500000D01*
X152426876Y-87698452D02*
X153828424Y-89100000D01*
X153828424Y-89100000D02*
X156800000Y-89100000D01*
X159600000Y-86300000D02*
X159600000Y-71000000D01*
X156800000Y-89100000D02*
X159600000Y-86300000D01*
%TO.N,/LCD_D0*%
X140816000Y-75800000D02*
X149750000Y-75800000D01*
X149750000Y-75800000D02*
X154375000Y-71175000D01*
X154375000Y-71175000D02*
X154375000Y-65500000D01*
X140343000Y-76273000D02*
X140816000Y-75800000D01*
%TO.N,/LCD_D1*%
X147650000Y-75300000D02*
X151835000Y-71115000D01*
X140300000Y-75500000D02*
X140500000Y-75300000D01*
X151835000Y-71115000D02*
X151835000Y-65500000D01*
X140500000Y-75300000D02*
X147650000Y-75300000D01*
X139592500Y-75500000D02*
X140300000Y-75500000D01*
%TO.N,/LCD_D2*%
X149295000Y-71055000D02*
X149295000Y-65500000D01*
X139281839Y-74750000D02*
X145600000Y-74750000D01*
X145091500Y-77777288D02*
X145091500Y-77049963D01*
X143229979Y-76300000D02*
X142507480Y-77022500D01*
X149057647Y-89400000D02*
X149057647Y-81743435D01*
X144341537Y-76300000D02*
X143229979Y-76300000D01*
X139580531Y-77022500D02*
X138842045Y-76284014D01*
X145091500Y-77049963D02*
X144341537Y-76300000D01*
X149057647Y-81743435D02*
X145091500Y-77777288D01*
X142507480Y-77022500D02*
X139580531Y-77022500D01*
X138842045Y-75189794D02*
X139281839Y-74750000D01*
X138842045Y-76284014D02*
X138842045Y-75189794D01*
X145600000Y-74750000D02*
X149295000Y-71055000D01*
%TO.N,/LCD_D3*%
X143500000Y-74250000D02*
X146755000Y-70995000D01*
X148500000Y-83094607D02*
X148500000Y-81892893D01*
X138303000Y-76452075D02*
X138303000Y-74697000D01*
X138750000Y-74250000D02*
X143500000Y-74250000D01*
X138303000Y-74697000D02*
X138750000Y-74250000D01*
X148300000Y-83294607D02*
X148500000Y-83094607D01*
X139373425Y-77522500D02*
X138303000Y-76452075D01*
X148500000Y-81892893D02*
X144591500Y-77984394D01*
X144591500Y-77984394D02*
X144591500Y-77257069D01*
X144591500Y-77257069D02*
X144134431Y-76800000D01*
X148300000Y-90100000D02*
X148300000Y-83294607D01*
X143437086Y-76800000D02*
X142714586Y-77522500D01*
X144134431Y-76800000D02*
X143437086Y-76800000D01*
X142714586Y-77522500D02*
X139373425Y-77522500D01*
X146755000Y-70995000D02*
X146755000Y-65500000D01*
%TO.N,/LCD_D4*%
X144200000Y-71349500D02*
X144200000Y-65515000D01*
X144200000Y-65515000D02*
X144215000Y-65500000D01*
%TO.N,/LCD_D5*%
X143000000Y-71349500D02*
X141675000Y-70024500D01*
X141675000Y-70024500D02*
X141675000Y-65500000D01*
%TO.N,/LCD_D6*%
X139135000Y-68535000D02*
X139135000Y-65500000D01*
X141800000Y-71400000D02*
X141800000Y-71200000D01*
X141800000Y-71200000D02*
X139135000Y-68535000D01*
%TO.N,/LCD_D7*%
X136595000Y-67395000D02*
X136595000Y-65500000D01*
X140600000Y-71400000D02*
X136595000Y-67395000D01*
%TO.N,/LCD_CS1*%
X129500000Y-77300000D02*
X130000000Y-76800000D01*
X137766877Y-92900000D02*
X131949500Y-87082623D01*
X131949500Y-87082623D02*
X131949500Y-83798661D01*
X139949500Y-92900000D02*
X137766877Y-92900000D01*
X131699500Y-81060161D02*
X129500000Y-78860661D01*
X131699500Y-83548661D02*
X131699500Y-81060161D01*
X129500000Y-78860661D02*
X129500000Y-77300000D01*
X134000000Y-70500000D02*
X134000000Y-65555000D01*
X134000000Y-65555000D02*
X134055000Y-65500000D01*
X131949500Y-83798661D02*
X131699500Y-83548661D01*
X140200000Y-93150500D02*
X139949500Y-92900000D01*
%TO.N,/LCD_CS2*%
X131449500Y-87289729D02*
X131449500Y-84005768D01*
X131449500Y-84005768D02*
X131199500Y-83755768D01*
X137559771Y-93400000D02*
X131449500Y-87289729D01*
X131515000Y-70485000D02*
X131515000Y-65500000D01*
X131199500Y-81267267D02*
X128691581Y-78759348D01*
X140699500Y-93900500D02*
X139889339Y-93900500D01*
X131199500Y-83755768D02*
X131199500Y-81267267D01*
X131500000Y-70500000D02*
X131515000Y-70485000D01*
X139388839Y-93400000D02*
X137559771Y-93400000D01*
X141300000Y-93300000D02*
X140699500Y-93900500D01*
X139889339Y-93900500D02*
X139388839Y-93400000D01*
X128691581Y-78759348D02*
X128691581Y-76815000D01*
%TO.N,/LCD_RST*%
X139181733Y-93900000D02*
X137352665Y-93900000D01*
X128292500Y-71807500D02*
X128975000Y-71125000D01*
X137352665Y-93900000D02*
X129864683Y-86412018D01*
X121992500Y-71807500D02*
X128292500Y-71807500D01*
X120800000Y-76500000D02*
X119900000Y-75600000D01*
X139682233Y-94400500D02*
X139181733Y-93900000D01*
X119900000Y-75600000D02*
X119900000Y-73900000D01*
X142320023Y-93149500D02*
X142320023Y-93779977D01*
X128975000Y-71125000D02*
X128975000Y-65500000D01*
X142320023Y-93779977D02*
X141699500Y-94400500D01*
X129864683Y-81864683D02*
X124500000Y-76500000D01*
X129864683Y-86412018D02*
X129864683Y-81864683D01*
X141699500Y-94400500D02*
X139682233Y-94400500D01*
X119900000Y-73900000D02*
X121992500Y-71807500D01*
X124500000Y-76500000D02*
X120800000Y-76500000D01*
D28*
%TO.N,Net-(J3-Pin_19)*%
X123895000Y-69345000D02*
X125050000Y-70500000D01*
X125050000Y-70500000D02*
X127670000Y-70500000D01*
X123895000Y-65500000D02*
X123895000Y-69345000D01*
D27*
%TO.N,/SWCLK*%
X135632000Y-73561500D02*
X135378000Y-73307500D01*
X143644730Y-79067230D02*
X143600000Y-79022500D01*
X143600000Y-79022500D02*
X138752107Y-79022500D01*
X133092500Y-73307500D02*
X132700000Y-73700000D01*
X132700000Y-73700000D02*
X132699500Y-73700000D01*
X135632000Y-75902393D02*
X135632000Y-73561500D01*
X135378000Y-73307500D02*
X133092500Y-73307500D01*
X132699500Y-73700000D02*
X131441000Y-74958500D01*
X138752107Y-79022500D02*
X135632000Y-75902393D01*
%TO.N,/SWDIO*%
X136132000Y-75695287D02*
X136132000Y-73354394D01*
X135585106Y-72807500D02*
X128492500Y-72807500D01*
X144217230Y-78317230D02*
X143334069Y-78317230D01*
X148000000Y-82100000D02*
X144217230Y-78317230D01*
X147149500Y-83738000D02*
X148000000Y-82887500D01*
X128492500Y-72807500D02*
X126361000Y-74939000D01*
X143334069Y-78317230D02*
X143128799Y-78522500D01*
X143128799Y-78522500D02*
X138959213Y-78522500D01*
X148000000Y-82887500D02*
X148000000Y-82100000D01*
X126361000Y-74939000D02*
X126361000Y-74958500D01*
X138959213Y-78522500D02*
X136132000Y-75695287D01*
X136132000Y-73354394D02*
X135585106Y-72807500D01*
%TO.N,/SWO*%
X139166319Y-78022500D02*
X136632000Y-75488181D01*
X123932000Y-72307500D02*
X121281000Y-74958500D01*
X136632000Y-75488181D02*
X136632000Y-73147288D01*
X135792212Y-72307500D02*
X123932000Y-72307500D01*
X136632000Y-73147288D02*
X135792212Y-72307500D01*
X143841500Y-77567730D02*
X143376463Y-77567730D01*
X143376463Y-77567730D02*
X142921693Y-78022500D01*
X142921693Y-78022500D02*
X139166319Y-78022500D01*
D26*
%TO.N,/CH2_AMP_P*%
X163860000Y-127460000D02*
X163860000Y-128460000D01*
X163400000Y-127000000D02*
X163860000Y-127460000D01*
X155100000Y-127000000D02*
X155650000Y-127550000D01*
X163860000Y-131000000D02*
X163860000Y-128460000D01*
X157300000Y-127000000D02*
X163400000Y-127000000D01*
X100000000Y-112510050D02*
X114489950Y-127000000D01*
X155650000Y-127550000D02*
X156750000Y-127550000D01*
X156750000Y-127550000D02*
X157300000Y-127000000D01*
X163860000Y-131000000D02*
X161320000Y-131000000D01*
X100000000Y-108585000D02*
X100000000Y-112510050D01*
X114489950Y-127000000D02*
X155100000Y-127000000D01*
%TO.N,/CH2_AMP_N*%
X114779900Y-126300000D02*
X101000000Y-112520100D01*
X161320000Y-128460000D02*
X158780000Y-128460000D01*
X101000000Y-112520100D02*
X101000000Y-107500000D01*
X155800000Y-126300000D02*
X114779900Y-126300000D01*
X156200000Y-126700000D02*
X155800000Y-126300000D01*
X158780000Y-128460000D02*
X158780000Y-131000000D01*
%TO.N,/ENC_SW*%
X189750000Y-78900000D02*
X192500000Y-78900000D01*
D27*
X133550000Y-86561805D02*
X133550000Y-83905267D01*
D26*
X194100000Y-77300000D02*
X206350000Y-77300000D01*
X164400000Y-91300000D02*
X164400000Y-91279900D01*
D27*
X138388195Y-91400000D02*
X133550000Y-86561805D01*
X164400000Y-91300000D02*
X164379900Y-91300000D01*
X143139339Y-91400000D02*
X138388195Y-91400000D01*
X133550000Y-83905267D02*
X133833360Y-83621907D01*
D26*
X184850000Y-74000000D02*
X189750000Y-78900000D01*
D27*
X164379900Y-91300000D02*
X164079900Y-91600000D01*
D26*
X192500000Y-78900000D02*
X194100000Y-77300000D01*
D27*
X143339339Y-91600000D02*
X143139339Y-91400000D01*
X164079900Y-91600000D02*
X143339339Y-91600000D01*
X133833360Y-83621907D02*
X133833360Y-82234000D01*
D26*
X164400000Y-91279900D02*
X181679900Y-74000000D01*
X181679900Y-74000000D02*
X184850000Y-74000000D01*
D27*
%TO.N,/i2c_SDA*%
X150236583Y-77700000D02*
X156900000Y-77700000D01*
X149836583Y-77300000D02*
X150236583Y-77700000D01*
X156900000Y-77700000D02*
X157580000Y-78380000D01*
%TO.N,/i2c_SCL*%
X155060000Y-78400000D02*
X157580000Y-80920000D01*
X149836583Y-78400000D02*
X155060000Y-78400000D01*
D26*
%TO.N,/CH1_TILT*%
X112900000Y-101800000D02*
X111100000Y-101800000D01*
%TO.N,/CH1_HEATER*%
X132746355Y-90538881D02*
X132838973Y-90446263D01*
X141500000Y-100400000D02*
X132746355Y-91646355D01*
X141500000Y-120700000D02*
X141500000Y-100400000D01*
X132746355Y-91646355D02*
X132746355Y-90538881D01*
X140500000Y-121700000D02*
X141500000Y-120700000D01*
%TO.N,Earth_Protective*%
X96000000Y-65500000D02*
X93800000Y-67700000D01*
X181600000Y-63300000D02*
X98200000Y-63300000D01*
X111900000Y-131000000D02*
X111200000Y-130300000D01*
X98200000Y-132700000D02*
X108800000Y-132700000D01*
X184000000Y-65500000D02*
X181800000Y-63300000D01*
X93800000Y-128300000D02*
X96000000Y-130500000D01*
X96000000Y-130500000D02*
X98200000Y-132700000D01*
X186200000Y-63300000D02*
X184000000Y-65500000D01*
X184000000Y-130400000D02*
X186300000Y-132700000D01*
X207950000Y-63950000D02*
X207300000Y-63300000D01*
X184000000Y-130400000D02*
X182060000Y-128460000D01*
X182060000Y-128460000D02*
X179560000Y-128460000D01*
X186200000Y-63300000D02*
X181600000Y-63300000D01*
X115520000Y-131000000D02*
X111900000Y-131000000D01*
X98200000Y-63300000D02*
X96000000Y-65500000D01*
X108800000Y-132700000D02*
X111200000Y-130300000D01*
X207950000Y-131950000D02*
X207950000Y-63950000D01*
X186300000Y-132700000D02*
X207200000Y-132700000D01*
X181800000Y-63300000D02*
X181600000Y-63300000D01*
X93800000Y-67700000D02*
X93800000Y-128300000D01*
X207200000Y-132700000D02*
X207950000Y-131950000D01*
X207300000Y-63300000D02*
X186200000Y-63300000D01*
%TO.N,/CH2_THERMO*%
X99595000Y-100305000D02*
X99425000Y-100305000D01*
X103800000Y-96100000D02*
X99595000Y-100305000D01*
X128800000Y-96100000D02*
X103800000Y-96100000D01*
X131000000Y-93900000D02*
X128800000Y-96100000D01*
%TO.N,/CH2_TILT*%
X144950000Y-123150000D02*
X143303653Y-121503653D01*
X169500000Y-126200000D02*
X157300000Y-126200000D01*
X148950000Y-123150000D02*
X144950000Y-123150000D01*
X157300000Y-126200000D02*
X155800000Y-124700000D01*
X143303653Y-121503653D02*
X143303653Y-93349500D01*
X172500000Y-131000000D02*
X172500000Y-129200000D01*
X172500000Y-129200000D02*
X169500000Y-126200000D01*
X150500000Y-124700000D02*
X148950000Y-123150000D01*
X155800000Y-124700000D02*
X150500000Y-124700000D01*
%TO.N,/CH2_HEATER*%
X142400000Y-121800000D02*
X142400000Y-100007290D01*
X148200000Y-124000000D02*
X144600000Y-124000000D01*
X144600000Y-124000000D02*
X142400000Y-121800000D01*
X142400000Y-100007290D02*
X133596355Y-91203645D01*
D27*
%TO.N,/BTN_1*%
X184800000Y-102500000D02*
X184800000Y-92500000D01*
X133050000Y-86768911D02*
X133050000Y-83698161D01*
X138181089Y-91900000D02*
X133050000Y-86768911D01*
X143132232Y-92100000D02*
X142932232Y-91900000D01*
X133050000Y-83698161D02*
X133199500Y-83548661D01*
X133199500Y-83548661D02*
X133199500Y-82707215D01*
X184800000Y-92500000D02*
X184400000Y-92100000D01*
X184400000Y-92100000D02*
X143132232Y-92100000D01*
X185100000Y-102800000D02*
X184800000Y-102500000D01*
X133199500Y-82707215D02*
X132698397Y-82206112D01*
X142932232Y-91900000D02*
X138181089Y-91900000D01*
D26*
%TO.N,Net-(R10-Pad2)*%
X193300000Y-103500000D02*
X205800000Y-103500000D01*
%TO.N,/CH1_CURRENT*%
X125400000Y-97800000D02*
X129800000Y-97800000D01*
%TO.N,/CH2_CURRENT*%
X111000000Y-98900000D02*
X109685000Y-100215000D01*
X131300000Y-97700000D02*
X130100000Y-98900000D01*
X109685000Y-100215000D02*
X109685000Y-100685000D01*
X130100000Y-98900000D02*
X111000000Y-98900000D01*
X131300000Y-97400000D02*
X131300000Y-97700000D01*
%TO.N,Net-(R11-Pad1)*%
X205800000Y-118700000D02*
X193300000Y-118700000D01*
D27*
%TO.N,/BTN_2*%
X142900000Y-92600000D02*
X183900000Y-92600000D01*
X188000000Y-118000000D02*
X185200000Y-118000000D01*
X184300000Y-93000000D02*
X184300000Y-105000000D01*
X191200000Y-114800000D02*
X188000000Y-118000000D01*
X191200000Y-111900000D02*
X191200000Y-114800000D01*
X183900000Y-92600000D02*
X184300000Y-93000000D01*
X132449500Y-86875517D02*
X137973983Y-92400000D01*
X137973983Y-92400000D02*
X142700000Y-92400000D01*
X184300000Y-105000000D02*
X191200000Y-111900000D01*
X132449500Y-83238000D02*
X132449500Y-86875517D01*
X142700000Y-92400000D02*
X142900000Y-92600000D01*
%TD*%
%TA.AperFunction,Conductor*%
%TO.N,/CH2_AMP_P*%
G36*
X180004809Y-110070185D02*
G01*
X180025451Y-110086819D01*
X180613182Y-110674550D01*
X180646666Y-110735871D01*
X180649500Y-110762229D01*
X180649500Y-114336358D01*
X180649395Y-114339963D01*
X180645669Y-114403934D01*
X180645669Y-114403935D01*
X180647616Y-114414977D01*
X180649500Y-114436509D01*
X180649500Y-123037769D01*
X180629815Y-123104808D01*
X180613181Y-123125450D01*
X179864358Y-123874272D01*
X179850729Y-123886051D01*
X179831468Y-123900390D01*
X179797898Y-123940397D01*
X179794253Y-123944376D01*
X179788409Y-123950222D01*
X179768059Y-123975959D01*
X179718695Y-124034789D01*
X179714729Y-124040819D01*
X179714682Y-124040788D01*
X179710630Y-124047147D01*
X179710679Y-124047177D01*
X179706889Y-124053321D01*
X179674424Y-124122941D01*
X179639960Y-124191566D01*
X179637488Y-124198357D01*
X179637432Y-124198336D01*
X179634960Y-124205450D01*
X179635015Y-124205469D01*
X179632742Y-124212327D01*
X179624975Y-124249946D01*
X179617207Y-124287565D01*
X179609000Y-124322196D01*
X179599498Y-124362286D01*
X179598661Y-124369454D01*
X179598601Y-124369447D01*
X179597835Y-124376945D01*
X179597895Y-124376951D01*
X179597265Y-124384140D01*
X179599500Y-124460916D01*
X179599500Y-125387769D01*
X179579815Y-125454808D01*
X179563180Y-125475450D01*
X178719289Y-126319343D01*
X178174951Y-126863681D01*
X178113628Y-126897166D01*
X178087270Y-126900000D01*
X171312730Y-126900000D01*
X171245691Y-126880315D01*
X171225049Y-126863681D01*
X170075729Y-125714361D01*
X170063949Y-125700730D01*
X170056482Y-125690701D01*
X170049612Y-125681472D01*
X170049610Y-125681470D01*
X170009587Y-125647886D01*
X170005612Y-125644244D01*
X170002690Y-125641322D01*
X169999780Y-125638411D01*
X169974040Y-125618059D01*
X169915209Y-125568694D01*
X169909180Y-125564729D01*
X169909212Y-125564680D01*
X169902853Y-125560628D01*
X169902822Y-125560679D01*
X169896680Y-125556891D01*
X169896678Y-125556890D01*
X169896677Y-125556889D01*
X169857474Y-125538608D01*
X169827058Y-125524424D01*
X169792894Y-125507267D01*
X169758433Y-125489960D01*
X169758431Y-125489959D01*
X169758430Y-125489959D01*
X169751645Y-125487489D01*
X169751665Y-125487433D01*
X169744549Y-125484959D01*
X169744531Y-125485015D01*
X169737671Y-125482742D01*
X169709841Y-125476996D01*
X169662434Y-125467207D01*
X169610118Y-125454808D01*
X169587719Y-125449499D01*
X169580547Y-125448661D01*
X169580553Y-125448601D01*
X169573055Y-125447835D01*
X169573050Y-125447895D01*
X169565860Y-125447265D01*
X169489083Y-125449500D01*
X158549862Y-125449500D01*
X158482823Y-125429815D01*
X158437068Y-125377011D01*
X158427124Y-125307853D01*
X158456149Y-125244297D01*
X158462181Y-125237819D01*
X161363681Y-122336319D01*
X161425004Y-122302834D01*
X161451362Y-122300000D01*
X166000000Y-122300000D01*
X166800000Y-121500000D01*
X166800000Y-113251360D01*
X166819685Y-113184322D01*
X166836314Y-113163685D01*
X168000000Y-112000000D01*
X168000000Y-110174500D01*
X168019685Y-110107461D01*
X168072489Y-110061706D01*
X168124000Y-110050500D01*
X179937770Y-110050500D01*
X180004809Y-110070185D01*
G37*
%TD.AperFunction*%
%TD*%
%TA.AperFunction,Conductor*%
%TO.N,Earth_Protective*%
G36*
X208199500Y-133175500D02*
G01*
X208179815Y-133242539D01*
X208127011Y-133288294D01*
X208075500Y-133299500D01*
X178624000Y-133299500D01*
X178556961Y-133279815D01*
X178511206Y-133227011D01*
X178500000Y-133175500D01*
X178500000Y-131615946D01*
X178519685Y-131548907D01*
X178531854Y-131532970D01*
X178532533Y-131532216D01*
X178627179Y-131368284D01*
X178679549Y-131207104D01*
X178714552Y-131155914D01*
X178713279Y-131154564D01*
X178718525Y-131149613D01*
X178718530Y-131149610D01*
X178752128Y-131109569D01*
X178755750Y-131105616D01*
X178761590Y-131099777D01*
X178781923Y-131074060D01*
X178831302Y-131015214D01*
X178831309Y-131015198D01*
X178835272Y-131009176D01*
X178835324Y-131009210D01*
X178839371Y-131002858D01*
X178839317Y-131002825D01*
X178843104Y-130996684D01*
X178843110Y-130996677D01*
X178875561Y-130927086D01*
X178910036Y-130858440D01*
X178910040Y-130858433D01*
X178910042Y-130858421D01*
X178912510Y-130851644D01*
X178912568Y-130851665D01*
X178915043Y-130844546D01*
X178914985Y-130844527D01*
X178917256Y-130837672D01*
X178932784Y-130762467D01*
X178950500Y-130687720D01*
X178951339Y-130680548D01*
X178951397Y-130680554D01*
X178952164Y-130673056D01*
X178952104Y-130673051D01*
X178952733Y-130665860D01*
X178950500Y-130589103D01*
X178950500Y-128262229D01*
X178970185Y-128195190D01*
X178986819Y-128174548D01*
X179625048Y-127536319D01*
X179686371Y-127502834D01*
X179712729Y-127500000D01*
X206550000Y-127500000D01*
X208199500Y-127500000D01*
X208199500Y-133175500D01*
G37*
%TD.AperFunction*%
%TD*%
%TA.AperFunction,Conductor*%
%TO.N,+3.3V*%
G36*
X144815677Y-80419685D02*
G01*
X144836319Y-80436319D01*
X145263682Y-80863682D01*
X145297166Y-80925003D01*
X145300000Y-80951361D01*
X145300000Y-88676000D01*
X145280315Y-88743039D01*
X145227511Y-88788794D01*
X145176000Y-88800000D01*
X137749452Y-88800000D01*
X137682413Y-88780315D01*
X137661771Y-88763681D01*
X136536319Y-87638228D01*
X136502834Y-87576905D01*
X136500000Y-87550547D01*
X136500000Y-80524000D01*
X136519685Y-80456961D01*
X136572489Y-80411206D01*
X136624000Y-80400000D01*
X144748638Y-80400000D01*
X144815677Y-80419685D01*
G37*
%TD.AperFunction*%
%TD*%
%TA.AperFunction,Conductor*%
%TO.N,Earth_Protective*%
G36*
X119600000Y-65500000D02*
G01*
X119600000Y-73228691D01*
X119580315Y-73295730D01*
X119563685Y-73316368D01*
X119500783Y-73379269D01*
X119500483Y-73379570D01*
X119487911Y-73389643D01*
X119488065Y-73389830D01*
X119482059Y-73394798D01*
X119457434Y-73421020D01*
X119432809Y-73447244D01*
X119421949Y-73458104D01*
X119411088Y-73468965D01*
X119411078Y-73468977D01*
X119406587Y-73474765D01*
X119402801Y-73479197D01*
X119369552Y-73514606D01*
X119359322Y-73533213D01*
X119348646Y-73549464D01*
X119335640Y-73566232D01*
X119335636Y-73566238D01*
X119316348Y-73610811D01*
X119313777Y-73616058D01*
X119290372Y-73658630D01*
X119290372Y-73658631D01*
X119285091Y-73679199D01*
X119278791Y-73697601D01*
X119270364Y-73717073D01*
X119262766Y-73765047D01*
X119261581Y-73770770D01*
X119249500Y-73817818D01*
X119249500Y-73839044D01*
X119247973Y-73858444D01*
X119244653Y-73879403D01*
X119249225Y-73927767D01*
X119249500Y-73933606D01*
X119249500Y-75514494D01*
X119247732Y-75530505D01*
X119247974Y-75530528D01*
X119247240Y-75538294D01*
X119249500Y-75610203D01*
X119249500Y-75640920D01*
X119249501Y-75640940D01*
X119250418Y-75648206D01*
X119250876Y-75654024D01*
X119252402Y-75702567D01*
X119252403Y-75702570D01*
X119258323Y-75722948D01*
X119262268Y-75741996D01*
X119264928Y-75763054D01*
X119264931Y-75763064D01*
X119282813Y-75808230D01*
X119284705Y-75813758D01*
X119298254Y-75860395D01*
X119298255Y-75860397D01*
X119309060Y-75878666D01*
X119317617Y-75896134D01*
X119323226Y-75910300D01*
X119325432Y-75915872D01*
X119353983Y-75955170D01*
X119357188Y-75960049D01*
X119381919Y-76001865D01*
X119381923Y-76001869D01*
X119396925Y-76016871D01*
X119409563Y-76031669D01*
X119422033Y-76048833D01*
X119422036Y-76048837D01*
X119459458Y-76079794D01*
X119463781Y-76083728D01*
X119513731Y-76133676D01*
X119563682Y-76183628D01*
X119597166Y-76244949D01*
X119600000Y-76271308D01*
X119600000Y-92330500D01*
X119580315Y-92397539D01*
X119527511Y-92443294D01*
X119476000Y-92454500D01*
X105164337Y-92454500D01*
X105097298Y-92434815D01*
X105091452Y-92430818D01*
X105077734Y-92420851D01*
X105077729Y-92420848D01*
X104904807Y-92343857D01*
X104904802Y-92343855D01*
X104759000Y-92312865D01*
X104719646Y-92304500D01*
X104530354Y-92304500D01*
X104497897Y-92311398D01*
X104345197Y-92343855D01*
X104345192Y-92343857D01*
X104172270Y-92420848D01*
X104172265Y-92420851D01*
X104019129Y-92532111D01*
X103892466Y-92672785D01*
X103797821Y-92836715D01*
X103797818Y-92836722D01*
X103739327Y-93016740D01*
X103739326Y-93016744D01*
X103724158Y-93161065D01*
X103719540Y-93205002D01*
X103719540Y-93205005D01*
X103720534Y-93214467D01*
X103707962Y-93283197D01*
X103684894Y-93315104D01*
X98700000Y-98299999D01*
X98700000Y-99726509D01*
X98683388Y-99788508D01*
X98597820Y-99936718D01*
X98597818Y-99936722D01*
X98568449Y-100027112D01*
X98539326Y-100116744D01*
X98519540Y-100305000D01*
X98539326Y-100493256D01*
X98539327Y-100493259D01*
X98597818Y-100673277D01*
X98597821Y-100673284D01*
X98683387Y-100821489D01*
X98700000Y-100883489D01*
X98700000Y-102915186D01*
X98680315Y-102982225D01*
X98663681Y-103002867D01*
X98614358Y-103052190D01*
X98600729Y-103063969D01*
X98581468Y-103078308D01*
X98547898Y-103118315D01*
X98544253Y-103122294D01*
X98538409Y-103128140D01*
X98518059Y-103153877D01*
X98468695Y-103212707D01*
X98464729Y-103218737D01*
X98464682Y-103218706D01*
X98460630Y-103225065D01*
X98460679Y-103225095D01*
X98456889Y-103231239D01*
X98424424Y-103300859D01*
X98389960Y-103369484D01*
X98387488Y-103376275D01*
X98387432Y-103376254D01*
X98384960Y-103383368D01*
X98385015Y-103383387D01*
X98382742Y-103390245D01*
X98374974Y-103427864D01*
X98367207Y-103465483D01*
X98354001Y-103521202D01*
X98349498Y-103540204D01*
X98348661Y-103547372D01*
X98348601Y-103547365D01*
X98347835Y-103554863D01*
X98347895Y-103554869D01*
X98347265Y-103562058D01*
X98349500Y-103638834D01*
X98349500Y-112536294D01*
X98348191Y-112554263D01*
X98344710Y-112578025D01*
X98349264Y-112630064D01*
X98349500Y-112635470D01*
X98349500Y-112643709D01*
X98353306Y-112676274D01*
X98360000Y-112752791D01*
X98361461Y-112759867D01*
X98361403Y-112759878D01*
X98363034Y-112767237D01*
X98363092Y-112767224D01*
X98364757Y-112774250D01*
X98391025Y-112846424D01*
X98415185Y-112919331D01*
X98418236Y-112925874D01*
X98418182Y-112925898D01*
X98421470Y-112932688D01*
X98421521Y-112932663D01*
X98424761Y-112939113D01*
X98424762Y-112939114D01*
X98424763Y-112939117D01*
X98466965Y-113003282D01*
X98466965Y-113003283D01*
X98507287Y-113068655D01*
X98511766Y-113074319D01*
X98511719Y-113074356D01*
X98516482Y-113080202D01*
X98516528Y-113080164D01*
X98521173Y-113085700D01*
X98577017Y-113138385D01*
X115924270Y-130485638D01*
X115936051Y-130499270D01*
X115950388Y-130518528D01*
X115990409Y-130552111D01*
X115994397Y-130555766D01*
X116000216Y-130561585D01*
X116000220Y-130561588D01*
X116000223Y-130561591D01*
X116025959Y-130581940D01*
X116084786Y-130631302D01*
X116084787Y-130631302D01*
X116084789Y-130631304D01*
X116090818Y-130635270D01*
X116090785Y-130635319D01*
X116097147Y-130639372D01*
X116097179Y-130639321D01*
X116103319Y-130643108D01*
X116103323Y-130643111D01*
X116138132Y-130659342D01*
X116172941Y-130675575D01*
X116241565Y-130710039D01*
X116241567Y-130710040D01*
X116241569Y-130710040D01*
X116248357Y-130712511D01*
X116248336Y-130712567D01*
X116255457Y-130715043D01*
X116255476Y-130714986D01*
X116262322Y-130717254D01*
X116262327Y-130717257D01*
X116262332Y-130717258D01*
X116262335Y-130717259D01*
X116337564Y-130732792D01*
X116337565Y-130732792D01*
X116412279Y-130750500D01*
X116412281Y-130750500D01*
X116412742Y-130750554D01*
X116413036Y-130750679D01*
X116419306Y-130752165D01*
X116419052Y-130753235D01*
X116477045Y-130777884D01*
X116486035Y-130786035D01*
X118787819Y-133087819D01*
X118821304Y-133149142D01*
X118816320Y-133218834D01*
X118774448Y-133274767D01*
X118708984Y-133299184D01*
X118700138Y-133299500D01*
X93324500Y-133299500D01*
X93257461Y-133279815D01*
X93211706Y-133227011D01*
X93200500Y-133175500D01*
X93200500Y-62824500D01*
X93220185Y-62757461D01*
X93272989Y-62711706D01*
X93324500Y-62700500D01*
X119600000Y-62700500D01*
X119600000Y-65500000D01*
G37*
%TD.AperFunction*%
%TD*%
%TA.AperFunction,Conductor*%
%TO.N,GND*%
G36*
X203986822Y-104270185D02*
G01*
X204025372Y-104309485D01*
X204050757Y-104350713D01*
X204050758Y-104350715D01*
X204211075Y-104532869D01*
X204211079Y-104532873D01*
X204399870Y-104685311D01*
X204611709Y-104803652D01*
X204611712Y-104803653D01*
X204840507Y-104884491D01*
X204840513Y-104884492D01*
X205079662Y-104925499D01*
X205079670Y-104925499D01*
X205079672Y-104925500D01*
X205920500Y-104925500D01*
X205987539Y-104945185D01*
X206033294Y-104997989D01*
X206044500Y-105049500D01*
X206044500Y-106991389D01*
X206046611Y-107024000D01*
X206046611Y-107023999D01*
X206049482Y-107046085D01*
X206050000Y-107054087D01*
X206050000Y-107895689D01*
X206041183Y-107890842D01*
X205882114Y-107850000D01*
X205759106Y-107850000D01*
X205637067Y-107865417D01*
X205550000Y-107899889D01*
X205550000Y-107075000D01*
X205140461Y-107075000D01*
X204959307Y-107090417D01*
X204724559Y-107151541D01*
X204503527Y-107251453D01*
X204503519Y-107251458D01*
X204302549Y-107387291D01*
X204302546Y-107387293D01*
X204127424Y-107555135D01*
X204127423Y-107555136D01*
X203983186Y-107750156D01*
X203873978Y-107966757D01*
X203802946Y-108198700D01*
X203796377Y-108249999D01*
X203796378Y-108250000D01*
X205199272Y-108250000D01*
X205176900Y-108297543D01*
X205146127Y-108458862D01*
X205156439Y-108622766D01*
X205197780Y-108750000D01*
X203797161Y-108750000D01*
X203833536Y-108918782D01*
X203833537Y-108918785D01*
X203923978Y-109143856D01*
X204051161Y-109350415D01*
X204211422Y-109532507D01*
X204211426Y-109532511D01*
X204400144Y-109684890D01*
X204400150Y-109684894D01*
X204611917Y-109803194D01*
X204840629Y-109884003D01*
X204840637Y-109884005D01*
X205079706Y-109924999D01*
X205079715Y-109925000D01*
X205550000Y-109925000D01*
X205550000Y-109104310D01*
X205558817Y-109109158D01*
X205717886Y-109150000D01*
X205840894Y-109150000D01*
X205962933Y-109134583D01*
X206050000Y-109100110D01*
X206050000Y-109976362D01*
X206048843Y-109976362D01*
X206049501Y-109994771D01*
X206044500Y-110029554D01*
X206044500Y-117150500D01*
X206024815Y-117217539D01*
X205972011Y-117263294D01*
X205920500Y-117274500D01*
X205140441Y-117274500D01*
X204959224Y-117289923D01*
X204959222Y-117289924D01*
X204724391Y-117351068D01*
X204724388Y-117351069D01*
X204503286Y-117451013D01*
X204503274Y-117451020D01*
X204302234Y-117586900D01*
X204302232Y-117586902D01*
X204127047Y-117754803D01*
X204127046Y-117754804D01*
X204020226Y-117899235D01*
X203964536Y-117941429D01*
X203920531Y-117949500D01*
X195180217Y-117949500D01*
X195113178Y-117929815D01*
X195074628Y-117890515D01*
X195049242Y-117849286D01*
X195049241Y-117849284D01*
X194888924Y-117667130D01*
X194888920Y-117667126D01*
X194700129Y-117514688D01*
X194488290Y-117396347D01*
X194259500Y-117315511D01*
X194259486Y-117315507D01*
X194020337Y-117274500D01*
X194020328Y-117274500D01*
X192640446Y-117274500D01*
X192640441Y-117274500D01*
X192459224Y-117289923D01*
X192459222Y-117289924D01*
X192224391Y-117351068D01*
X192224388Y-117351069D01*
X192003286Y-117451013D01*
X192003274Y-117451020D01*
X191802234Y-117586900D01*
X191802232Y-117586902D01*
X191627047Y-117754803D01*
X191627046Y-117754804D01*
X191482758Y-117949893D01*
X191373515Y-118166565D01*
X191373512Y-118166571D01*
X191302456Y-118398594D01*
X191271635Y-118639281D01*
X191281933Y-118881715D01*
X191281933Y-118881719D01*
X191333056Y-119118929D01*
X191333057Y-119118932D01*
X191423530Y-119344082D01*
X191550757Y-119550713D01*
X191711075Y-119732869D01*
X191711079Y-119732873D01*
X191899870Y-119885311D01*
X192111709Y-120003652D01*
X192111712Y-120003653D01*
X192340507Y-120084491D01*
X192340513Y-120084492D01*
X192579662Y-120125499D01*
X192579670Y-120125499D01*
X192579672Y-120125500D01*
X192579673Y-120125500D01*
X193959559Y-120125500D01*
X194140775Y-120110076D01*
X194140775Y-120110075D01*
X194140782Y-120110075D01*
X194375608Y-120048931D01*
X194375611Y-120048930D01*
X194596713Y-119948986D01*
X194596716Y-119948983D01*
X194596723Y-119948981D01*
X194797765Y-119813100D01*
X194972952Y-119645197D01*
X195079773Y-119500765D01*
X195135464Y-119458571D01*
X195179469Y-119450500D01*
X203919783Y-119450500D01*
X203986822Y-119470185D01*
X204025372Y-119509485D01*
X204050757Y-119550713D01*
X204050758Y-119550715D01*
X204211075Y-119732869D01*
X204211079Y-119732873D01*
X204399870Y-119885311D01*
X204611709Y-120003652D01*
X204611712Y-120003653D01*
X204840507Y-120084491D01*
X204840513Y-120084492D01*
X205079662Y-120125499D01*
X205079670Y-120125499D01*
X205079672Y-120125500D01*
X205920500Y-120125500D01*
X205987539Y-120145185D01*
X206033294Y-120197989D01*
X206044500Y-120249500D01*
X206044500Y-122191389D01*
X206046611Y-122224000D01*
X206046611Y-122223999D01*
X206049482Y-122246085D01*
X206050000Y-122254087D01*
X206050000Y-123095689D01*
X206041183Y-123090842D01*
X205882114Y-123050000D01*
X205759106Y-123050000D01*
X205637067Y-123065417D01*
X205550000Y-123099889D01*
X205550000Y-122275000D01*
X205140461Y-122275000D01*
X204959307Y-122290417D01*
X204724559Y-122351541D01*
X204503527Y-122451453D01*
X204503519Y-122451458D01*
X204302549Y-122587291D01*
X204302546Y-122587293D01*
X204127424Y-122755135D01*
X204127423Y-122755136D01*
X203983186Y-122950156D01*
X203873978Y-123166757D01*
X203802946Y-123398700D01*
X203796377Y-123449999D01*
X203796378Y-123450000D01*
X205199272Y-123450000D01*
X205176900Y-123497543D01*
X205146127Y-123658862D01*
X205156439Y-123822766D01*
X205197780Y-123950000D01*
X203797161Y-123950000D01*
X203833536Y-124118782D01*
X203833537Y-124118785D01*
X203923978Y-124343856D01*
X204051161Y-124550415D01*
X204211422Y-124732507D01*
X204211426Y-124732511D01*
X204400144Y-124884890D01*
X204400150Y-124884894D01*
X204611917Y-125003194D01*
X204840629Y-125084003D01*
X204840637Y-125084005D01*
X205079706Y-125124999D01*
X205079715Y-125125000D01*
X205550000Y-125125000D01*
X205550000Y-124304310D01*
X205558817Y-124309158D01*
X205717886Y-124350000D01*
X205840894Y-124350000D01*
X205962933Y-124334583D01*
X206050000Y-124300110D01*
X206050000Y-125176362D01*
X206048843Y-125176362D01*
X206049501Y-125194769D01*
X206044500Y-125229553D01*
X206044500Y-126870500D01*
X206024815Y-126937539D01*
X205972011Y-126983294D01*
X205920500Y-126994500D01*
X190824000Y-126994500D01*
X190756961Y-126974815D01*
X190711206Y-126922011D01*
X190700000Y-126870500D01*
X190700000Y-123449999D01*
X191296377Y-123449999D01*
X191296378Y-123450000D01*
X192699272Y-123450000D01*
X192676900Y-123497543D01*
X192646127Y-123658862D01*
X192656439Y-123822766D01*
X192697780Y-123950000D01*
X191297161Y-123950000D01*
X191333536Y-124118782D01*
X191333537Y-124118785D01*
X191423978Y-124343856D01*
X191551161Y-124550415D01*
X191711422Y-124732507D01*
X191711426Y-124732511D01*
X191900144Y-124884890D01*
X191900150Y-124884894D01*
X192111917Y-125003194D01*
X192340629Y-125084003D01*
X192340637Y-125084005D01*
X192579706Y-125124999D01*
X192579715Y-125125000D01*
X193050000Y-125125000D01*
X193050000Y-124304310D01*
X193058817Y-124309158D01*
X193217886Y-124350000D01*
X193340894Y-124350000D01*
X193462933Y-124334583D01*
X193550000Y-124300110D01*
X193550000Y-125125000D01*
X193959539Y-125125000D01*
X194140692Y-125109582D01*
X194375440Y-125048458D01*
X194596472Y-124948546D01*
X194596480Y-124948541D01*
X194797450Y-124812708D01*
X194797453Y-124812706D01*
X194972575Y-124644864D01*
X194972576Y-124644863D01*
X195116813Y-124449843D01*
X195226021Y-124233242D01*
X195297053Y-124001299D01*
X195303622Y-123950000D01*
X193900728Y-123950000D01*
X193923100Y-123902457D01*
X193953873Y-123741138D01*
X193943561Y-123577234D01*
X193902220Y-123450000D01*
X195302839Y-123450000D01*
X195266463Y-123281217D01*
X195266462Y-123281214D01*
X195176021Y-123056143D01*
X195048838Y-122849584D01*
X194888577Y-122667492D01*
X194888573Y-122667488D01*
X194699855Y-122515109D01*
X194699849Y-122515105D01*
X194488082Y-122396805D01*
X194259370Y-122315996D01*
X194259362Y-122315994D01*
X194020293Y-122275000D01*
X193550000Y-122275000D01*
X193550000Y-123095689D01*
X193541183Y-123090842D01*
X193382114Y-123050000D01*
X193259106Y-123050000D01*
X193137067Y-123065417D01*
X193050000Y-123099889D01*
X193050000Y-122275000D01*
X192640461Y-122275000D01*
X192459307Y-122290417D01*
X192224559Y-122351541D01*
X192003527Y-122451453D01*
X192003519Y-122451458D01*
X191802549Y-122587291D01*
X191802546Y-122587293D01*
X191627424Y-122755135D01*
X191627423Y-122755136D01*
X191483186Y-122950156D01*
X191373978Y-123166757D01*
X191302946Y-123398700D01*
X191296377Y-123449999D01*
X190700000Y-123449999D01*
X190700000Y-116271307D01*
X190719685Y-116204268D01*
X190736319Y-116183626D01*
X191599513Y-115320431D01*
X191612079Y-115310365D01*
X191611925Y-115310178D01*
X191617937Y-115305204D01*
X191617937Y-115305203D01*
X191617940Y-115305202D01*
X191667190Y-115252755D01*
X191688911Y-115231035D01*
X191693401Y-115225245D01*
X191697183Y-115220815D01*
X191730448Y-115185393D01*
X191740674Y-115166790D01*
X191751353Y-115150533D01*
X191764362Y-115133764D01*
X191783656Y-115089175D01*
X191786212Y-115083956D01*
X191809627Y-115041368D01*
X191814905Y-115020806D01*
X191821207Y-115002399D01*
X191829635Y-114982927D01*
X191837233Y-114934953D01*
X191838414Y-114929247D01*
X191850500Y-114882177D01*
X191850500Y-114860949D01*
X191852027Y-114841549D01*
X191855346Y-114820595D01*
X191850775Y-114772238D01*
X191850500Y-114766400D01*
X191850500Y-111985503D01*
X191852268Y-111969491D01*
X191852026Y-111969469D01*
X191852760Y-111961706D01*
X191850500Y-111889782D01*
X191850500Y-111859077D01*
X191850500Y-111859075D01*
X191849579Y-111851792D01*
X191849123Y-111845987D01*
X191847598Y-111797431D01*
X191841676Y-111777050D01*
X191837731Y-111757995D01*
X191835072Y-111736949D01*
X191835071Y-111736948D01*
X191835071Y-111736942D01*
X191817189Y-111691779D01*
X191815300Y-111686259D01*
X191813044Y-111678494D01*
X191801745Y-111639602D01*
X191801142Y-111638583D01*
X191790936Y-111621324D01*
X191782378Y-111603855D01*
X191774568Y-111584129D01*
X191746006Y-111544818D01*
X191742818Y-111539964D01*
X191718081Y-111498135D01*
X191703074Y-111483128D01*
X191690435Y-111468330D01*
X191677961Y-111451160D01*
X191640528Y-111420194D01*
X191636206Y-111416260D01*
X190736319Y-110516373D01*
X190702834Y-110455050D01*
X190700000Y-110428692D01*
X190700000Y-108249999D01*
X191296377Y-108249999D01*
X191296378Y-108250000D01*
X192699272Y-108250000D01*
X192676900Y-108297543D01*
X192646127Y-108458862D01*
X192656439Y-108622766D01*
X192697780Y-108750000D01*
X191297161Y-108750000D01*
X191333536Y-108918782D01*
X191333537Y-108918785D01*
X191423978Y-109143856D01*
X191551161Y-109350415D01*
X191711422Y-109532507D01*
X191711426Y-109532511D01*
X191900144Y-109684890D01*
X191900150Y-109684894D01*
X192111917Y-109803194D01*
X192340629Y-109884003D01*
X192340637Y-109884005D01*
X192579706Y-109924999D01*
X192579715Y-109925000D01*
X193050000Y-109925000D01*
X193050000Y-109104310D01*
X193058817Y-109109158D01*
X193217886Y-109150000D01*
X193340894Y-109150000D01*
X193462933Y-109134583D01*
X193550000Y-109100110D01*
X193550000Y-109925000D01*
X193959539Y-109925000D01*
X194140692Y-109909582D01*
X194375440Y-109848458D01*
X194596472Y-109748546D01*
X194596480Y-109748541D01*
X194797450Y-109612708D01*
X194797453Y-109612706D01*
X194972575Y-109444864D01*
X194972576Y-109444863D01*
X195116813Y-109249843D01*
X195226021Y-109033242D01*
X195297053Y-108801299D01*
X195303622Y-108750000D01*
X193900728Y-108750000D01*
X193923100Y-108702457D01*
X193953873Y-108541138D01*
X193943561Y-108377234D01*
X193902220Y-108250000D01*
X195302839Y-108250000D01*
X195266463Y-108081217D01*
X195266462Y-108081214D01*
X195176021Y-107856143D01*
X195048838Y-107649584D01*
X194888577Y-107467492D01*
X194888573Y-107467488D01*
X194699855Y-107315109D01*
X194699849Y-107315105D01*
X194488082Y-107196805D01*
X194259370Y-107115996D01*
X194259362Y-107115994D01*
X194020293Y-107075000D01*
X193550000Y-107075000D01*
X193550000Y-107895689D01*
X193541183Y-107890842D01*
X193382114Y-107850000D01*
X193259106Y-107850000D01*
X193137067Y-107865417D01*
X193050000Y-107899889D01*
X193050000Y-107075000D01*
X192640461Y-107075000D01*
X192459307Y-107090417D01*
X192224559Y-107151541D01*
X192003527Y-107251453D01*
X192003519Y-107251458D01*
X191802549Y-107387291D01*
X191802546Y-107387293D01*
X191627424Y-107555135D01*
X191627423Y-107555136D01*
X191483186Y-107750156D01*
X191373978Y-107966757D01*
X191302946Y-108198700D01*
X191296377Y-108249999D01*
X190700000Y-108249999D01*
X190700000Y-104429500D01*
X190719685Y-104362461D01*
X190772489Y-104316706D01*
X190824000Y-104305500D01*
X191157578Y-104305500D01*
X191157579Y-104305500D01*
X191275495Y-104291555D01*
X191331747Y-104278061D01*
X191378538Y-104260813D01*
X191448247Y-104256098D01*
X191509441Y-104289819D01*
X191527012Y-104312148D01*
X191550757Y-104350713D01*
X191711075Y-104532869D01*
X191711079Y-104532873D01*
X191899870Y-104685311D01*
X192111709Y-104803652D01*
X192111712Y-104803653D01*
X192340507Y-104884491D01*
X192340513Y-104884492D01*
X192579662Y-104925499D01*
X192579670Y-104925499D01*
X192579672Y-104925500D01*
X192579673Y-104925500D01*
X193959559Y-104925500D01*
X194140775Y-104910076D01*
X194140775Y-104910075D01*
X194140782Y-104910075D01*
X194375608Y-104848931D01*
X194375611Y-104848930D01*
X194596713Y-104748986D01*
X194596716Y-104748983D01*
X194596723Y-104748981D01*
X194797765Y-104613100D01*
X194972952Y-104445197D01*
X195079773Y-104300765D01*
X195135464Y-104258571D01*
X195179469Y-104250500D01*
X203919783Y-104250500D01*
X203986822Y-104270185D01*
G37*
%TD.AperFunction*%
%TD*%
%TA.AperFunction,Conductor*%
%TO.N,/CH1_AMP_P*%
G36*
X110286580Y-102219685D02*
G01*
X110326928Y-102262001D01*
X110367463Y-102332211D01*
X110367465Y-102332214D01*
X110494129Y-102472888D01*
X110647265Y-102584148D01*
X110647270Y-102584151D01*
X110820192Y-102661142D01*
X110820197Y-102661144D01*
X111005354Y-102700500D01*
X111005355Y-102700500D01*
X111194644Y-102700500D01*
X111194646Y-102700500D01*
X111379803Y-102661144D01*
X111552730Y-102584151D01*
X111554776Y-102582664D01*
X111566452Y-102574182D01*
X111632258Y-102550702D01*
X111639337Y-102550500D01*
X112360663Y-102550500D01*
X112427702Y-102570185D01*
X112433548Y-102574182D01*
X112447265Y-102584148D01*
X112447270Y-102584151D01*
X112620192Y-102661142D01*
X112620197Y-102661144D01*
X112805354Y-102700500D01*
X112805355Y-102700500D01*
X112994644Y-102700500D01*
X112994646Y-102700500D01*
X113179803Y-102661144D01*
X113352730Y-102584151D01*
X113505871Y-102472888D01*
X113632533Y-102332216D01*
X113637277Y-102324000D01*
X113673072Y-102262001D01*
X113723638Y-102213785D01*
X113780459Y-102200000D01*
X135176000Y-102200000D01*
X135243039Y-102219685D01*
X135288794Y-102272489D01*
X135300000Y-102324000D01*
X135300000Y-124676995D01*
X135280315Y-124744034D01*
X135263681Y-124764676D01*
X135215176Y-124813181D01*
X135153853Y-124846666D01*
X135127495Y-124849500D01*
X115432080Y-124849500D01*
X115365041Y-124829815D01*
X115344399Y-124813181D01*
X106336319Y-115805101D01*
X106302834Y-115743778D01*
X106300000Y-115717420D01*
X106300000Y-104942728D01*
X106319685Y-104875689D01*
X106336313Y-104855052D01*
X106410644Y-104780721D01*
X106424267Y-104768950D01*
X106443530Y-104754610D01*
X106443532Y-104754606D01*
X106443534Y-104754606D01*
X106461663Y-104732999D01*
X106477113Y-104714585D01*
X106480767Y-104710599D01*
X106486589Y-104704778D01*
X106506928Y-104679054D01*
X106512162Y-104672815D01*
X106556302Y-104620214D01*
X106556304Y-104620209D01*
X106560272Y-104614179D01*
X106560323Y-104614212D01*
X106564369Y-104607860D01*
X106564317Y-104607828D01*
X106568109Y-104601679D01*
X106568111Y-104601677D01*
X106600569Y-104532069D01*
X106635040Y-104463433D01*
X106635043Y-104463417D01*
X106637510Y-104456644D01*
X106637568Y-104456665D01*
X106640043Y-104449546D01*
X106639985Y-104449527D01*
X106642256Y-104442672D01*
X106657784Y-104367467D01*
X106675500Y-104292720D01*
X106676339Y-104285548D01*
X106676397Y-104285554D01*
X106677164Y-104278056D01*
X106677104Y-104278051D01*
X106677733Y-104270860D01*
X106675500Y-104194103D01*
X106675500Y-102324000D01*
X106695185Y-102256961D01*
X106747989Y-102211206D01*
X106799500Y-102200000D01*
X110219541Y-102200000D01*
X110286580Y-102219685D01*
G37*
%TD.AperFunction*%
%TD*%
%TA.AperFunction,Conductor*%
%TO.N,GND*%
G36*
X170705825Y-65269685D02*
G01*
X170719989Y-65280287D01*
X170749163Y-65305567D01*
X170749167Y-65305569D01*
X170876435Y-65363692D01*
X170880040Y-65365338D01*
X170924856Y-65378497D01*
X170947074Y-65385022D01*
X170947079Y-65385023D01*
X170947083Y-65385024D01*
X171089499Y-65405500D01*
X180490500Y-65405500D01*
X180557539Y-65425185D01*
X180603294Y-65477989D01*
X180614500Y-65529499D01*
X180614500Y-65674759D01*
X180648919Y-65969228D01*
X180655077Y-66021914D01*
X180655077Y-66021916D01*
X180735680Y-66362009D01*
X180735681Y-66362012D01*
X180855223Y-66690452D01*
X180855226Y-66690458D01*
X181012088Y-67002796D01*
X181204146Y-67294805D01*
X181204152Y-67294813D01*
X181304572Y-67414488D01*
X181428817Y-67562558D01*
X181560117Y-67686433D01*
X181683044Y-67802410D01*
X181683050Y-67802415D01*
X181963402Y-68011129D01*
X182096990Y-68088256D01*
X182266096Y-68185889D01*
X182587029Y-68324326D01*
X182921864Y-68424569D01*
X182921866Y-68424569D01*
X182921872Y-68424571D01*
X183266061Y-68485260D01*
X183266062Y-68485260D01*
X183266073Y-68485262D01*
X183527695Y-68500500D01*
X183527697Y-68500500D01*
X184472303Y-68500500D01*
X184472305Y-68500500D01*
X184733927Y-68485262D01*
X184777854Y-68477516D01*
X185078127Y-68424571D01*
X185078130Y-68424569D01*
X185078136Y-68424569D01*
X185412971Y-68324326D01*
X185733904Y-68185889D01*
X186036596Y-68011130D01*
X186316953Y-67802412D01*
X186571183Y-67562558D01*
X186795849Y-67294811D01*
X186987913Y-67002793D01*
X187144777Y-66690451D01*
X187264319Y-66362011D01*
X187344923Y-66021914D01*
X187385500Y-65674759D01*
X187385500Y-65529500D01*
X187405185Y-65462461D01*
X187457989Y-65416706D01*
X187509500Y-65405500D01*
X205920500Y-65405500D01*
X205987539Y-65425185D01*
X206033294Y-65477989D01*
X206044500Y-65529500D01*
X206044500Y-70504138D01*
X206024815Y-70571177D01*
X206008181Y-70591819D01*
X206000000Y-70600000D01*
X206000000Y-70745690D01*
X205980315Y-70812729D01*
X205927511Y-70858484D01*
X205916263Y-70862971D01*
X205745396Y-70921630D01*
X205745390Y-70921632D01*
X205526761Y-71039949D01*
X205479942Y-71076388D01*
X205479942Y-71076390D01*
X206217466Y-71813913D01*
X206207685Y-71815320D01*
X206076900Y-71875048D01*
X205968239Y-71969202D01*
X205890507Y-72090156D01*
X205866923Y-72170475D01*
X205126564Y-71430116D01*
X205026267Y-71583632D01*
X204926412Y-71811282D01*
X204865387Y-72052261D01*
X204865385Y-72052270D01*
X204844859Y-72299994D01*
X204844859Y-72300005D01*
X204865385Y-72547729D01*
X204865387Y-72547738D01*
X204926412Y-72788717D01*
X205026266Y-73016364D01*
X205126564Y-73169882D01*
X205866923Y-72429523D01*
X205890507Y-72509844D01*
X205968239Y-72630798D01*
X206076900Y-72724952D01*
X206207685Y-72784680D01*
X206217464Y-72786086D01*
X205479942Y-73523609D01*
X205526768Y-73560055D01*
X205526770Y-73560056D01*
X205745385Y-73678364D01*
X205745395Y-73678369D01*
X205962741Y-73752984D01*
X206019756Y-73793369D01*
X206045887Y-73858169D01*
X206045218Y-73887900D01*
X206044500Y-73892895D01*
X206044500Y-75723742D01*
X206044567Y-75725789D01*
X206027082Y-75793436D01*
X205975800Y-75840890D01*
X205960896Y-75847119D01*
X205745197Y-75921169D01*
X205745188Y-75921172D01*
X205526493Y-76039524D01*
X205330257Y-76192261D01*
X205161836Y-76375215D01*
X205084673Y-76493322D01*
X205031526Y-76538678D01*
X204980864Y-76549500D01*
X194163705Y-76549500D01*
X194145735Y-76548191D01*
X194121972Y-76544710D01*
X194076533Y-76548686D01*
X194069931Y-76549264D01*
X194064530Y-76549500D01*
X194056289Y-76549500D01*
X194034579Y-76552037D01*
X194023724Y-76553306D01*
X194008419Y-76554645D01*
X193947199Y-76560001D01*
X193940132Y-76561460D01*
X193940120Y-76561404D01*
X193932763Y-76563035D01*
X193932777Y-76563092D01*
X193925743Y-76564759D01*
X193853575Y-76591025D01*
X193780675Y-76615181D01*
X193774126Y-76618236D01*
X193774101Y-76618183D01*
X193767308Y-76621471D01*
X193767334Y-76621523D01*
X193760880Y-76624764D01*
X193696708Y-76666971D01*
X193631347Y-76707285D01*
X193625683Y-76711765D01*
X193625647Y-76711719D01*
X193619798Y-76716484D01*
X193619835Y-76716528D01*
X193614310Y-76721164D01*
X193561598Y-76777034D01*
X193479298Y-76859334D01*
X193417974Y-76892818D01*
X193348283Y-76887833D01*
X193292349Y-76845962D01*
X193276348Y-76815715D01*
X193276123Y-76815815D01*
X193274771Y-76812733D01*
X193274332Y-76811903D01*
X193274062Y-76811116D01*
X193174173Y-76583393D01*
X193038166Y-76375217D01*
X193017860Y-76353159D01*
X192869744Y-76192262D01*
X192768623Y-76113556D01*
X192727810Y-76056846D01*
X192723697Y-76027249D01*
X191982534Y-75286086D01*
X191992315Y-75284680D01*
X192123100Y-75224952D01*
X192231761Y-75130798D01*
X192309493Y-75009844D01*
X192333076Y-74929524D01*
X193073434Y-75669882D01*
X193173731Y-75516369D01*
X193273587Y-75288717D01*
X193334612Y-75047738D01*
X193334614Y-75047729D01*
X193355141Y-74800005D01*
X193355141Y-74799994D01*
X193334614Y-74552270D01*
X193334612Y-74552261D01*
X193273587Y-74311282D01*
X193173732Y-74083632D01*
X193061515Y-73911870D01*
X193041328Y-73844981D01*
X193060508Y-73777795D01*
X193091013Y-73744782D01*
X193092329Y-73743796D01*
X193092331Y-73743796D01*
X193207546Y-73657546D01*
X193293796Y-73542331D01*
X193344091Y-73407483D01*
X193350500Y-73347873D01*
X193350499Y-71252128D01*
X193344091Y-71192517D01*
X193336971Y-71173428D01*
X193293797Y-71057671D01*
X193293793Y-71057664D01*
X193207547Y-70942455D01*
X193207544Y-70942452D01*
X193092335Y-70856206D01*
X193092328Y-70856202D01*
X192957482Y-70805908D01*
X192957483Y-70805908D01*
X192897883Y-70799501D01*
X192897881Y-70799500D01*
X192897873Y-70799500D01*
X192897864Y-70799500D01*
X190802129Y-70799500D01*
X190802123Y-70799501D01*
X190742516Y-70805908D01*
X190607671Y-70856202D01*
X190607664Y-70856206D01*
X190492455Y-70942452D01*
X190492452Y-70942455D01*
X190406206Y-71057664D01*
X190406202Y-71057671D01*
X190355908Y-71192517D01*
X190349501Y-71252116D01*
X190349501Y-71252123D01*
X190349500Y-71252135D01*
X190349500Y-71425500D01*
X190329815Y-71492539D01*
X190277011Y-71538294D01*
X190225500Y-71549500D01*
X189789337Y-71549500D01*
X189722298Y-71529815D01*
X189716452Y-71525818D01*
X189702734Y-71515851D01*
X189702729Y-71515848D01*
X189529807Y-71438857D01*
X189529802Y-71438855D01*
X189384000Y-71407865D01*
X189344646Y-71399500D01*
X189155354Y-71399500D01*
X189122897Y-71406398D01*
X188970197Y-71438855D01*
X188970192Y-71438857D01*
X188797270Y-71515848D01*
X188797265Y-71515851D01*
X188783548Y-71525818D01*
X188717742Y-71549298D01*
X188710663Y-71549500D01*
X181463705Y-71549500D01*
X181445735Y-71548191D01*
X181421972Y-71544710D01*
X181376890Y-71548655D01*
X181369933Y-71549264D01*
X181364532Y-71549500D01*
X181356288Y-71549500D01*
X181323707Y-71553308D01*
X181247199Y-71560001D01*
X181240133Y-71561461D01*
X181240121Y-71561404D01*
X181232752Y-71563038D01*
X181232766Y-71563095D01*
X181225741Y-71564759D01*
X181153556Y-71591033D01*
X181080670Y-71615185D01*
X181080667Y-71615186D01*
X181080665Y-71615187D01*
X181080662Y-71615188D01*
X181074128Y-71618236D01*
X181074102Y-71618182D01*
X181067306Y-71621472D01*
X181067332Y-71621524D01*
X181060884Y-71624762D01*
X180996699Y-71666977D01*
X180931350Y-71707284D01*
X180925682Y-71711766D01*
X180925646Y-71711720D01*
X180919798Y-71716484D01*
X180919835Y-71716528D01*
X180914310Y-71721164D01*
X180861597Y-71777035D01*
X166711681Y-85926951D01*
X166650358Y-85960436D01*
X166580666Y-85955452D01*
X166524733Y-85913580D01*
X166500316Y-85848116D01*
X166500000Y-85839270D01*
X166500000Y-85152172D01*
X166499999Y-85152155D01*
X166493598Y-85092627D01*
X166493596Y-85092620D01*
X166443354Y-84957913D01*
X166443350Y-84957906D01*
X166357190Y-84842812D01*
X166357187Y-84842809D01*
X166242093Y-84756649D01*
X166242086Y-84756645D01*
X166107379Y-84706403D01*
X166107372Y-84706401D01*
X166071022Y-84702493D01*
X166006471Y-84675755D01*
X165966623Y-84618362D01*
X165964130Y-84548537D01*
X165999783Y-84488448D01*
X166013156Y-84477628D01*
X166038819Y-84459658D01*
X166199657Y-84298820D01*
X166330134Y-84112482D01*
X166426265Y-83906326D01*
X166426269Y-83906317D01*
X166478872Y-83710000D01*
X165515686Y-83710000D01*
X165527641Y-83698045D01*
X165585165Y-83585148D01*
X165604986Y-83460000D01*
X165585165Y-83334852D01*
X165527641Y-83221955D01*
X165515686Y-83210000D01*
X166478872Y-83210000D01*
X166478872Y-83209999D01*
X166426269Y-83013682D01*
X166426265Y-83013673D01*
X166330134Y-82807517D01*
X166199657Y-82621179D01*
X166038820Y-82460342D01*
X165852481Y-82329865D01*
X165852479Y-82329864D01*
X165793543Y-82302382D01*
X165741103Y-82256210D01*
X165721951Y-82189017D01*
X165742166Y-82122136D01*
X165793543Y-82077618D01*
X165852479Y-82050135D01*
X165852481Y-82050134D01*
X166038820Y-81919657D01*
X166199657Y-81758820D01*
X166330134Y-81572482D01*
X166426265Y-81366326D01*
X166426269Y-81366317D01*
X166478872Y-81170000D01*
X165515686Y-81170000D01*
X165527641Y-81158045D01*
X165585165Y-81045148D01*
X165604986Y-80920000D01*
X165585165Y-80794852D01*
X165527641Y-80681955D01*
X165515686Y-80670000D01*
X166478872Y-80670000D01*
X166478872Y-80669999D01*
X166426269Y-80473682D01*
X166426265Y-80473673D01*
X166330134Y-80267517D01*
X166199657Y-80081179D01*
X166038820Y-79920342D01*
X165852481Y-79789865D01*
X165852479Y-79789864D01*
X165793543Y-79762382D01*
X165741103Y-79716210D01*
X165721951Y-79649017D01*
X165742166Y-79582136D01*
X165793543Y-79537618D01*
X165852479Y-79510135D01*
X165852481Y-79510134D01*
X166038820Y-79379657D01*
X166199657Y-79218820D01*
X166330134Y-79032482D01*
X166426265Y-78826326D01*
X166426269Y-78826317D01*
X166478872Y-78630000D01*
X165515686Y-78630000D01*
X165527641Y-78618045D01*
X165585165Y-78505148D01*
X165604986Y-78380000D01*
X165585165Y-78254852D01*
X165527641Y-78141955D01*
X165515686Y-78130000D01*
X166478872Y-78130000D01*
X166478872Y-78129999D01*
X166426269Y-77933682D01*
X166426265Y-77933673D01*
X166330134Y-77727517D01*
X166199657Y-77541179D01*
X166038820Y-77380342D01*
X165852482Y-77249865D01*
X165646328Y-77153734D01*
X165450000Y-77101127D01*
X165450000Y-78064314D01*
X165438045Y-78052359D01*
X165325148Y-77994835D01*
X165231481Y-77980000D01*
X165168519Y-77980000D01*
X165074852Y-77994835D01*
X164961955Y-78052359D01*
X164950000Y-78064314D01*
X164950000Y-77101127D01*
X164753671Y-77153734D01*
X164547517Y-77249865D01*
X164361179Y-77380342D01*
X164200342Y-77541179D01*
X164069865Y-77727517D01*
X163973734Y-77933673D01*
X163973730Y-77933682D01*
X163921127Y-78129999D01*
X163921128Y-78130000D01*
X164884314Y-78130000D01*
X164872359Y-78141955D01*
X164814835Y-78254852D01*
X164795014Y-78380000D01*
X164814835Y-78505148D01*
X164872359Y-78618045D01*
X164884314Y-78630000D01*
X163921128Y-78630000D01*
X163973730Y-78826317D01*
X163973734Y-78826326D01*
X164069865Y-79032482D01*
X164200342Y-79218820D01*
X164361179Y-79379657D01*
X164547517Y-79510134D01*
X164606457Y-79537618D01*
X164658896Y-79583790D01*
X164678048Y-79650984D01*
X164657832Y-79717865D01*
X164606457Y-79762382D01*
X164547517Y-79789865D01*
X164361179Y-79920342D01*
X164200342Y-80081179D01*
X164069865Y-80267517D01*
X163973734Y-80473673D01*
X163973730Y-80473682D01*
X163921127Y-80669999D01*
X163921128Y-80670000D01*
X164884314Y-80670000D01*
X164872359Y-80681955D01*
X164814835Y-80794852D01*
X164795014Y-80920000D01*
X164814835Y-81045148D01*
X164872359Y-81158045D01*
X164884314Y-81170000D01*
X163921128Y-81170000D01*
X163973730Y-81366317D01*
X163973734Y-81366326D01*
X164069865Y-81572482D01*
X164200342Y-81758820D01*
X164361179Y-81919657D01*
X164547517Y-82050134D01*
X164606457Y-82077618D01*
X164658896Y-82123790D01*
X164678048Y-82190984D01*
X164657832Y-82257865D01*
X164606457Y-82302382D01*
X164547517Y-82329865D01*
X164361179Y-82460342D01*
X164200342Y-82621179D01*
X164069865Y-82807517D01*
X163973734Y-83013673D01*
X163973730Y-83013682D01*
X163921127Y-83209999D01*
X163921128Y-83210000D01*
X164884314Y-83210000D01*
X164872359Y-83221955D01*
X164814835Y-83334852D01*
X164795014Y-83460000D01*
X164814835Y-83585148D01*
X164872359Y-83698045D01*
X164884314Y-83710000D01*
X163921128Y-83710000D01*
X163973730Y-83906317D01*
X163973734Y-83906326D01*
X164069865Y-84112482D01*
X164200342Y-84298820D01*
X164361183Y-84459661D01*
X164386845Y-84477630D01*
X164430470Y-84532207D01*
X164437662Y-84601705D01*
X164406140Y-84664060D01*
X164345909Y-84699473D01*
X164328978Y-84702493D01*
X164292626Y-84706401D01*
X164292620Y-84706403D01*
X164157913Y-84756645D01*
X164157906Y-84756649D01*
X164042812Y-84842809D01*
X164042809Y-84842812D01*
X163956649Y-84957906D01*
X163956645Y-84957913D01*
X163906403Y-85092620D01*
X163906401Y-85092627D01*
X163900000Y-85152155D01*
X163900000Y-85750000D01*
X164884314Y-85750000D01*
X164872359Y-85761955D01*
X164814835Y-85874852D01*
X164795014Y-86000000D01*
X164814835Y-86125148D01*
X164872359Y-86238045D01*
X164884314Y-86250000D01*
X163900000Y-86250000D01*
X163900000Y-86847844D01*
X163906401Y-86907372D01*
X163906403Y-86907379D01*
X163956645Y-87042086D01*
X163956649Y-87042093D01*
X164042809Y-87157187D01*
X164042812Y-87157190D01*
X164157906Y-87243350D01*
X164157913Y-87243354D01*
X164292620Y-87293596D01*
X164292627Y-87293598D01*
X164352155Y-87299999D01*
X164352172Y-87300000D01*
X165039270Y-87300000D01*
X165106309Y-87319685D01*
X165152064Y-87372489D01*
X165162008Y-87441647D01*
X165132983Y-87505203D01*
X165126951Y-87511681D01*
X162738415Y-89900215D01*
X162738409Y-89900223D01*
X162736680Y-89902409D01*
X162736093Y-89902824D01*
X162736015Y-89902913D01*
X162735994Y-89902894D01*
X162679661Y-89942786D01*
X162639413Y-89949500D01*
X160924000Y-89949500D01*
X160856961Y-89929815D01*
X160811206Y-89877011D01*
X160800000Y-89825500D01*
X160800000Y-87571306D01*
X160819685Y-87504267D01*
X160836313Y-87483630D01*
X160999515Y-87320428D01*
X161012086Y-87310359D01*
X161011931Y-87310172D01*
X161017933Y-87305205D01*
X161017940Y-87305202D01*
X161067205Y-87252739D01*
X161088911Y-87231034D01*
X161093403Y-87225241D01*
X161097193Y-87220805D01*
X161130448Y-87185393D01*
X161140670Y-87166796D01*
X161151355Y-87150531D01*
X161164363Y-87133763D01*
X161183651Y-87089187D01*
X161186224Y-87083936D01*
X161186561Y-87083321D01*
X161209627Y-87041368D01*
X161214904Y-87020808D01*
X161221206Y-87002403D01*
X161229636Y-86982926D01*
X161237235Y-86934945D01*
X161238417Y-86929234D01*
X161250500Y-86882177D01*
X161250500Y-86860954D01*
X161252027Y-86841555D01*
X161255347Y-86820595D01*
X161250775Y-86772230D01*
X161250500Y-86766392D01*
X161250500Y-70497870D01*
X197349500Y-70497870D01*
X197349501Y-70497876D01*
X197355908Y-70557483D01*
X197406202Y-70692328D01*
X197406206Y-70692335D01*
X197492452Y-70807544D01*
X197492455Y-70807547D01*
X197607664Y-70893793D01*
X197607671Y-70893797D01*
X197742517Y-70944091D01*
X197742516Y-70944091D01*
X197749444Y-70944835D01*
X197802127Y-70950500D01*
X200897872Y-70950499D01*
X200957483Y-70944091D01*
X201092331Y-70893796D01*
X201207546Y-70807546D01*
X201293796Y-70692331D01*
X201344091Y-70557483D01*
X201350500Y-70497873D01*
X201350499Y-67902128D01*
X201344091Y-67842517D01*
X201293796Y-67707669D01*
X201293795Y-67707668D01*
X201293793Y-67707664D01*
X201207547Y-67592455D01*
X201207544Y-67592452D01*
X201092335Y-67506206D01*
X201092328Y-67506202D01*
X200957482Y-67455908D01*
X200957483Y-67455908D01*
X200897883Y-67449501D01*
X200897881Y-67449500D01*
X200897873Y-67449500D01*
X200897864Y-67449500D01*
X197802129Y-67449500D01*
X197802123Y-67449501D01*
X197742516Y-67455908D01*
X197607671Y-67506202D01*
X197607664Y-67506206D01*
X197492455Y-67592452D01*
X197492452Y-67592455D01*
X197406206Y-67707664D01*
X197406202Y-67707671D01*
X197355908Y-67842517D01*
X197349501Y-67902116D01*
X197349501Y-67902123D01*
X197349500Y-67902135D01*
X197349500Y-70497870D01*
X161250500Y-70497870D01*
X161250500Y-70020807D01*
X161270185Y-69953768D01*
X161286814Y-69933130D01*
X161883626Y-69336318D01*
X161944949Y-69302834D01*
X161971307Y-69300000D01*
X164633251Y-69300000D01*
X164700290Y-69319685D01*
X164725401Y-69341028D01*
X164844129Y-69472888D01*
X164997265Y-69584148D01*
X164997270Y-69584151D01*
X165170192Y-69661142D01*
X165170197Y-69661144D01*
X165355354Y-69700500D01*
X165355355Y-69700500D01*
X165544644Y-69700500D01*
X165544646Y-69700500D01*
X165729803Y-69661144D01*
X165902730Y-69584151D01*
X166055871Y-69472888D01*
X166174598Y-69341028D01*
X166234086Y-69304379D01*
X166266749Y-69300000D01*
X168300000Y-69300000D01*
X168300000Y-66874204D01*
X168319685Y-66807165D01*
X168372489Y-66761410D01*
X168441647Y-66751466D01*
X168498312Y-66774938D01*
X168522910Y-66793352D01*
X168522913Y-66793354D01*
X168657620Y-66843596D01*
X168657627Y-66843598D01*
X168717155Y-66849999D01*
X168717172Y-66850000D01*
X169365000Y-66850000D01*
X169365000Y-65935501D01*
X169472685Y-65984680D01*
X169579237Y-66000000D01*
X169650763Y-66000000D01*
X169757315Y-65984680D01*
X169865000Y-65935501D01*
X169865000Y-66850000D01*
X170512828Y-66850000D01*
X170512844Y-66849999D01*
X170572372Y-66843598D01*
X170572379Y-66843596D01*
X170707086Y-66793354D01*
X170707093Y-66793350D01*
X170822187Y-66707190D01*
X170822190Y-66707187D01*
X170908350Y-66592093D01*
X170908354Y-66592086D01*
X170958596Y-66457379D01*
X170958598Y-66457372D01*
X170964999Y-66397844D01*
X170965000Y-66397827D01*
X170965000Y-65750000D01*
X170048686Y-65750000D01*
X170074493Y-65709844D01*
X170115000Y-65571889D01*
X170115000Y-65428111D01*
X170074493Y-65290156D01*
X170048686Y-65250000D01*
X170638786Y-65250000D01*
X170705825Y-65269685D01*
G37*
%TD.AperFunction*%
%TA.AperFunction,Conductor*%
G36*
X165450000Y-85684314D02*
G01*
X165438045Y-85672359D01*
X165325148Y-85614835D01*
X165231481Y-85600000D01*
X165168519Y-85600000D01*
X165074852Y-85614835D01*
X164961955Y-85672359D01*
X164950000Y-85684314D01*
X164950000Y-83775686D01*
X164961955Y-83787641D01*
X165074852Y-83845165D01*
X165168519Y-83860000D01*
X165231481Y-83860000D01*
X165325148Y-83845165D01*
X165438045Y-83787641D01*
X165450000Y-83775686D01*
X165450000Y-85684314D01*
G37*
%TD.AperFunction*%
%TA.AperFunction,Conductor*%
G36*
X165450000Y-83144314D02*
G01*
X165438045Y-83132359D01*
X165325148Y-83074835D01*
X165231481Y-83060000D01*
X165168519Y-83060000D01*
X165074852Y-83074835D01*
X164961955Y-83132359D01*
X164950000Y-83144314D01*
X164950000Y-81235686D01*
X164961955Y-81247641D01*
X165074852Y-81305165D01*
X165168519Y-81320000D01*
X165231481Y-81320000D01*
X165325148Y-81305165D01*
X165438045Y-81247641D01*
X165450000Y-81235686D01*
X165450000Y-83144314D01*
G37*
%TD.AperFunction*%
%TA.AperFunction,Conductor*%
G36*
X165450000Y-80604314D02*
G01*
X165438045Y-80592359D01*
X165325148Y-80534835D01*
X165231481Y-80520000D01*
X165168519Y-80520000D01*
X165074852Y-80534835D01*
X164961955Y-80592359D01*
X164950000Y-80604314D01*
X164950000Y-78695686D01*
X164961955Y-78707641D01*
X165074852Y-78765165D01*
X165168519Y-78780000D01*
X165231481Y-78780000D01*
X165325148Y-78765165D01*
X165438045Y-78707641D01*
X165450000Y-78695686D01*
X165450000Y-80604314D01*
G37*
%TD.AperFunction*%
%TD*%
%TA.AperFunction,Conductor*%
%TO.N,Earth_Protective*%
G36*
X205047903Y-78070185D02*
G01*
X205084672Y-78106677D01*
X205161836Y-78224785D01*
X205330256Y-78407738D01*
X205526491Y-78560474D01*
X205526493Y-78560475D01*
X205702837Y-78655908D01*
X205745190Y-78678828D01*
X205980386Y-78759571D01*
X206225665Y-78800500D01*
X206474335Y-78800500D01*
X206549999Y-78787873D01*
X206550000Y-102079586D01*
X206520337Y-102074500D01*
X206520328Y-102074500D01*
X205140446Y-102074500D01*
X205140441Y-102074500D01*
X204959224Y-102089923D01*
X204959222Y-102089924D01*
X204724391Y-102151068D01*
X204724388Y-102151069D01*
X204503286Y-102251013D01*
X204503274Y-102251020D01*
X204302234Y-102386900D01*
X204302232Y-102386902D01*
X204127047Y-102554803D01*
X204127046Y-102554804D01*
X204020226Y-102699235D01*
X203964536Y-102741429D01*
X203920531Y-102749500D01*
X195180217Y-102749500D01*
X195113178Y-102729815D01*
X195074628Y-102690515D01*
X195049242Y-102649286D01*
X195049241Y-102649284D01*
X194888924Y-102467130D01*
X194888920Y-102467126D01*
X194700129Y-102314688D01*
X194488290Y-102196347D01*
X194259500Y-102115511D01*
X194259486Y-102115507D01*
X194020337Y-102074500D01*
X194020328Y-102074500D01*
X192640446Y-102074500D01*
X192640441Y-102074500D01*
X192459224Y-102089923D01*
X192459222Y-102089924D01*
X192224391Y-102151068D01*
X192224388Y-102151069D01*
X192003286Y-102251013D01*
X192003274Y-102251020D01*
X191802234Y-102386900D01*
X191802232Y-102386902D01*
X191627047Y-102554803D01*
X191627046Y-102554804D01*
X191482758Y-102749893D01*
X191373515Y-102966565D01*
X191373512Y-102966571D01*
X191302456Y-103198594D01*
X191271635Y-103439281D01*
X191281467Y-103670737D01*
X191264646Y-103738552D01*
X191213831Y-103786506D01*
X191157579Y-103800000D01*
X190824000Y-103800000D01*
X190756961Y-103780315D01*
X190711206Y-103727511D01*
X190700000Y-103676000D01*
X190700000Y-81697870D01*
X197349500Y-81697870D01*
X197349501Y-81697876D01*
X197355908Y-81757483D01*
X197406202Y-81892328D01*
X197406206Y-81892335D01*
X197492452Y-82007544D01*
X197492455Y-82007547D01*
X197607664Y-82093793D01*
X197607671Y-82093797D01*
X197742517Y-82144091D01*
X197742516Y-82144091D01*
X197749444Y-82144835D01*
X197802127Y-82150500D01*
X200897872Y-82150499D01*
X200957483Y-82144091D01*
X201092331Y-82093796D01*
X201207546Y-82007546D01*
X201293796Y-81892331D01*
X201344091Y-81757483D01*
X201350500Y-81697873D01*
X201350499Y-79102128D01*
X201344091Y-79042517D01*
X201307322Y-78943935D01*
X201293797Y-78907671D01*
X201293793Y-78907664D01*
X201207547Y-78792455D01*
X201207544Y-78792452D01*
X201092335Y-78706206D01*
X201092328Y-78706202D01*
X200957482Y-78655908D01*
X200957483Y-78655908D01*
X200897883Y-78649501D01*
X200897881Y-78649500D01*
X200897873Y-78649500D01*
X200897864Y-78649500D01*
X197802129Y-78649500D01*
X197802123Y-78649501D01*
X197742516Y-78655908D01*
X197607671Y-78706202D01*
X197607664Y-78706206D01*
X197492455Y-78792452D01*
X197492452Y-78792455D01*
X197406206Y-78907664D01*
X197406202Y-78907671D01*
X197355908Y-79042517D01*
X197349501Y-79102116D01*
X197349501Y-79102123D01*
X197349500Y-79102135D01*
X197349500Y-81697870D01*
X190700000Y-81697870D01*
X190700000Y-79774500D01*
X190719685Y-79707461D01*
X190772489Y-79661706D01*
X190824000Y-79650500D01*
X192436295Y-79650500D01*
X192454265Y-79651809D01*
X192478023Y-79655289D01*
X192530068Y-79650735D01*
X192535470Y-79650500D01*
X192543704Y-79650500D01*
X192543709Y-79650500D01*
X192555327Y-79649141D01*
X192576276Y-79646693D01*
X192589028Y-79645577D01*
X192652797Y-79639999D01*
X192652805Y-79639996D01*
X192659866Y-79638539D01*
X192659878Y-79638598D01*
X192667243Y-79636965D01*
X192667229Y-79636906D01*
X192674246Y-79635241D01*
X192674255Y-79635241D01*
X192746423Y-79608974D01*
X192819334Y-79584814D01*
X192819343Y-79584807D01*
X192825882Y-79581760D01*
X192825908Y-79581816D01*
X192832690Y-79578532D01*
X192832663Y-79578478D01*
X192839106Y-79575240D01*
X192839117Y-79575237D01*
X192903283Y-79533034D01*
X192968656Y-79492712D01*
X192968662Y-79492705D01*
X192974325Y-79488229D01*
X192974362Y-79488277D01*
X192980204Y-79483518D01*
X192980164Y-79483471D01*
X192985691Y-79478832D01*
X192985696Y-79478830D01*
X193038386Y-79422981D01*
X194374547Y-78086818D01*
X194435871Y-78053334D01*
X194462229Y-78050500D01*
X204980864Y-78050500D01*
X205047903Y-78070185D01*
G37*
%TD.AperFunction*%
%TD*%
%TA.AperFunction,Conductor*%
%TO.N,Earth_Protective*%
G36*
X168300000Y-64464517D02*
G01*
X168272189Y-64539083D01*
X168230317Y-64595016D01*
X168164853Y-64619433D01*
X168096580Y-64604581D01*
X168068326Y-64583430D01*
X167946402Y-64461506D01*
X167946395Y-64461501D01*
X167752834Y-64325967D01*
X167752830Y-64325965D01*
X167752828Y-64325964D01*
X167538663Y-64226097D01*
X167538659Y-64226096D01*
X167538655Y-64226094D01*
X167310413Y-64164938D01*
X167310403Y-64164936D01*
X167075001Y-64144341D01*
X167074999Y-64144341D01*
X166839596Y-64164936D01*
X166839586Y-64164938D01*
X166611344Y-64226094D01*
X166611335Y-64226098D01*
X166397171Y-64325964D01*
X166397169Y-64325965D01*
X166203597Y-64461505D01*
X166036508Y-64628594D01*
X165906574Y-64814160D01*
X165851997Y-64857784D01*
X165782498Y-64864977D01*
X165720144Y-64833455D01*
X165703429Y-64814164D01*
X165573495Y-64628599D01*
X165573493Y-64628596D01*
X165406402Y-64461506D01*
X165406395Y-64461501D01*
X165212834Y-64325967D01*
X165212830Y-64325965D01*
X165212828Y-64325964D01*
X164998663Y-64226097D01*
X164998659Y-64226096D01*
X164998655Y-64226094D01*
X164770413Y-64164938D01*
X164770403Y-64164936D01*
X164535001Y-64144341D01*
X164534999Y-64144341D01*
X164299596Y-64164936D01*
X164299586Y-64164938D01*
X164071344Y-64226094D01*
X164071335Y-64226098D01*
X163857171Y-64325964D01*
X163857169Y-64325965D01*
X163663597Y-64461505D01*
X163496505Y-64628597D01*
X163366575Y-64814158D01*
X163311998Y-64857783D01*
X163242500Y-64864977D01*
X163180145Y-64833454D01*
X163163425Y-64814158D01*
X163033494Y-64628597D01*
X162866402Y-64461506D01*
X162866395Y-64461501D01*
X162672834Y-64325967D01*
X162672830Y-64325965D01*
X162672828Y-64325964D01*
X162458663Y-64226097D01*
X162458659Y-64226096D01*
X162458655Y-64226094D01*
X162230413Y-64164938D01*
X162230403Y-64164936D01*
X161995001Y-64144341D01*
X161994999Y-64144341D01*
X161759596Y-64164936D01*
X161759586Y-64164938D01*
X161531344Y-64226094D01*
X161531335Y-64226098D01*
X161317171Y-64325964D01*
X161317169Y-64325965D01*
X161123597Y-64461505D01*
X160956505Y-64628597D01*
X160826575Y-64814158D01*
X160771998Y-64857783D01*
X160702500Y-64864977D01*
X160640145Y-64833454D01*
X160623425Y-64814158D01*
X160493494Y-64628597D01*
X160326402Y-64461506D01*
X160326395Y-64461501D01*
X160132834Y-64325967D01*
X160132830Y-64325965D01*
X160132828Y-64325964D01*
X159918663Y-64226097D01*
X159918659Y-64226096D01*
X159918655Y-64226094D01*
X159690413Y-64164938D01*
X159690403Y-64164936D01*
X159455001Y-64144341D01*
X159454999Y-64144341D01*
X159219596Y-64164936D01*
X159219586Y-64164938D01*
X158991344Y-64226094D01*
X158991335Y-64226098D01*
X158777171Y-64325964D01*
X158777169Y-64325965D01*
X158583597Y-64461505D01*
X158416505Y-64628597D01*
X158286575Y-64814158D01*
X158231998Y-64857783D01*
X158162500Y-64864977D01*
X158100145Y-64833454D01*
X158083425Y-64814158D01*
X157953494Y-64628597D01*
X157786402Y-64461506D01*
X157786395Y-64461501D01*
X157592834Y-64325967D01*
X157592830Y-64325965D01*
X157592828Y-64325964D01*
X157378663Y-64226097D01*
X157378659Y-64226096D01*
X157378655Y-64226094D01*
X157150413Y-64164938D01*
X157150403Y-64164936D01*
X156915001Y-64144341D01*
X156914999Y-64144341D01*
X156679596Y-64164936D01*
X156679586Y-64164938D01*
X156451344Y-64226094D01*
X156451335Y-64226098D01*
X156237171Y-64325964D01*
X156237169Y-64325965D01*
X156043597Y-64461505D01*
X155876508Y-64628594D01*
X155746574Y-64814160D01*
X155691997Y-64857784D01*
X155622498Y-64864977D01*
X155560144Y-64833455D01*
X155543429Y-64814164D01*
X155413495Y-64628599D01*
X155413493Y-64628596D01*
X155246402Y-64461506D01*
X155246395Y-64461501D01*
X155052834Y-64325967D01*
X155052830Y-64325965D01*
X155052828Y-64325964D01*
X154838663Y-64226097D01*
X154838659Y-64226096D01*
X154838655Y-64226094D01*
X154610413Y-64164938D01*
X154610403Y-64164936D01*
X154375001Y-64144341D01*
X154374999Y-64144341D01*
X154139596Y-64164936D01*
X154139586Y-64164938D01*
X153911344Y-64226094D01*
X153911335Y-64226098D01*
X153697171Y-64325964D01*
X153697169Y-64325965D01*
X153503597Y-64461505D01*
X153336505Y-64628597D01*
X153206575Y-64814158D01*
X153151998Y-64857783D01*
X153082500Y-64864977D01*
X153020145Y-64833454D01*
X153003425Y-64814158D01*
X152873494Y-64628597D01*
X152706402Y-64461506D01*
X152706395Y-64461501D01*
X152512834Y-64325967D01*
X152512830Y-64325965D01*
X152512828Y-64325964D01*
X152298663Y-64226097D01*
X152298659Y-64226096D01*
X152298655Y-64226094D01*
X152070413Y-64164938D01*
X152070403Y-64164936D01*
X151835001Y-64144341D01*
X151834999Y-64144341D01*
X151599596Y-64164936D01*
X151599586Y-64164938D01*
X151371344Y-64226094D01*
X151371335Y-64226098D01*
X151157171Y-64325964D01*
X151157169Y-64325965D01*
X150963597Y-64461505D01*
X150796505Y-64628597D01*
X150666575Y-64814158D01*
X150611998Y-64857783D01*
X150542500Y-64864977D01*
X150480145Y-64833454D01*
X150463425Y-64814158D01*
X150333494Y-64628597D01*
X150166402Y-64461506D01*
X150166395Y-64461501D01*
X149972834Y-64325967D01*
X149972830Y-64325965D01*
X149972828Y-64325964D01*
X149758663Y-64226097D01*
X149758659Y-64226096D01*
X149758655Y-64226094D01*
X149530413Y-64164938D01*
X149530403Y-64164936D01*
X149295001Y-64144341D01*
X149294999Y-64144341D01*
X149059596Y-64164936D01*
X149059586Y-64164938D01*
X148831344Y-64226094D01*
X148831335Y-64226098D01*
X148617171Y-64325964D01*
X148617169Y-64325965D01*
X148423597Y-64461505D01*
X148256505Y-64628597D01*
X148126575Y-64814158D01*
X148071998Y-64857783D01*
X148002500Y-64864977D01*
X147940145Y-64833454D01*
X147923425Y-64814158D01*
X147793494Y-64628597D01*
X147626402Y-64461506D01*
X147626395Y-64461501D01*
X147432834Y-64325967D01*
X147432830Y-64325965D01*
X147432828Y-64325964D01*
X147218663Y-64226097D01*
X147218659Y-64226096D01*
X147218655Y-64226094D01*
X146990413Y-64164938D01*
X146990403Y-64164936D01*
X146755001Y-64144341D01*
X146754999Y-64144341D01*
X146519596Y-64164936D01*
X146519586Y-64164938D01*
X146291344Y-64226094D01*
X146291335Y-64226098D01*
X146077171Y-64325964D01*
X146077169Y-64325965D01*
X145883597Y-64461505D01*
X145716508Y-64628594D01*
X145586574Y-64814160D01*
X145531997Y-64857784D01*
X145462498Y-64864977D01*
X145400144Y-64833455D01*
X145383429Y-64814164D01*
X145253495Y-64628599D01*
X145253493Y-64628596D01*
X145086402Y-64461506D01*
X145086395Y-64461501D01*
X144892834Y-64325967D01*
X144892830Y-64325965D01*
X144892828Y-64325964D01*
X144678663Y-64226097D01*
X144678659Y-64226096D01*
X144678655Y-64226094D01*
X144450413Y-64164938D01*
X144450403Y-64164936D01*
X144215001Y-64144341D01*
X144214999Y-64144341D01*
X143979596Y-64164936D01*
X143979586Y-64164938D01*
X143751344Y-64226094D01*
X143751335Y-64226098D01*
X143537171Y-64325964D01*
X143537169Y-64325965D01*
X143343597Y-64461505D01*
X143176505Y-64628597D01*
X143046575Y-64814158D01*
X142991998Y-64857783D01*
X142922500Y-64864977D01*
X142860145Y-64833454D01*
X142843425Y-64814158D01*
X142713494Y-64628597D01*
X142546402Y-64461506D01*
X142546395Y-64461501D01*
X142352834Y-64325967D01*
X142352830Y-64325965D01*
X142352828Y-64325964D01*
X142138663Y-64226097D01*
X142138659Y-64226096D01*
X142138655Y-64226094D01*
X141910413Y-64164938D01*
X141910403Y-64164936D01*
X141675001Y-64144341D01*
X141674999Y-64144341D01*
X141439596Y-64164936D01*
X141439586Y-64164938D01*
X141211344Y-64226094D01*
X141211335Y-64226098D01*
X140997171Y-64325964D01*
X140997169Y-64325965D01*
X140803597Y-64461505D01*
X140636505Y-64628597D01*
X140506575Y-64814158D01*
X140451998Y-64857783D01*
X140382500Y-64864977D01*
X140320145Y-64833454D01*
X140303425Y-64814158D01*
X140173494Y-64628597D01*
X140006402Y-64461506D01*
X140006395Y-64461501D01*
X139812834Y-64325967D01*
X139812830Y-64325965D01*
X139812828Y-64325964D01*
X139598663Y-64226097D01*
X139598659Y-64226096D01*
X139598655Y-64226094D01*
X139370413Y-64164938D01*
X139370403Y-64164936D01*
X139135001Y-64144341D01*
X139134999Y-64144341D01*
X138899596Y-64164936D01*
X138899586Y-64164938D01*
X138671344Y-64226094D01*
X138671335Y-64226098D01*
X138457171Y-64325964D01*
X138457169Y-64325965D01*
X138263597Y-64461505D01*
X138096505Y-64628597D01*
X137966575Y-64814158D01*
X137911998Y-64857783D01*
X137842500Y-64864977D01*
X137780145Y-64833454D01*
X137763425Y-64814158D01*
X137633494Y-64628597D01*
X137466402Y-64461506D01*
X137466395Y-64461501D01*
X137272834Y-64325967D01*
X137272830Y-64325965D01*
X137272828Y-64325964D01*
X137058663Y-64226097D01*
X137058659Y-64226096D01*
X137058655Y-64226094D01*
X136830413Y-64164938D01*
X136830403Y-64164936D01*
X136595001Y-64144341D01*
X136594999Y-64144341D01*
X136359596Y-64164936D01*
X136359586Y-64164938D01*
X136131344Y-64226094D01*
X136131335Y-64226098D01*
X135917171Y-64325964D01*
X135917169Y-64325965D01*
X135723597Y-64461505D01*
X135556505Y-64628597D01*
X135426575Y-64814158D01*
X135371998Y-64857783D01*
X135302500Y-64864977D01*
X135240145Y-64833454D01*
X135223425Y-64814158D01*
X135093494Y-64628597D01*
X134926402Y-64461506D01*
X134926395Y-64461501D01*
X134732834Y-64325967D01*
X134732830Y-64325965D01*
X134732828Y-64325964D01*
X134518663Y-64226097D01*
X134518659Y-64226096D01*
X134518655Y-64226094D01*
X134290413Y-64164938D01*
X134290403Y-64164936D01*
X134055001Y-64144341D01*
X134054999Y-64144341D01*
X133819596Y-64164936D01*
X133819586Y-64164938D01*
X133591344Y-64226094D01*
X133591335Y-64226098D01*
X133377171Y-64325964D01*
X133377169Y-64325965D01*
X133183597Y-64461505D01*
X133016505Y-64628597D01*
X132886575Y-64814158D01*
X132831998Y-64857783D01*
X132762500Y-64864977D01*
X132700145Y-64833454D01*
X132683425Y-64814158D01*
X132553494Y-64628597D01*
X132386402Y-64461506D01*
X132386395Y-64461501D01*
X132192834Y-64325967D01*
X132192830Y-64325965D01*
X132192828Y-64325964D01*
X131978663Y-64226097D01*
X131978659Y-64226096D01*
X131978655Y-64226094D01*
X131750413Y-64164938D01*
X131750403Y-64164936D01*
X131515001Y-64144341D01*
X131514999Y-64144341D01*
X131279596Y-64164936D01*
X131279586Y-64164938D01*
X131051344Y-64226094D01*
X131051335Y-64226098D01*
X130837171Y-64325964D01*
X130837169Y-64325965D01*
X130643597Y-64461505D01*
X130476505Y-64628597D01*
X130346575Y-64814158D01*
X130291998Y-64857783D01*
X130222500Y-64864977D01*
X130160145Y-64833454D01*
X130143425Y-64814158D01*
X130013494Y-64628597D01*
X129846402Y-64461506D01*
X129846395Y-64461501D01*
X129652834Y-64325967D01*
X129652830Y-64325965D01*
X129652828Y-64325964D01*
X129438663Y-64226097D01*
X129438659Y-64226096D01*
X129438655Y-64226094D01*
X129210413Y-64164938D01*
X129210403Y-64164936D01*
X128975001Y-64144341D01*
X128974999Y-64144341D01*
X128739596Y-64164936D01*
X128739586Y-64164938D01*
X128511344Y-64226094D01*
X128511335Y-64226098D01*
X128297171Y-64325964D01*
X128297169Y-64325965D01*
X128103597Y-64461505D01*
X127936505Y-64628597D01*
X127806575Y-64814158D01*
X127751998Y-64857783D01*
X127682500Y-64864977D01*
X127620145Y-64833454D01*
X127603425Y-64814158D01*
X127473494Y-64628597D01*
X127306402Y-64461506D01*
X127306395Y-64461501D01*
X127112834Y-64325967D01*
X127112830Y-64325965D01*
X127112828Y-64325964D01*
X126898663Y-64226097D01*
X126898659Y-64226096D01*
X126898655Y-64226094D01*
X126670413Y-64164938D01*
X126670403Y-64164936D01*
X126435001Y-64144341D01*
X126434999Y-64144341D01*
X126199596Y-64164936D01*
X126199586Y-64164938D01*
X125971344Y-64226094D01*
X125971335Y-64226098D01*
X125757171Y-64325964D01*
X125757169Y-64325965D01*
X125563597Y-64461505D01*
X125396505Y-64628597D01*
X125266575Y-64814158D01*
X125211998Y-64857783D01*
X125142500Y-64864977D01*
X125080145Y-64833454D01*
X125063425Y-64814158D01*
X124933494Y-64628597D01*
X124766402Y-64461506D01*
X124766395Y-64461501D01*
X124572834Y-64325967D01*
X124572830Y-64325965D01*
X124572828Y-64325964D01*
X124358663Y-64226097D01*
X124358659Y-64226096D01*
X124358655Y-64226094D01*
X124130413Y-64164938D01*
X124130403Y-64164936D01*
X123895001Y-64144341D01*
X123894999Y-64144341D01*
X123659596Y-64164936D01*
X123659586Y-64164938D01*
X123431344Y-64226094D01*
X123431335Y-64226098D01*
X123217171Y-64325964D01*
X123217169Y-64325965D01*
X123023597Y-64461505D01*
X122856505Y-64628597D01*
X122726575Y-64814158D01*
X122671998Y-64857783D01*
X122602500Y-64864977D01*
X122540145Y-64833454D01*
X122523425Y-64814158D01*
X122393494Y-64628597D01*
X122226402Y-64461506D01*
X122226395Y-64461501D01*
X122032834Y-64325967D01*
X122032830Y-64325965D01*
X122032828Y-64325964D01*
X121818663Y-64226097D01*
X121818659Y-64226096D01*
X121818655Y-64226094D01*
X121590413Y-64164938D01*
X121590403Y-64164936D01*
X121355001Y-64144341D01*
X121354999Y-64144341D01*
X121119596Y-64164936D01*
X121119586Y-64164938D01*
X120891344Y-64226094D01*
X120891335Y-64226098D01*
X120677171Y-64325964D01*
X120677169Y-64325965D01*
X120483597Y-64461505D01*
X120316505Y-64628597D01*
X120180965Y-64822169D01*
X120180964Y-64822171D01*
X120081098Y-65036335D01*
X120081094Y-65036344D01*
X120019938Y-65264586D01*
X120019936Y-65264596D01*
X120009244Y-65386808D01*
X119983791Y-65451877D01*
X119927200Y-65492855D01*
X119885716Y-65500000D01*
X119600000Y-65500000D01*
X119600000Y-62700500D01*
X168300000Y-62700500D01*
X168300000Y-64464517D01*
G37*
%TD.AperFunction*%
%TD*%
%TA.AperFunction,Conductor*%
%TO.N,Earth_Protective*%
G36*
X208142539Y-62720185D02*
G01*
X208188294Y-62772989D01*
X208199500Y-62824500D01*
X208199500Y-64900000D01*
X171089499Y-64900000D01*
X171022460Y-64880315D01*
X170976705Y-64827511D01*
X170965499Y-64776000D01*
X170965499Y-64602129D01*
X170965498Y-64602123D01*
X170959091Y-64542516D01*
X170908797Y-64407671D01*
X170908793Y-64407664D01*
X170822547Y-64292455D01*
X170822544Y-64292452D01*
X170707335Y-64206206D01*
X170707328Y-64206202D01*
X170572482Y-64155908D01*
X170572483Y-64155908D01*
X170512883Y-64149501D01*
X170512881Y-64149500D01*
X170512873Y-64149500D01*
X170512864Y-64149500D01*
X168717129Y-64149500D01*
X168717123Y-64149501D01*
X168657516Y-64155908D01*
X168522671Y-64206202D01*
X168522664Y-64206206D01*
X168407455Y-64292452D01*
X168407452Y-64292455D01*
X168321206Y-64407664D01*
X168321202Y-64407671D01*
X168300000Y-64464517D01*
X168300000Y-62700500D01*
X208075500Y-62700500D01*
X208142539Y-62720185D01*
G37*
%TD.AperFunction*%
%TD*%
%TA.AperFunction,Conductor*%
%TO.N,Earth_Protective*%
G36*
X208199500Y-127500000D02*
G01*
X206550000Y-127500000D01*
X206550000Y-125229560D01*
X206569685Y-125162521D01*
X206622489Y-125116766D01*
X206642752Y-125109562D01*
X206875608Y-125048931D01*
X206875611Y-125048930D01*
X207096713Y-124948986D01*
X207096716Y-124948983D01*
X207096723Y-124948981D01*
X207297765Y-124813100D01*
X207472952Y-124645197D01*
X207617244Y-124450102D01*
X207726488Y-124233429D01*
X207797543Y-124001409D01*
X207828365Y-123760719D01*
X207818066Y-123518281D01*
X207766944Y-123281072D01*
X207676468Y-123055914D01*
X207549242Y-122849286D01*
X207388925Y-122667131D01*
X207388924Y-122667130D01*
X207388920Y-122667126D01*
X207200129Y-122514688D01*
X206988290Y-122396347D01*
X206759500Y-122315511D01*
X206759487Y-122315507D01*
X206653043Y-122297255D01*
X206590294Y-122266523D01*
X206554122Y-122206746D01*
X206550000Y-122175039D01*
X206550000Y-120229560D01*
X206569685Y-120162521D01*
X206622489Y-120116766D01*
X206642752Y-120109562D01*
X206875608Y-120048931D01*
X206875611Y-120048930D01*
X207096713Y-119948986D01*
X207096716Y-119948983D01*
X207096723Y-119948981D01*
X207297765Y-119813100D01*
X207472952Y-119645197D01*
X207617244Y-119450102D01*
X207726488Y-119233429D01*
X207797543Y-119001409D01*
X207828365Y-118760719D01*
X207818066Y-118518281D01*
X207766944Y-118281072D01*
X207676468Y-118055914D01*
X207549242Y-117849286D01*
X207388925Y-117667131D01*
X207388924Y-117667130D01*
X207388920Y-117667126D01*
X207200129Y-117514688D01*
X206988290Y-117396347D01*
X206759500Y-117315511D01*
X206759487Y-117315507D01*
X206653043Y-117297255D01*
X206590294Y-117266523D01*
X206554122Y-117206746D01*
X206550000Y-117175039D01*
X206550000Y-110029556D01*
X206569684Y-109962521D01*
X206622488Y-109916766D01*
X206642748Y-109909562D01*
X206875608Y-109848931D01*
X206875611Y-109848930D01*
X207096713Y-109748986D01*
X207096716Y-109748983D01*
X207096723Y-109748981D01*
X207297765Y-109613100D01*
X207472952Y-109445197D01*
X207617244Y-109250102D01*
X207726488Y-109033429D01*
X207797543Y-108801409D01*
X207828365Y-108560719D01*
X207818066Y-108318281D01*
X207766944Y-108081072D01*
X207676468Y-107855914D01*
X207549242Y-107649286D01*
X207388925Y-107467131D01*
X207388924Y-107467130D01*
X207388920Y-107467126D01*
X207200129Y-107314688D01*
X206988290Y-107196347D01*
X206759500Y-107115511D01*
X206759487Y-107115507D01*
X206653043Y-107097255D01*
X206590294Y-107066523D01*
X206554122Y-107006746D01*
X206550000Y-106975039D01*
X206550000Y-105029560D01*
X206569685Y-104962521D01*
X206622489Y-104916766D01*
X206642752Y-104909562D01*
X206875608Y-104848931D01*
X206875611Y-104848930D01*
X207096713Y-104748986D01*
X207096716Y-104748983D01*
X207096723Y-104748981D01*
X207297765Y-104613100D01*
X207472952Y-104445197D01*
X207617244Y-104250102D01*
X207726488Y-104033429D01*
X207797543Y-103801409D01*
X207828365Y-103560719D01*
X207818066Y-103318281D01*
X207766944Y-103081072D01*
X207676468Y-102855914D01*
X207549242Y-102649286D01*
X207388925Y-102467131D01*
X207388924Y-102467130D01*
X207388920Y-102467126D01*
X207200129Y-102314688D01*
X206988290Y-102196347D01*
X206759500Y-102115511D01*
X206759486Y-102115507D01*
X206550000Y-102079586D01*
X206550000Y-78787873D01*
X206719614Y-78759571D01*
X206954810Y-78678828D01*
X207173509Y-78560474D01*
X207369744Y-78407738D01*
X207538164Y-78224785D01*
X207674173Y-78016607D01*
X207774063Y-77788881D01*
X207835108Y-77547821D01*
X207855643Y-77300000D01*
X207835108Y-77052179D01*
X207835107Y-77052175D01*
X207774063Y-76811118D01*
X207674173Y-76583393D01*
X207538166Y-76375217D01*
X207516557Y-76351744D01*
X207369744Y-76192262D01*
X207173509Y-76039526D01*
X207173507Y-76039525D01*
X207173506Y-76039524D01*
X206954811Y-75921172D01*
X206954802Y-75921169D01*
X206719618Y-75840429D01*
X206653589Y-75829411D01*
X206590704Y-75798960D01*
X206554265Y-75739345D01*
X206550000Y-75707102D01*
X206550000Y-73892896D01*
X206569685Y-73825857D01*
X206622489Y-73780102D01*
X206653587Y-73770588D01*
X206719614Y-73759571D01*
X206719615Y-73759571D01*
X206793708Y-73734134D01*
X206954810Y-73678828D01*
X207173509Y-73560474D01*
X207369744Y-73407738D01*
X207538164Y-73224785D01*
X207674173Y-73016607D01*
X207774063Y-72788881D01*
X207835108Y-72547821D01*
X207855643Y-72300000D01*
X207835108Y-72052179D01*
X207774063Y-71811119D01*
X207674173Y-71583393D01*
X207674172Y-71583393D01*
X207538166Y-71375217D01*
X207516557Y-71351744D01*
X207369744Y-71192262D01*
X207173509Y-71039526D01*
X207173507Y-71039525D01*
X207173506Y-71039524D01*
X206954811Y-70921172D01*
X206954802Y-70921169D01*
X206719618Y-70840429D01*
X206653589Y-70829411D01*
X206590704Y-70798960D01*
X206554265Y-70739345D01*
X206550000Y-70707102D01*
X206550000Y-64900000D01*
X208199500Y-64900000D01*
X208199500Y-127500000D01*
G37*
%TD.AperFunction*%
%TD*%
M02*
